{
  "header": {
    "PPQ": 96,
    "bpm": 128,
    "timeSignature": [
      4,
      4
    ],
    "name": ""
  },
  "tempo": [
    {
      "absoluteTime": 0,
      "seconds": 0,
      "bpm": 128
    }
  ],
  "timeSignature": [
    {
      "absoluteTime": 0,
      "seconds": 0,
      "numerator": 4,
      "denominator": 2,
      "click": 24,
      "notesQ": 8
    }
  ],
  "startTime": 0,
  "duration": 125.625,
  "tracks": [
    {
      "startTime": 0,
      "duration": 0,
      "length": 0,
      "notes": [],
      "controlChanges": {},
      "id": 0
    },
    {
      "startTime": 0,
      "duration": 125.625,
      "length": 605,
      "notes": [
        {
          "name": "C4",
          "midi": 60,
          "time": 0,
          "velocity": 0.7874015748031497,
          "duration": 0.46875
        },
        {
          "name": "C4",
          "midi": 60,
          "time": 1.875,
          "velocity": 0.7874015748031497,
          "duration": 0.46875
        },
        {
          "name": "E4",
          "midi": 64,
          "time": 2.34375,
          "velocity": 0.7874015748031497,
          "duration": 0.46875
        },
        {
          "name": "C4",
          "midi": 60,
          "time": 3.75,
          "velocity": 0.7874015748031497,
          "duration": 0.46875
        },
        {
          "name": "E4",
          "midi": 64,
          "time": 4.21875,
          "velocity": 0.7874015748031497,
          "duration": 0.46875
        },
        {
          "name": "D4",
          "midi": 62,
          "time": 4.6875,
          "velocity": 0.7874015748031497,
          "duration": 0.3515625
        },
        {
          "name": "E4",
          "midi": 64,
          "time": 5.0390625,
          "velocity": 0.7874015748031497,
          "duration": 0.1171875
        },
        {
          "name": "F4",
          "midi": 65,
          "time": 5.5078125,
          "velocity": 0.7874015748031497,
          "duration": 0.1171875
        },
        {
          "name": "C4",
          "midi": 60,
          "time": 7.5,
          "velocity": 0.7874015748031497,
          "duration": 0.46875
        },
        {
          "name": "E4",
          "midi": 64,
          "time": 7.96875,
          "velocity": 0.7874015748031497,
          "duration": 0.46875
        },
        {
          "name": "D4",
          "midi": 62,
          "time": 8.4375,
          "velocity": 0.7874015748031497,
          "duration": 0.3515625
        },
        {
          "name": "E4",
          "midi": 64,
          "time": 8.7890625,
          "velocity": 0.7874015748031497,
          "duration": 0.1171875
        },
        {
          "name": "C4",
          "midi": 60,
          "time": 9.0234375,
          "velocity": 0.7874015748031497,
          "duration": 0.1171875
        },
        {
          "name": "E4",
          "midi": 64,
          "time": 9.2578125,
          "velocity": 0.7874015748031497,
          "duration": 0.3515625
        },
        {
          "name": "F4",
          "midi": 65,
          "time": 9.84375,
          "velocity": 0.7874015748031497,
          "duration": 0.3515625
        },
        {
          "name": "D4",
          "midi": 62,
          "time": 10.1953125,
          "velocity": 0.7874015748031497,
          "duration": 0.1171875
        },
        {
          "name": "E4",
          "midi": 64,
          "time": 10.3125,
          "velocity": 0.7874015748031497,
          "duration": 0.1171875
        },
        {
          "name": "F4",
          "midi": 65,
          "time": 10.4296875,
          "velocity": 0.7874015748031497,
          "duration": 0.1171875
        },
        {
          "name": "F4",
          "midi": 65,
          "time": 10.6640625,
          "velocity": 0.7874015748031497,
          "duration": 0.1171875
        },
        {
          "name": "E4",
          "midi": 64,
          "time": 10.8984375,
          "velocity": 0.7874015748031497,
          "duration": 0.1171875
        },
        {
          "name": "C4",
          "midi": 60,
          "time": 11.25,
          "velocity": 0.7874015748031497,
          "duration": 0.46875
        },
        {
          "name": "E4",
          "midi": 64,
          "time": 11.71875,
          "velocity": 0.7874015748031497,
          "duration": 0.46875
        },
        {
          "name": "D4",
          "midi": 62,
          "time": 12.1875,
          "velocity": 0.7874015748031497,
          "duration": 0.3515625
        },
        {
          "name": "E4",
          "midi": 64,
          "time": 12.5390625,
          "velocity": 0.7874015748031497,
          "duration": 0.1171875
        },
        {
          "name": "C4",
          "midi": 60,
          "time": 12.7734375,
          "velocity": 0.7874015748031497,
          "duration": 0.1171875
        },
        {
          "name": "E4",
          "midi": 64,
          "time": 13.0078125,
          "velocity": 0.7874015748031497,
          "duration": 0.3515625
        },
        {
          "name": "F4",
          "midi": 65,
          "time": 13.59375,
          "velocity": 0.7874015748031497,
          "duration": 0.234375
        },
        {
          "name": "E4",
          "midi": 64,
          "time": 13.828125,
          "velocity": 0.7874015748031497,
          "duration": 0.1171875
        },
        {
          "name": "D4",
          "midi": 62,
          "time": 14.0625,
          "velocity": 0.7874015748031497,
          "duration": 0.1171875
        },
        {
          "name": "D4",
          "midi": 62,
          "time": 14.4140625,
          "velocity": 0.7874015748031497,
          "duration": 0.1171875
        },
        {
          "name": "E4",
          "midi": 64,
          "time": 14.6484375,
          "velocity": 0.7874015748031497,
          "duration": 0.1171875
        },
        {
          "name": "C4",
          "midi": 60,
          "time": 14.765625,
          "velocity": 0.7874015748031497,
          "duration": 0.1171875
        },
        {
          "name": "C4",
          "midi": 60,
          "time": 15,
          "velocity": 0.7874015748031497,
          "duration": 0.46875
        },
        {
          "name": "E4",
          "midi": 64,
          "time": 15.46875,
          "velocity": 0.7874015748031497,
          "duration": 0.46875
        },
        {
          "name": "D4",
          "midi": 62,
          "time": 15.9375,
          "velocity": 0.7874015748031497,
          "duration": 0.3515625
        },
        {
          "name": "E4",
          "midi": 64,
          "time": 16.2890625,
          "velocity": 0.7874015748031497,
          "duration": 0.1171875
        },
        {
          "name": "C4",
          "midi": 60,
          "time": 16.5234375,
          "velocity": 0.7874015748031497,
          "duration": 0.1171875
        },
        {
          "name": "E4",
          "midi": 64,
          "time": 16.7578125,
          "velocity": 0.7874015748031497,
          "duration": 0.3515625
        },
        {
          "name": "F4",
          "midi": 65,
          "time": 17.34375,
          "velocity": 0.7874015748031497,
          "duration": 0.3515625
        },
        {
          "name": "D4",
          "midi": 62,
          "time": 17.6953125,
          "velocity": 0.7874015748031497,
          "duration": 0.1171875
        },
        {
          "name": "E4",
          "midi": 64,
          "time": 17.8125,
          "velocity": 0.7874015748031497,
          "duration": 0.1171875
        },
        {
          "name": "F4",
          "midi": 65,
          "time": 17.9296875,
          "velocity": 0.7874015748031497,
          "duration": 0.1171875
        },
        {
          "name": "F4",
          "midi": 65,
          "time": 18.1640625,
          "velocity": 0.7874015748031497,
          "duration": 0.1171875
        },
        {
          "name": "E4",
          "midi": 64,
          "time": 18.3984375,
          "velocity": 0.7874015748031497,
          "duration": 0.1171875
        },
        {
          "name": "C4",
          "midi": 60,
          "time": 18.75,
          "velocity": 0.7874015748031497,
          "duration": 0.46875
        },
        {
          "name": "E4",
          "midi": 64,
          "time": 19.21875,
          "velocity": 0.7874015748031497,
          "duration": 0.46875
        },
        {
          "name": "D4",
          "midi": 62,
          "time": 19.6875,
          "velocity": 0.7874015748031497,
          "duration": 0.3515625
        },
        {
          "name": "E4",
          "midi": 64,
          "time": 20.0390625,
          "velocity": 0.7874015748031497,
          "duration": 0.1171875
        },
        {
          "name": "C4",
          "midi": 60,
          "time": 20.2734375,
          "velocity": 0.7874015748031497,
          "duration": 0.1171875
        },
        {
          "name": "E4",
          "midi": 64,
          "time": 20.5078125,
          "velocity": 0.7874015748031497,
          "duration": 0.3515625
        },
        {
          "name": "F4",
          "midi": 65,
          "time": 21.09375,
          "velocity": 0.7874015748031497,
          "duration": 0.234375
        },
        {
          "name": "E4",
          "midi": 64,
          "time": 21.328125,
          "velocity": 0.7874015748031497,
          "duration": 0.1171875
        },
        {
          "name": "D4",
          "midi": 62,
          "time": 21.5625,
          "velocity": 0.7874015748031497,
          "duration": 0.1171875
        },
        {
          "name": "D4",
          "midi": 62,
          "time": 21.9140625,
          "velocity": 0.7874015748031497,
          "duration": 0.1171875
        },
        {
          "name": "E4",
          "midi": 64,
          "time": 22.1484375,
          "velocity": 0.7874015748031497,
          "duration": 0.1171875
        },
        {
          "name": "C4",
          "midi": 60,
          "time": 22.265625,
          "velocity": 0.7874015748031497,
          "duration": 0.1171875
        },
        {
          "name": "C4",
          "midi": 60,
          "time": 22.5,
          "velocity": 0.7874015748031497,
          "duration": 0.1171875
        },
        {
          "name": "D4",
          "midi": 62,
          "time": 22.96875,
          "velocity": 0.7874015748031497,
          "duration": 0.1171875
        },
        {
          "name": "C4",
          "midi": 60,
          "time": 23.5546875,
          "velocity": 0.7874015748031497,
          "duration": 0.1171875
        },
        {
          "name": "F4",
          "midi": 65,
          "time": 23.671875,
          "velocity": 0.7874015748031497,
          "duration": 0.1171875
        },
        {
          "name": "E4",
          "midi": 64,
          "time": 23.7890625,
          "velocity": 0.7874015748031497,
          "duration": 0.1171875
        },
        {
          "name": "D4",
          "midi": 62,
          "time": 23.90625,
          "velocity": 0.7874015748031497,
          "duration": 0.1171875
        },
        {
          "name": "E4",
          "midi": 64,
          "time": 24.2578125,
          "velocity": 0.7874015748031497,
          "duration": 0.1171875
        },
        {
          "name": "F4",
          "midi": 65,
          "time": 24.375,
          "velocity": 0.7874015748031497,
          "duration": 0.1171875
        },
        {
          "name": "E4",
          "midi": 64,
          "time": 24.4921875,
          "velocity": 0.7874015748031497,
          "duration": 0.1171875
        },
        {
          "name": "E4",
          "midi": 64,
          "time": 24.609375,
          "velocity": 0.7874015748031497,
          "duration": 0.1171875
        },
        {
          "name": "D4",
          "midi": 62,
          "time": 24.84375,
          "velocity": 0.7874015748031497,
          "duration": 0.1171875
        },
        {
          "name": "E4",
          "midi": 64,
          "time": 25.4296875,
          "velocity": 0.5118110236220472,
          "duration": 0.1171875
        },
        {
          "name": "E4",
          "midi": 64,
          "time": 25.546875,
          "velocity": 0.6535433070866141,
          "duration": 0.1171875
        },
        {
          "name": "F4",
          "midi": 65,
          "time": 25.6640625,
          "velocity": 0.8661417322834646,
          "duration": 0.1171875
        },
        {
          "name": "E4",
          "midi": 64,
          "time": 25.78125,
          "velocity": 0.7874015748031497,
          "duration": 0.1171875
        },
        {
          "name": "F4",
          "midi": 65,
          "time": 26.015625,
          "velocity": 0.7795275590551181,
          "duration": 0.1171875
        },
        {
          "name": "D4",
          "midi": 62,
          "time": 26.1328125,
          "velocity": 0.7874015748031497,
          "duration": 0.1171875
        },
        {
          "name": "C4",
          "midi": 60,
          "time": 26.25,
          "velocity": 0.7874015748031497,
          "duration": 0.1171875
        },
        {
          "name": "C4",
          "midi": 60,
          "time": 26.3671875,
          "velocity": 0.7874015748031497,
          "duration": 0.1171875
        },
        {
          "name": "D4",
          "midi": 62,
          "time": 26.71875,
          "velocity": 0.7874015748031497,
          "duration": 0.1171875
        },
        {
          "name": "F4",
          "midi": 65,
          "time": 26.953125,
          "velocity": 0.7874015748031497,
          "duration": 0.1171875
        },
        {
          "name": "C4",
          "midi": 60,
          "time": 27.0703125,
          "velocity": 0.7874015748031497,
          "duration": 0.1171875
        },
        {
          "name": "E4",
          "midi": 64,
          "time": 27.1875,
          "velocity": 0.7874015748031497,
          "duration": 0.1171875
        },
        {
          "name": "C4",
          "midi": 60,
          "time": 27.1875,
          "velocity": 0.7874015748031497,
          "duration": 0.1171875
        },
        {
          "name": "C4",
          "midi": 60,
          "time": 27.3046875,
          "velocity": 0.7874015748031497,
          "duration": 0.1171875
        },
        {
          "name": "F4",
          "midi": 65,
          "time": 27.421875,
          "velocity": 0.7874015748031497,
          "duration": 0.1171875
        },
        {
          "name": "E4",
          "midi": 64,
          "time": 27.5390625,
          "velocity": 0.7874015748031497,
          "duration": 0.1171875
        },
        {
          "name": "F4",
          "midi": 65,
          "time": 27.65625,
          "velocity": 0.7874015748031497,
          "duration": 0.1171875
        },
        {
          "name": "D4",
          "midi": 62,
          "time": 27.65625,
          "velocity": 0.7874015748031497,
          "duration": 0.1171875
        },
        {
          "name": "E4",
          "midi": 64,
          "time": 27.890625,
          "velocity": 0.7874015748031497,
          "duration": 0.1171875
        },
        {
          "name": "D4",
          "midi": 62,
          "time": 28.0078125,
          "velocity": 0.7874015748031497,
          "duration": 0.1171875
        },
        {
          "name": "F4",
          "midi": 65,
          "time": 28.125,
          "velocity": 0.7874015748031497,
          "duration": 0.1171875
        },
        {
          "name": "E4",
          "midi": 64,
          "time": 28.2421875,
          "velocity": 0.7874015748031497,
          "duration": 0.1171875
        },
        {
          "name": "D4",
          "midi": 62,
          "time": 28.359375,
          "velocity": 0.5118110236220472,
          "duration": 0.0390625
        },
        {
          "name": "E4",
          "midi": 64,
          "time": 28.3984375,
          "velocity": 0.6771653543307087,
          "duration": 0.0390625
        },
        {
          "name": "F4",
          "midi": 65,
          "time": 28.4375,
          "velocity": 0.7874015748031497,
          "duration": 0.0390625
        },
        {
          "name": "E4",
          "midi": 64,
          "time": 28.4765625,
          "velocity": 0.7874015748031497,
          "duration": 0.1171875
        },
        {
          "name": "D4",
          "midi": 62,
          "time": 28.59375,
          "velocity": 0.7874015748031497,
          "duration": 0.1171875
        },
        {
          "name": "F4",
          "midi": 65,
          "time": 28.7109375,
          "velocity": 0.7322834645669292,
          "duration": 0.1123046875
        },
        {
          "name": "F4",
          "midi": 65,
          "time": 28.828125,
          "velocity": 0.8503937007874016,
          "duration": 0.1123046875
        },
        {
          "name": "E4",
          "midi": 64,
          "time": 28.9453125,
          "velocity": 0.8503937007874016,
          "duration": 0.1123046875
        },
        {
          "name": "D4",
          "midi": 62,
          "time": 29.0625,
          "velocity": 0.8503937007874016,
          "duration": 0.1123046875
        },
        {
          "name": "F4",
          "midi": 65,
          "time": 29.1796875,
          "velocity": 0.5118110236220472,
          "duration": 0.1171875
        },
        {
          "name": "F4",
          "midi": 65,
          "time": 29.296875,
          "velocity": 0.6535433070866141,
          "duration": 0.1171875
        },
        {
          "name": "F4",
          "midi": 65,
          "time": 29.4140625,
          "velocity": 0.8661417322834646,
          "duration": 0.1171875
        },
        {
          "name": "E4",
          "midi": 64,
          "time": 29.53125,
          "velocity": 0.8503937007874016,
          "duration": 0.1123046875
        },
        {
          "name": "C4",
          "midi": 60,
          "time": 29.6484375,
          "velocity": 0.8503937007874016,
          "duration": 0.1123046875
        },
        {
          "name": "C4",
          "midi": 60,
          "time": 29.765625,
          "velocity": 0.8503937007874016,
          "duration": 0.1123046875
        },
        {
          "name": "C4",
          "midi": 60,
          "time": 30,
          "velocity": 0.8031496062992126,
          "duration": 0.1123046875
        },
        {
          "name": "C4",
          "midi": 60,
          "time": 30.234375,
          "velocity": 0.8031496062992126,
          "duration": 0.1123046875
        },
        {
          "name": "C4",
          "midi": 60,
          "time": 30.3515625,
          "velocity": 0.8031496062992126,
          "duration": 0.1123046875
        },
        {
          "name": "D4",
          "midi": 62,
          "time": 30.46875,
          "velocity": 0.8031496062992126,
          "duration": 0.1123046875
        },
        {
          "name": "F4",
          "midi": 65,
          "time": 30.5859375,
          "velocity": 0.8031496062992126,
          "duration": 0.1123046875
        },
        {
          "name": "D4",
          "midi": 62,
          "time": 30.703125,
          "velocity": 0.8031496062992126,
          "duration": 0.1123046875
        },
        {
          "name": "E4",
          "midi": 64,
          "time": 30.703125,
          "velocity": 0.8031496062992126,
          "duration": 0.1123046875
        },
        {
          "name": "E4",
          "midi": 64,
          "time": 30.9375,
          "velocity": 0.8031496062992126,
          "duration": 0.1123046875
        },
        {
          "name": "F4",
          "midi": 65,
          "time": 31.0546875,
          "velocity": 0.8031496062992126,
          "duration": 0.1123046875
        },
        {
          "name": "C4",
          "midi": 60,
          "time": 31.0546875,
          "velocity": 0.8031496062992126,
          "duration": 0.1123046875
        },
        {
          "name": "E4",
          "midi": 64,
          "time": 31.171875,
          "velocity": 0.8031496062992126,
          "duration": 0.1123046875
        },
        {
          "name": "F4",
          "midi": 65,
          "time": 31.2890625,
          "velocity": 0.8031496062992126,
          "duration": 0.1123046875
        },
        {
          "name": "E4",
          "midi": 64,
          "time": 31.40625,
          "velocity": 0.8031496062992126,
          "duration": 0.1123046875
        },
        {
          "name": "E4",
          "midi": 64,
          "time": 31.640625,
          "velocity": 0.3228346456692913,
          "duration": 0.0390625
        },
        {
          "name": "F4",
          "midi": 65,
          "time": 31.6796875,
          "velocity": 0.5354330708661418,
          "duration": 0.0390625
        },
        {
          "name": "E4",
          "midi": 64,
          "time": 31.71875,
          "velocity": 0.8031496062992126,
          "duration": 0.0390625
        },
        {
          "name": "F4",
          "midi": 65,
          "time": 31.7578125,
          "velocity": 0.7874015748031497,
          "duration": 0.1123046875
        },
        {
          "name": "C4",
          "midi": 60,
          "time": 31.7578125,
          "velocity": 0.7874015748031497,
          "duration": 0.1123046875
        },
        {
          "name": "E4",
          "midi": 64,
          "time": 31.9921875,
          "velocity": 0.7874015748031497,
          "duration": 0.1123046875
        },
        {
          "name": "F4",
          "midi": 65,
          "time": 32.109375,
          "velocity": 0.7874015748031497,
          "duration": 0.1123046875
        },
        {
          "name": "E4",
          "midi": 64,
          "time": 32.2265625,
          "velocity": 0.7874015748031497,
          "duration": 0.1123046875
        },
        {
          "name": "F4",
          "midi": 65,
          "time": 32.34375,
          "velocity": 0.7874015748031497,
          "duration": 0.1123046875
        },
        {
          "name": "D4",
          "midi": 62,
          "time": 32.34375,
          "velocity": 0.7874015748031497,
          "duration": 0.1123046875
        },
        {
          "name": "C4",
          "midi": 60,
          "time": 32.578125,
          "velocity": 0.7874015748031497,
          "duration": 0.1123046875
        },
        {
          "name": "E4",
          "midi": 64,
          "time": 32.6953125,
          "velocity": 0.7874015748031497,
          "duration": 0.1123046875
        },
        {
          "name": "C4",
          "midi": 60,
          "time": 32.8125,
          "velocity": 0.7874015748031497,
          "duration": 0.1123046875
        },
        {
          "name": "F4",
          "midi": 65,
          "time": 32.8125,
          "velocity": 0.7874015748031497,
          "duration": 0.1123046875
        },
        {
          "name": "F4",
          "midi": 65,
          "time": 32.9296875,
          "velocity": 0.7874015748031497,
          "duration": 0.1123046875
        },
        {
          "name": "E4",
          "midi": 64,
          "time": 33.046875,
          "velocity": 0.7874015748031497,
          "duration": 0.1123046875
        },
        {
          "name": "E4",
          "midi": 64,
          "time": 33.1640625,
          "velocity": 0.7874015748031497,
          "duration": 0.1123046875
        },
        {
          "name": "D4",
          "midi": 62,
          "time": 33.28125,
          "velocity": 0.7874015748031497,
          "duration": 0.1123046875
        },
        {
          "name": "E4",
          "midi": 64,
          "time": 33.3984375,
          "velocity": 0.7874015748031497,
          "duration": 0.1123046875
        },
        {
          "name": "F4",
          "midi": 65,
          "time": 33.6328125,
          "velocity": 0.7401574803149606,
          "duration": 0.1171875
        },
        {
          "name": "C4",
          "midi": 60,
          "time": 33.6328125,
          "velocity": 0.7401574803149606,
          "duration": 0.1171875
        },
        {
          "name": "C4",
          "midi": 60,
          "time": 33.8671875,
          "velocity": 0.7874015748031497,
          "duration": 0.1171875
        },
        {
          "name": "D4",
          "midi": 62,
          "time": 34.21875,
          "velocity": 0.7874015748031497,
          "duration": 0.1171875
        },
        {
          "name": "F4",
          "midi": 65,
          "time": 34.453125,
          "velocity": 0.7874015748031497,
          "duration": 0.1171875
        },
        {
          "name": "C4",
          "midi": 60,
          "time": 34.5703125,
          "velocity": 0.7874015748031497,
          "duration": 0.1171875
        },
        {
          "name": "E4",
          "midi": 64,
          "time": 34.6875,
          "velocity": 0.7874015748031497,
          "duration": 0.1171875
        },
        {
          "name": "C4",
          "midi": 60,
          "time": 34.6875,
          "velocity": 0.7874015748031497,
          "duration": 0.1171875
        },
        {
          "name": "C4",
          "midi": 60,
          "time": 34.8046875,
          "velocity": 0.7874015748031497,
          "duration": 0.1171875
        },
        {
          "name": "F4",
          "midi": 65,
          "time": 34.921875,
          "velocity": 0.7874015748031497,
          "duration": 0.1171875
        },
        {
          "name": "E4",
          "midi": 64,
          "time": 35.0390625,
          "velocity": 0.7874015748031497,
          "duration": 0.1171875
        },
        {
          "name": "F4",
          "midi": 65,
          "time": 35.15625,
          "velocity": 0.7874015748031497,
          "duration": 0.1171875
        },
        {
          "name": "D4",
          "midi": 62,
          "time": 35.15625,
          "velocity": 0.7874015748031497,
          "duration": 0.1171875
        },
        {
          "name": "E4",
          "midi": 64,
          "time": 35.390625,
          "velocity": 0.7874015748031497,
          "duration": 0.1171875
        },
        {
          "name": "D4",
          "midi": 62,
          "time": 35.5078125,
          "velocity": 0.7874015748031497,
          "duration": 0.1171875
        },
        {
          "name": "F4",
          "midi": 65,
          "time": 35.625,
          "velocity": 0.7874015748031497,
          "duration": 0.1171875
        },
        {
          "name": "E4",
          "midi": 64,
          "time": 35.7421875,
          "velocity": 0.7874015748031497,
          "duration": 0.1171875
        },
        {
          "name": "D4",
          "midi": 62,
          "time": 35.859375,
          "velocity": 0.5118110236220472,
          "duration": 0.0390625
        },
        {
          "name": "E4",
          "midi": 64,
          "time": 35.8984375,
          "velocity": 0.6771653543307087,
          "duration": 0.0390625
        },
        {
          "name": "F4",
          "midi": 65,
          "time": 35.9375,
          "velocity": 0.7874015748031497,
          "duration": 0.0390625
        },
        {
          "name": "E4",
          "midi": 64,
          "time": 35.9765625,
          "velocity": 0.7874015748031497,
          "duration": 0.1171875
        },
        {
          "name": "D4",
          "midi": 62,
          "time": 36.09375,
          "velocity": 0.7874015748031497,
          "duration": 0.1171875
        },
        {
          "name": "F4",
          "midi": 65,
          "time": 36.2109375,
          "velocity": 0.7322834645669292,
          "duration": 0.1123046875
        },
        {
          "name": "F4",
          "midi": 65,
          "time": 36.328125,
          "velocity": 0.8503937007874016,
          "duration": 0.1123046875
        },
        {
          "name": "E4",
          "midi": 64,
          "time": 36.4453125,
          "velocity": 0.8503937007874016,
          "duration": 0.1123046875
        },
        {
          "name": "D4",
          "midi": 62,
          "time": 36.5625,
          "velocity": 0.8503937007874016,
          "duration": 0.1123046875
        },
        {
          "name": "F4",
          "midi": 65,
          "time": 36.6796875,
          "velocity": 0.5118110236220472,
          "duration": 0.1171875
        },
        {
          "name": "F4",
          "midi": 65,
          "time": 36.796875,
          "velocity": 0.6535433070866141,
          "duration": 0.1171875
        },
        {
          "name": "F4",
          "midi": 65,
          "time": 36.9140625,
          "velocity": 0.8661417322834646,
          "duration": 0.1171875
        },
        {
          "name": "E4",
          "midi": 64,
          "time": 37.03125,
          "velocity": 0.8503937007874016,
          "duration": 0.1123046875
        },
        {
          "name": "C4",
          "midi": 60,
          "time": 37.1484375,
          "velocity": 0.8503937007874016,
          "duration": 0.1123046875
        },
        {
          "name": "F4",
          "midi": 65,
          "time": 37.5,
          "velocity": 0.7874015748031497,
          "duration": 0.4638671875
        },
        {
          "name": "C4",
          "midi": 60,
          "time": 37.5,
          "velocity": 0.7874015748031497,
          "duration": 0.1123046875
        },
        {
          "name": "C4",
          "midi": 60,
          "time": 37.96875,
          "velocity": 0.7874015748031497,
          "duration": 0.1123046875
        },
        {
          "name": "D4",
          "midi": 62,
          "time": 37.96875,
          "velocity": 0.7874015748031497,
          "duration": 0.4638671875
        },
        {
          "name": "C4",
          "midi": 60,
          "time": 38.4375,
          "velocity": 0.7874015748031497,
          "duration": 0.1123046875
        },
        {
          "name": "F4",
          "midi": 65,
          "time": 38.671875,
          "velocity": 0.7874015748031497,
          "duration": 0.2294921875
        },
        {
          "name": "D4",
          "midi": 62,
          "time": 38.90625,
          "velocity": 0.7874015748031497,
          "duration": 0.2294921875
        },
        {
          "name": "C4",
          "midi": 60,
          "time": 38.90625,
          "velocity": 0.7874015748031497,
          "duration": 0.1123046875
        },
        {
          "name": "F4",
          "midi": 65,
          "time": 39.140625,
          "velocity": 0.7874015748031497,
          "duration": 0.2294921875
        },
        {
          "name": "C4",
          "midi": 60,
          "time": 39.375,
          "velocity": 0.7874015748031497,
          "duration": 0.1123046875
        },
        {
          "name": "E4",
          "midi": 64,
          "time": 39.375,
          "velocity": 0.7874015748031497,
          "duration": 0.4638671875
        },
        {
          "name": "C4",
          "midi": 60,
          "time": 39.84375,
          "velocity": 0.7874015748031497,
          "duration": 0.1123046875
        },
        {
          "name": "D4",
          "midi": 62,
          "time": 39.84375,
          "velocity": 0.7874015748031497,
          "duration": 0.2294921875
        },
        {
          "name": "E4",
          "midi": 64,
          "time": 40.078125,
          "velocity": 0.7874015748031497,
          "duration": 0.4638671875
        },
        {
          "name": "C4",
          "midi": 60,
          "time": 40.3125,
          "velocity": 0.7874015748031497,
          "duration": 0.1123046875
        },
        {
          "name": "D4",
          "midi": 62,
          "time": 40.546875,
          "velocity": 0.7874015748031497,
          "duration": 0.2294921875
        },
        {
          "name": "C4",
          "midi": 60,
          "time": 40.78125,
          "velocity": 0.7874015748031497,
          "duration": 0.1123046875
        },
        {
          "name": "E4",
          "midi": 64,
          "time": 40.78125,
          "velocity": 0.7874015748031497,
          "duration": 0.2294921875
        },
        {
          "name": "D4",
          "midi": 62,
          "time": 41.015625,
          "velocity": 0.7874015748031497,
          "duration": 0.2294921875
        },
        {
          "name": "E4",
          "midi": 64,
          "time": 41.25,
          "velocity": 0.7874015748031497,
          "duration": 0.4638671875
        },
        {
          "name": "C4",
          "midi": 60,
          "time": 41.25,
          "velocity": 0.7874015748031497,
          "duration": 0.1123046875
        },
        {
          "name": "C4",
          "midi": 60,
          "time": 41.71875,
          "velocity": 0.7874015748031497,
          "duration": 0.1123046875
        },
        {
          "name": "D4",
          "midi": 62,
          "time": 41.71875,
          "velocity": 0.7874015748031497,
          "duration": 0.1123046875
        },
        {
          "name": "C4",
          "midi": 60,
          "time": 42.1875,
          "velocity": 0.7874015748031497,
          "duration": 0.1123046875
        },
        {
          "name": "D4",
          "midi": 62,
          "time": 42.65625,
          "velocity": 0.7874015748031497,
          "duration": 0.1123046875
        },
        {
          "name": "C4",
          "midi": 60,
          "time": 42.65625,
          "velocity": 0.7874015748031497,
          "duration": 0.1123046875
        },
        {
          "name": "C4",
          "midi": 60,
          "time": 43.125,
          "velocity": 0.7874015748031497,
          "duration": 0.1123046875
        },
        {
          "name": "D4",
          "midi": 62,
          "time": 43.59375,
          "velocity": 0.7874015748031497,
          "duration": 0.1123046875
        },
        {
          "name": "C4",
          "midi": 60,
          "time": 43.59375,
          "velocity": 0.7874015748031497,
          "duration": 0.1123046875
        },
        {
          "name": "C4",
          "midi": 60,
          "time": 44.0625,
          "velocity": 0.7874015748031497,
          "duration": 0.1123046875
        },
        {
          "name": "D4",
          "midi": 62,
          "time": 44.296875,
          "velocity": 0.7874015748031497,
          "duration": 0.1123046875
        },
        {
          "name": "D4",
          "midi": 62,
          "time": 44.53125,
          "velocity": 0.7874015748031497,
          "duration": 0.1123046875
        },
        {
          "name": "C4",
          "midi": 60,
          "time": 45,
          "velocity": 0.7874015748031497,
          "duration": 0.1123046875
        },
        {
          "name": "F4",
          "midi": 65,
          "time": 45,
          "velocity": 0.7874015748031497,
          "duration": 0.4638671875
        },
        {
          "name": "C4",
          "midi": 60,
          "time": 45.46875,
          "velocity": 0.7874015748031497,
          "duration": 0.1123046875
        },
        {
          "name": "D4",
          "midi": 62,
          "time": 45.46875,
          "velocity": 0.7874015748031497,
          "duration": 0.4638671875
        },
        {
          "name": "F4",
          "midi": 65,
          "time": 45.9375,
          "velocity": 0.7874015748031497,
          "duration": 0.4638671875
        },
        {
          "name": "C4",
          "midi": 60,
          "time": 45.9375,
          "velocity": 0.7874015748031497,
          "duration": 0.1123046875
        },
        {
          "name": "C4",
          "midi": 60,
          "time": 46.40625,
          "velocity": 0.7874015748031497,
          "duration": 0.1123046875
        },
        {
          "name": "E4",
          "midi": 64,
          "time": 46.40625,
          "velocity": 0.7874015748031497,
          "duration": 0.9326171875
        },
        {
          "name": "C4",
          "midi": 60,
          "time": 46.875,
          "velocity": 0.7874015748031497,
          "duration": 0.1123046875
        },
        {
          "name": "E4",
          "midi": 64,
          "time": 47.34375,
          "velocity": 0.7874015748031497,
          "duration": 0.9326171875
        },
        {
          "name": "C4",
          "midi": 60,
          "time": 47.34375,
          "velocity": 0.7874015748031497,
          "duration": 0.1123046875
        },
        {
          "name": "C4",
          "midi": 60,
          "time": 47.8125,
          "velocity": 0.7874015748031497,
          "duration": 0.1123046875
        },
        {
          "name": "C4",
          "midi": 60,
          "time": 48.28125,
          "velocity": 0.7874015748031497,
          "duration": 0.1123046875
        },
        {
          "name": "D4",
          "midi": 62,
          "time": 48.28125,
          "velocity": 0.7874015748031497,
          "duration": 0.9326171875
        },
        {
          "name": "C4",
          "midi": 60,
          "time": 48.75,
          "velocity": 0.7874015748031497,
          "duration": 0.1123046875
        },
        {
          "name": "C4",
          "midi": 60,
          "time": 49.21875,
          "velocity": 0.7874015748031497,
          "duration": 0.1123046875
        },
        {
          "name": "D4",
          "midi": 62,
          "time": 49.21875,
          "velocity": 0.7874015748031497,
          "duration": 0.1123046875
        },
        {
          "name": "C4",
          "midi": 60,
          "time": 49.6875,
          "velocity": 0.7874015748031497,
          "duration": 0.1123046875
        },
        {
          "name": "C4",
          "midi": 60,
          "time": 50.15625,
          "velocity": 0.7874015748031497,
          "duration": 0.1123046875
        },
        {
          "name": "D4",
          "midi": 62,
          "time": 50.15625,
          "velocity": 0.7874015748031497,
          "duration": 0.1123046875
        },
        {
          "name": "C4",
          "midi": 60,
          "time": 50.625,
          "velocity": 0.7874015748031497,
          "duration": 0.1123046875
        },
        {
          "name": "C4",
          "midi": 60,
          "time": 51.09375,
          "velocity": 0.7874015748031497,
          "duration": 0.1123046875
        },
        {
          "name": "D4",
          "midi": 62,
          "time": 51.09375,
          "velocity": 0.7874015748031497,
          "duration": 0.1123046875
        },
        {
          "name": "C4",
          "midi": 60,
          "time": 51.5625,
          "velocity": 0.7874015748031497,
          "duration": 0.1123046875
        },
        {
          "name": "D4",
          "midi": 62,
          "time": 51.796875,
          "velocity": 0.7874015748031497,
          "duration": 0.1123046875
        },
        {
          "name": "D4",
          "midi": 62,
          "time": 52.03125,
          "velocity": 0.7874015748031497,
          "duration": 0.1123046875
        },
        {
          "name": "C4",
          "midi": 60,
          "time": 52.5,
          "velocity": 0.7874015748031497,
          "duration": 0.1123046875
        },
        {
          "name": "F4",
          "midi": 65,
          "time": 52.5,
          "velocity": 0.7874015748031497,
          "duration": 0.4638671875
        },
        {
          "name": "C4",
          "midi": 60,
          "time": 52.96875,
          "velocity": 0.7874015748031497,
          "duration": 0.1123046875
        },
        {
          "name": "D4",
          "midi": 62,
          "time": 52.96875,
          "velocity": 0.7874015748031497,
          "duration": 0.4638671875
        },
        {
          "name": "C4",
          "midi": 60,
          "time": 53.4375,
          "velocity": 0.7874015748031497,
          "duration": 0.1123046875
        },
        {
          "name": "F4",
          "midi": 65,
          "time": 53.671875,
          "velocity": 0.7874015748031497,
          "duration": 0.2294921875
        },
        {
          "name": "C4",
          "midi": 60,
          "time": 53.90625,
          "velocity": 0.7874015748031497,
          "duration": 0.1123046875
        },
        {
          "name": "D4",
          "midi": 62,
          "time": 53.90625,
          "velocity": 0.7874015748031497,
          "duration": 0.2294921875
        },
        {
          "name": "F4",
          "midi": 65,
          "time": 54.140625,
          "velocity": 0.7874015748031497,
          "duration": 0.2294921875
        },
        {
          "name": "C4",
          "midi": 60,
          "time": 54.375,
          "velocity": 0.7874015748031497,
          "duration": 0.1123046875
        },
        {
          "name": "E4",
          "midi": 64,
          "time": 54.375,
          "velocity": 0.7874015748031497,
          "duration": 0.4638671875
        },
        {
          "name": "C4",
          "midi": 60,
          "time": 54.84375,
          "velocity": 0.7874015748031497,
          "duration": 0.1123046875
        },
        {
          "name": "D4",
          "midi": 62,
          "time": 54.84375,
          "velocity": 0.7874015748031497,
          "duration": 0.2294921875
        },
        {
          "name": "E4",
          "midi": 64,
          "time": 55.078125,
          "velocity": 0.7874015748031497,
          "duration": 0.4638671875
        },
        {
          "name": "C4",
          "midi": 60,
          "time": 55.3125,
          "velocity": 0.7874015748031497,
          "duration": 0.1123046875
        },
        {
          "name": "D4",
          "midi": 62,
          "time": 55.546875,
          "velocity": 0.7874015748031497,
          "duration": 0.2294921875
        },
        {
          "name": "C4",
          "midi": 60,
          "time": 55.78125,
          "velocity": 0.7874015748031497,
          "duration": 0.1123046875
        },
        {
          "name": "E4",
          "midi": 64,
          "time": 55.78125,
          "velocity": 0.7874015748031497,
          "duration": 0.2294921875
        },
        {
          "name": "D4",
          "midi": 62,
          "time": 56.015625,
          "velocity": 0.7874015748031497,
          "duration": 0.2294921875
        },
        {
          "name": "C4",
          "midi": 60,
          "time": 56.25,
          "velocity": 0.7874015748031497,
          "duration": 0.1123046875
        },
        {
          "name": "E4",
          "midi": 64,
          "time": 56.25,
          "velocity": 0.7874015748031497,
          "duration": 0.4638671875
        },
        {
          "name": "D4",
          "midi": 62,
          "time": 56.71875,
          "velocity": 0.7874015748031497,
          "duration": 0.1123046875
        },
        {
          "name": "C4",
          "midi": 60,
          "time": 56.71875,
          "velocity": 0.7874015748031497,
          "duration": 0.1123046875
        },
        {
          "name": "C4",
          "midi": 60,
          "time": 57.1875,
          "velocity": 0.7874015748031497,
          "duration": 0.1123046875
        },
        {
          "name": "D4",
          "midi": 62,
          "time": 57.65625,
          "velocity": 0.7874015748031497,
          "duration": 0.1123046875
        },
        {
          "name": "C4",
          "midi": 60,
          "time": 57.65625,
          "velocity": 0.7874015748031497,
          "duration": 0.1123046875
        },
        {
          "name": "C4",
          "midi": 60,
          "time": 58.125,
          "velocity": 0.7874015748031497,
          "duration": 0.1123046875
        },
        {
          "name": "C4",
          "midi": 60,
          "time": 58.59375,
          "velocity": 0.7874015748031497,
          "duration": 0.1123046875
        },
        {
          "name": "D4",
          "midi": 62,
          "time": 58.59375,
          "velocity": 0.7874015748031497,
          "duration": 0.1123046875
        },
        {
          "name": "C4",
          "midi": 60,
          "time": 59.0625,
          "velocity": 0.7874015748031497,
          "duration": 0.1123046875
        },
        {
          "name": "D4",
          "midi": 62,
          "time": 59.296875,
          "velocity": 0.7874015748031497,
          "duration": 0.1123046875
        },
        {
          "name": "D4",
          "midi": 62,
          "time": 59.53125,
          "velocity": 0.7874015748031497,
          "duration": 0.1123046875
        },
        {
          "name": "C4",
          "midi": 60,
          "time": 60,
          "velocity": 0.7874015748031497,
          "duration": 0.1123046875
        },
        {
          "name": "F4",
          "midi": 65,
          "time": 60,
          "velocity": 0.7874015748031497,
          "duration": 0.4638671875
        },
        {
          "name": "D4",
          "midi": 62,
          "time": 60.46875,
          "velocity": 0.7874015748031497,
          "duration": 0.4638671875
        },
        {
          "name": "C4",
          "midi": 60,
          "time": 60.46875,
          "velocity": 0.7874015748031497,
          "duration": 0.1123046875
        },
        {
          "name": "F4",
          "midi": 65,
          "time": 60.9375,
          "velocity": 0.7874015748031497,
          "duration": 0.4638671875
        },
        {
          "name": "C4",
          "midi": 60,
          "time": 60.9375,
          "velocity": 0.7874015748031497,
          "duration": 0.1123046875
        },
        {
          "name": "C4",
          "midi": 60,
          "time": 61.40625,
          "velocity": 0.7874015748031497,
          "duration": 0.1123046875
        },
        {
          "name": "E4",
          "midi": 64,
          "time": 61.40625,
          "velocity": 0.7874015748031497,
          "duration": 0.9326171875
        },
        {
          "name": "C4",
          "midi": 60,
          "time": 61.875,
          "velocity": 0.7874015748031497,
          "duration": 0.1123046875
        },
        {
          "name": "C4",
          "midi": 60,
          "time": 62.34375,
          "velocity": 0.7874015748031497,
          "duration": 0.1123046875
        },
        {
          "name": "E4",
          "midi": 64,
          "time": 62.34375,
          "velocity": 0.7874015748031497,
          "duration": 0.9326171875
        },
        {
          "name": "C4",
          "midi": 60,
          "time": 62.8125,
          "velocity": 0.7874015748031497,
          "duration": 0.1123046875
        },
        {
          "name": "C4",
          "midi": 60,
          "time": 63.28125,
          "velocity": 0.7874015748031497,
          "duration": 0.1123046875
        },
        {
          "name": "D4",
          "midi": 62,
          "time": 63.28125,
          "velocity": 0.7874015748031497,
          "duration": 0.9326171875
        },
        {
          "name": "C4",
          "midi": 60,
          "time": 63.75,
          "velocity": 0.7874015748031497,
          "duration": 0.1123046875
        },
        {
          "name": "C4",
          "midi": 60,
          "time": 64.21875,
          "velocity": 0.7874015748031497,
          "duration": 0.1123046875
        },
        {
          "name": "D4",
          "midi": 62,
          "time": 64.21875,
          "velocity": 0.7874015748031497,
          "duration": 0.1123046875
        },
        {
          "name": "C4",
          "midi": 60,
          "time": 64.6875,
          "velocity": 0.7874015748031497,
          "duration": 0.1123046875
        },
        {
          "name": "C4",
          "midi": 60,
          "time": 65.15625,
          "velocity": 0.7874015748031497,
          "duration": 0.1123046875
        },
        {
          "name": "D4",
          "midi": 62,
          "time": 65.15625,
          "velocity": 0.7874015748031497,
          "duration": 0.1123046875
        },
        {
          "name": "C4",
          "midi": 60,
          "time": 65.625,
          "velocity": 0.7874015748031497,
          "duration": 0.1123046875
        },
        {
          "name": "D4",
          "midi": 62,
          "time": 66.09375,
          "velocity": 0.7874015748031497,
          "duration": 0.1123046875
        },
        {
          "name": "C4",
          "midi": 60,
          "time": 66.09375,
          "velocity": 0.7874015748031497,
          "duration": 0.1123046875
        },
        {
          "name": "C4",
          "midi": 60,
          "time": 66.5625,
          "velocity": 0.7874015748031497,
          "duration": 0.1123046875
        },
        {
          "name": "D4",
          "midi": 62,
          "time": 66.796875,
          "velocity": 0.7874015748031497,
          "duration": 0.1123046875
        },
        {
          "name": "D4",
          "midi": 62,
          "time": 67.03125,
          "velocity": 0.7874015748031497,
          "duration": 0.1123046875
        },
        {
          "name": "D4",
          "midi": 62,
          "time": 67.265625,
          "velocity": 0.7874015748031497,
          "duration": 0.1123046875
        },
        {
          "name": "E4",
          "midi": 64,
          "time": 67.3828125,
          "velocity": 0.7874015748031497,
          "duration": 0.1123046875
        },
        {
          "name": "C4",
          "midi": 60,
          "time": 67.5,
          "velocity": 0.7874015748031497,
          "duration": 0.1171875
        },
        {
          "name": "D4",
          "midi": 62,
          "time": 67.96875,
          "velocity": 0.7874015748031497,
          "duration": 0.1171875
        },
        {
          "name": "C4",
          "midi": 60,
          "time": 68.5546875,
          "velocity": 0.7874015748031497,
          "duration": 0.1171875
        },
        {
          "name": "F4",
          "midi": 65,
          "time": 68.671875,
          "velocity": 0.7874015748031497,
          "duration": 0.1171875
        },
        {
          "name": "E4",
          "midi": 64,
          "time": 68.7890625,
          "velocity": 0.7874015748031497,
          "duration": 0.1171875
        },
        {
          "name": "D4",
          "midi": 62,
          "time": 68.90625,
          "velocity": 0.7874015748031497,
          "duration": 0.1171875
        },
        {
          "name": "E4",
          "midi": 64,
          "time": 69.2578125,
          "velocity": 0.7874015748031497,
          "duration": 0.1171875
        },
        {
          "name": "F4",
          "midi": 65,
          "time": 69.375,
          "velocity": 0.7874015748031497,
          "duration": 0.1171875
        },
        {
          "name": "E4",
          "midi": 64,
          "time": 69.4921875,
          "velocity": 0.7874015748031497,
          "duration": 0.1171875
        },
        {
          "name": "E4",
          "midi": 64,
          "time": 69.609375,
          "velocity": 0.7874015748031497,
          "duration": 0.1171875
        },
        {
          "name": "D4",
          "midi": 62,
          "time": 69.84375,
          "velocity": 0.7874015748031497,
          "duration": 0.1171875
        },
        {
          "name": "E4",
          "midi": 64,
          "time": 70.4296875,
          "velocity": 0.5118110236220472,
          "duration": 0.1171875
        },
        {
          "name": "E4",
          "midi": 64,
          "time": 70.546875,
          "velocity": 0.6535433070866141,
          "duration": 0.1171875
        },
        {
          "name": "F4",
          "midi": 65,
          "time": 70.6640625,
          "velocity": 0.8661417322834646,
          "duration": 0.1171875
        },
        {
          "name": "E4",
          "midi": 64,
          "time": 70.78125,
          "velocity": 0.7874015748031497,
          "duration": 0.1171875
        },
        {
          "name": "F4",
          "midi": 65,
          "time": 71.015625,
          "velocity": 0.7795275590551181,
          "duration": 0.1171875
        },
        {
          "name": "D4",
          "midi": 62,
          "time": 71.1328125,
          "velocity": 0.7874015748031497,
          "duration": 0.1171875
        },
        {
          "name": "C4",
          "midi": 60,
          "time": 71.25,
          "velocity": 0.7874015748031497,
          "duration": 0.1171875
        },
        {
          "name": "C4",
          "midi": 60,
          "time": 71.3671875,
          "velocity": 0.7874015748031497,
          "duration": 0.1171875
        },
        {
          "name": "D4",
          "midi": 62,
          "time": 71.71875,
          "velocity": 0.7874015748031497,
          "duration": 0.1171875
        },
        {
          "name": "F4",
          "midi": 65,
          "time": 71.953125,
          "velocity": 0.7874015748031497,
          "duration": 0.1171875
        },
        {
          "name": "C4",
          "midi": 60,
          "time": 72.0703125,
          "velocity": 0.7874015748031497,
          "duration": 0.1171875
        },
        {
          "name": "C4",
          "midi": 60,
          "time": 72.1875,
          "velocity": 0.7874015748031497,
          "duration": 0.1171875
        },
        {
          "name": "E4",
          "midi": 64,
          "time": 72.1875,
          "velocity": 0.7874015748031497,
          "duration": 0.1171875
        },
        {
          "name": "C4",
          "midi": 60,
          "time": 72.3046875,
          "velocity": 0.7874015748031497,
          "duration": 0.1171875
        },
        {
          "name": "F4",
          "midi": 65,
          "time": 72.421875,
          "velocity": 0.7874015748031497,
          "duration": 0.1171875
        },
        {
          "name": "E4",
          "midi": 64,
          "time": 72.5390625,
          "velocity": 0.7874015748031497,
          "duration": 0.1171875
        },
        {
          "name": "F4",
          "midi": 65,
          "time": 72.65625,
          "velocity": 0.7874015748031497,
          "duration": 0.1171875
        },
        {
          "name": "D4",
          "midi": 62,
          "time": 72.65625,
          "velocity": 0.7874015748031497,
          "duration": 0.1171875
        },
        {
          "name": "E4",
          "midi": 64,
          "time": 72.890625,
          "velocity": 0.7874015748031497,
          "duration": 0.1171875
        },
        {
          "name": "D4",
          "midi": 62,
          "time": 73.0078125,
          "velocity": 0.7874015748031497,
          "duration": 0.1171875
        },
        {
          "name": "F4",
          "midi": 65,
          "time": 73.125,
          "velocity": 0.7874015748031497,
          "duration": 0.1171875
        },
        {
          "name": "E4",
          "midi": 64,
          "time": 73.2421875,
          "velocity": 0.7874015748031497,
          "duration": 0.1171875
        },
        {
          "name": "D4",
          "midi": 62,
          "time": 73.359375,
          "velocity": 0.5118110236220472,
          "duration": 0.0390625
        },
        {
          "name": "E4",
          "midi": 64,
          "time": 73.3984375,
          "velocity": 0.6771653543307087,
          "duration": 0.0390625
        },
        {
          "name": "F4",
          "midi": 65,
          "time": 73.4375,
          "velocity": 0.7874015748031497,
          "duration": 0.0390625
        },
        {
          "name": "E4",
          "midi": 64,
          "time": 73.4765625,
          "velocity": 0.7874015748031497,
          "duration": 0.1171875
        },
        {
          "name": "D4",
          "midi": 62,
          "time": 73.59375,
          "velocity": 0.7874015748031497,
          "duration": 0.1171875
        },
        {
          "name": "F4",
          "midi": 65,
          "time": 73.7109375,
          "velocity": 0.7322834645669292,
          "duration": 0.1123046875
        },
        {
          "name": "F4",
          "midi": 65,
          "time": 73.828125,
          "velocity": 0.8503937007874016,
          "duration": 0.1123046875
        },
        {
          "name": "E4",
          "midi": 64,
          "time": 73.9453125,
          "velocity": 0.8503937007874016,
          "duration": 0.1123046875
        },
        {
          "name": "D4",
          "midi": 62,
          "time": 74.0625,
          "velocity": 0.8503937007874016,
          "duration": 0.1123046875
        },
        {
          "name": "F4",
          "midi": 65,
          "time": 74.1796875,
          "velocity": 0.5118110236220472,
          "duration": 0.1171875
        },
        {
          "name": "F4",
          "midi": 65,
          "time": 74.296875,
          "velocity": 0.6535433070866141,
          "duration": 0.1171875
        },
        {
          "name": "F4",
          "midi": 65,
          "time": 74.4140625,
          "velocity": 0.8661417322834646,
          "duration": 0.1171875
        },
        {
          "name": "E4",
          "midi": 64,
          "time": 74.53125,
          "velocity": 0.8503937007874016,
          "duration": 0.1123046875
        },
        {
          "name": "C4",
          "midi": 60,
          "time": 74.6484375,
          "velocity": 0.8503937007874016,
          "duration": 0.1123046875
        },
        {
          "name": "C4",
          "midi": 60,
          "time": 74.765625,
          "velocity": 0.8503937007874016,
          "duration": 0.1123046875
        },
        {
          "name": "C4",
          "midi": 60,
          "time": 75,
          "velocity": 0.8031496062992126,
          "duration": 0.1123046875
        },
        {
          "name": "C4",
          "midi": 60,
          "time": 75.234375,
          "velocity": 0.8031496062992126,
          "duration": 0.1123046875
        },
        {
          "name": "C4",
          "midi": 60,
          "time": 75.3515625,
          "velocity": 0.8031496062992126,
          "duration": 0.1123046875
        },
        {
          "name": "D4",
          "midi": 62,
          "time": 75.46875,
          "velocity": 0.8031496062992126,
          "duration": 0.1123046875
        },
        {
          "name": "F4",
          "midi": 65,
          "time": 75.5859375,
          "velocity": 0.8031496062992126,
          "duration": 0.1123046875
        },
        {
          "name": "E4",
          "midi": 64,
          "time": 75.703125,
          "velocity": 0.8031496062992126,
          "duration": 0.1123046875
        },
        {
          "name": "D4",
          "midi": 62,
          "time": 75.703125,
          "velocity": 0.8031496062992126,
          "duration": 0.1123046875
        },
        {
          "name": "E4",
          "midi": 64,
          "time": 75.9375,
          "velocity": 0.8031496062992126,
          "duration": 0.1123046875
        },
        {
          "name": "F4",
          "midi": 65,
          "time": 76.0546875,
          "velocity": 0.8031496062992126,
          "duration": 0.1123046875
        },
        {
          "name": "C4",
          "midi": 60,
          "time": 76.0546875,
          "velocity": 0.8031496062992126,
          "duration": 0.1123046875
        },
        {
          "name": "E4",
          "midi": 64,
          "time": 76.171875,
          "velocity": 0.8031496062992126,
          "duration": 0.1123046875
        },
        {
          "name": "F4",
          "midi": 65,
          "time": 76.2890625,
          "velocity": 0.8031496062992126,
          "duration": 0.1123046875
        },
        {
          "name": "E4",
          "midi": 64,
          "time": 76.40625,
          "velocity": 0.8031496062992126,
          "duration": 0.1123046875
        },
        {
          "name": "E4",
          "midi": 64,
          "time": 76.640625,
          "velocity": 0.3228346456692913,
          "duration": 0.0390625
        },
        {
          "name": "F4",
          "midi": 65,
          "time": 76.6796875,
          "velocity": 0.5354330708661418,
          "duration": 0.0390625
        },
        {
          "name": "E4",
          "midi": 64,
          "time": 76.71875,
          "velocity": 0.8031496062992126,
          "duration": 0.0390625
        },
        {
          "name": "F4",
          "midi": 65,
          "time": 76.7578125,
          "velocity": 0.7874015748031497,
          "duration": 0.1123046875
        },
        {
          "name": "C4",
          "midi": 60,
          "time": 76.7578125,
          "velocity": 0.7874015748031497,
          "duration": 0.1123046875
        },
        {
          "name": "E4",
          "midi": 64,
          "time": 76.9921875,
          "velocity": 0.7874015748031497,
          "duration": 0.1123046875
        },
        {
          "name": "F4",
          "midi": 65,
          "time": 77.109375,
          "velocity": 0.7874015748031497,
          "duration": 0.1123046875
        },
        {
          "name": "E4",
          "midi": 64,
          "time": 77.2265625,
          "velocity": 0.7874015748031497,
          "duration": 0.1123046875
        },
        {
          "name": "D4",
          "midi": 62,
          "time": 77.34375,
          "velocity": 0.7874015748031497,
          "duration": 0.1123046875
        },
        {
          "name": "F4",
          "midi": 65,
          "time": 77.34375,
          "velocity": 0.7874015748031497,
          "duration": 0.1123046875
        },
        {
          "name": "C4",
          "midi": 60,
          "time": 77.578125,
          "velocity": 0.7874015748031497,
          "duration": 0.1123046875
        },
        {
          "name": "E4",
          "midi": 64,
          "time": 77.6953125,
          "velocity": 0.7874015748031497,
          "duration": 0.1123046875
        },
        {
          "name": "F4",
          "midi": 65,
          "time": 77.8125,
          "velocity": 0.7874015748031497,
          "duration": 0.1123046875
        },
        {
          "name": "C4",
          "midi": 60,
          "time": 77.8125,
          "velocity": 0.7874015748031497,
          "duration": 0.1123046875
        },
        {
          "name": "F4",
          "midi": 65,
          "time": 77.9296875,
          "velocity": 0.7874015748031497,
          "duration": 0.1123046875
        },
        {
          "name": "E4",
          "midi": 64,
          "time": 78.046875,
          "velocity": 0.7874015748031497,
          "duration": 0.1123046875
        },
        {
          "name": "E4",
          "midi": 64,
          "time": 78.1640625,
          "velocity": 0.7874015748031497,
          "duration": 0.1123046875
        },
        {
          "name": "D4",
          "midi": 62,
          "time": 78.28125,
          "velocity": 0.7874015748031497,
          "duration": 0.1123046875
        },
        {
          "name": "E4",
          "midi": 64,
          "time": 78.3984375,
          "velocity": 0.7874015748031497,
          "duration": 0.1123046875
        },
        {
          "name": "F4",
          "midi": 65,
          "time": 78.6328125,
          "velocity": 0.7401574803149606,
          "duration": 0.1171875
        },
        {
          "name": "C4",
          "midi": 60,
          "time": 78.6328125,
          "velocity": 0.7401574803149606,
          "duration": 0.1171875
        },
        {
          "name": "C4",
          "midi": 60,
          "time": 78.8671875,
          "velocity": 0.7874015748031497,
          "duration": 0.1171875
        },
        {
          "name": "D4",
          "midi": 62,
          "time": 79.21875,
          "velocity": 0.7874015748031497,
          "duration": 0.1171875
        },
        {
          "name": "F4",
          "midi": 65,
          "time": 79.453125,
          "velocity": 0.7874015748031497,
          "duration": 0.1171875
        },
        {
          "name": "C4",
          "midi": 60,
          "time": 79.5703125,
          "velocity": 0.7874015748031497,
          "duration": 0.1171875
        },
        {
          "name": "C4",
          "midi": 60,
          "time": 79.6875,
          "velocity": 0.7874015748031497,
          "duration": 0.1171875
        },
        {
          "name": "E4",
          "midi": 64,
          "time": 79.6875,
          "velocity": 0.7874015748031497,
          "duration": 0.1171875
        },
        {
          "name": "C4",
          "midi": 60,
          "time": 79.8046875,
          "velocity": 0.7874015748031497,
          "duration": 0.1171875
        },
        {
          "name": "F4",
          "midi": 65,
          "time": 79.921875,
          "velocity": 0.7874015748031497,
          "duration": 0.1171875
        },
        {
          "name": "E4",
          "midi": 64,
          "time": 80.0390625,
          "velocity": 0.7874015748031497,
          "duration": 0.1171875
        },
        {
          "name": "F4",
          "midi": 65,
          "time": 80.15625,
          "velocity": 0.7874015748031497,
          "duration": 0.1171875
        },
        {
          "name": "D4",
          "midi": 62,
          "time": 80.15625,
          "velocity": 0.7874015748031497,
          "duration": 0.1171875
        },
        {
          "name": "E4",
          "midi": 64,
          "time": 80.390625,
          "velocity": 0.7874015748031497,
          "duration": 0.1171875
        },
        {
          "name": "D4",
          "midi": 62,
          "time": 80.5078125,
          "velocity": 0.7874015748031497,
          "duration": 0.1171875
        },
        {
          "name": "F4",
          "midi": 65,
          "time": 80.625,
          "velocity": 0.7874015748031497,
          "duration": 0.1171875
        },
        {
          "name": "E4",
          "midi": 64,
          "time": 80.7421875,
          "velocity": 0.7874015748031497,
          "duration": 0.1171875
        },
        {
          "name": "D4",
          "midi": 62,
          "time": 80.859375,
          "velocity": 0.5118110236220472,
          "duration": 0.0390625
        },
        {
          "name": "E4",
          "midi": 64,
          "time": 80.8984375,
          "velocity": 0.6771653543307087,
          "duration": 0.0390625
        },
        {
          "name": "F4",
          "midi": 65,
          "time": 80.9375,
          "velocity": 0.7874015748031497,
          "duration": 0.0390625
        },
        {
          "name": "E4",
          "midi": 64,
          "time": 80.9765625,
          "velocity": 0.7874015748031497,
          "duration": 0.1171875
        },
        {
          "name": "D4",
          "midi": 62,
          "time": 81.09375,
          "velocity": 0.7874015748031497,
          "duration": 0.1171875
        },
        {
          "name": "F4",
          "midi": 65,
          "time": 81.2109375,
          "velocity": 0.7322834645669292,
          "duration": 0.1123046875
        },
        {
          "name": "F4",
          "midi": 65,
          "time": 81.328125,
          "velocity": 0.8503937007874016,
          "duration": 0.1123046875
        },
        {
          "name": "E4",
          "midi": 64,
          "time": 81.4453125,
          "velocity": 0.8503937007874016,
          "duration": 0.1123046875
        },
        {
          "name": "D4",
          "midi": 62,
          "time": 81.5625,
          "velocity": 0.8503937007874016,
          "duration": 0.1123046875
        },
        {
          "name": "F4",
          "midi": 65,
          "time": 81.6796875,
          "velocity": 0.5118110236220472,
          "duration": 0.1171875
        },
        {
          "name": "F4",
          "midi": 65,
          "time": 81.796875,
          "velocity": 0.6535433070866141,
          "duration": 0.1171875
        },
        {
          "name": "F4",
          "midi": 65,
          "time": 81.9140625,
          "velocity": 0.8661417322834646,
          "duration": 0.1171875
        },
        {
          "name": "E4",
          "midi": 64,
          "time": 82.03125,
          "velocity": 0.8503937007874016,
          "duration": 0.1123046875
        },
        {
          "name": "C4",
          "midi": 60,
          "time": 82.1484375,
          "velocity": 0.8503937007874016,
          "duration": 0.1123046875
        },
        {
          "name": "C4",
          "midi": 60,
          "time": 82.5,
          "velocity": 0.7874015748031497,
          "duration": 0.1171875
        },
        {
          "name": "D4",
          "midi": 62,
          "time": 82.96875,
          "velocity": 0.7874015748031497,
          "duration": 0.1171875
        },
        {
          "name": "C4",
          "midi": 60,
          "time": 83.5546875,
          "velocity": 0.7874015748031497,
          "duration": 0.1171875
        },
        {
          "name": "F4",
          "midi": 65,
          "time": 83.671875,
          "velocity": 0.7874015748031497,
          "duration": 0.1171875
        },
        {
          "name": "E4",
          "midi": 64,
          "time": 83.7890625,
          "velocity": 0.7874015748031497,
          "duration": 0.1171875
        },
        {
          "name": "D4",
          "midi": 62,
          "time": 83.90625,
          "velocity": 0.7874015748031497,
          "duration": 0.1171875
        },
        {
          "name": "E4",
          "midi": 64,
          "time": 84.2578125,
          "velocity": 0.7874015748031497,
          "duration": 0.1171875
        },
        {
          "name": "F4",
          "midi": 65,
          "time": 84.375,
          "velocity": 0.7874015748031497,
          "duration": 0.1171875
        },
        {
          "name": "E4",
          "midi": 64,
          "time": 84.4921875,
          "velocity": 0.7874015748031497,
          "duration": 0.1171875
        },
        {
          "name": "E4",
          "midi": 64,
          "time": 84.609375,
          "velocity": 0.7874015748031497,
          "duration": 0.1171875
        },
        {
          "name": "D4",
          "midi": 62,
          "time": 84.84375,
          "velocity": 0.7874015748031497,
          "duration": 0.1171875
        },
        {
          "name": "E4",
          "midi": 64,
          "time": 85.4296875,
          "velocity": 0.5118110236220472,
          "duration": 0.1171875
        },
        {
          "name": "E4",
          "midi": 64,
          "time": 85.546875,
          "velocity": 0.6535433070866141,
          "duration": 0.1171875
        },
        {
          "name": "F4",
          "midi": 65,
          "time": 85.6640625,
          "velocity": 0.8661417322834646,
          "duration": 0.1171875
        },
        {
          "name": "E4",
          "midi": 64,
          "time": 85.78125,
          "velocity": 0.7874015748031497,
          "duration": 0.1171875
        },
        {
          "name": "F4",
          "midi": 65,
          "time": 86.015625,
          "velocity": 0.7795275590551181,
          "duration": 0.1171875
        },
        {
          "name": "D4",
          "midi": 62,
          "time": 86.1328125,
          "velocity": 0.7874015748031497,
          "duration": 0.1171875
        },
        {
          "name": "C4",
          "midi": 60,
          "time": 86.25,
          "velocity": 0.7874015748031497,
          "duration": 0.1171875
        },
        {
          "name": "C4",
          "midi": 60,
          "time": 86.3671875,
          "velocity": 0.7874015748031497,
          "duration": 0.1171875
        },
        {
          "name": "D4",
          "midi": 62,
          "time": 86.71875,
          "velocity": 0.7874015748031497,
          "duration": 0.1171875
        },
        {
          "name": "F4",
          "midi": 65,
          "time": 86.953125,
          "velocity": 0.7874015748031497,
          "duration": 0.1171875
        },
        {
          "name": "C4",
          "midi": 60,
          "time": 87.0703125,
          "velocity": 0.7874015748031497,
          "duration": 0.1171875
        },
        {
          "name": "C4",
          "midi": 60,
          "time": 87.1875,
          "velocity": 0.7874015748031497,
          "duration": 0.1171875
        },
        {
          "name": "E4",
          "midi": 64,
          "time": 87.1875,
          "velocity": 0.7874015748031497,
          "duration": 0.1171875
        },
        {
          "name": "C4",
          "midi": 60,
          "time": 87.3046875,
          "velocity": 0.7874015748031497,
          "duration": 0.1171875
        },
        {
          "name": "F4",
          "midi": 65,
          "time": 87.421875,
          "velocity": 0.7874015748031497,
          "duration": 0.1171875
        },
        {
          "name": "E4",
          "midi": 64,
          "time": 87.5390625,
          "velocity": 0.7874015748031497,
          "duration": 0.1171875
        },
        {
          "name": "F4",
          "midi": 65,
          "time": 87.65625,
          "velocity": 0.7874015748031497,
          "duration": 0.1171875
        },
        {
          "name": "D4",
          "midi": 62,
          "time": 87.65625,
          "velocity": 0.7874015748031497,
          "duration": 0.1171875
        },
        {
          "name": "E4",
          "midi": 64,
          "time": 87.890625,
          "velocity": 0.7874015748031497,
          "duration": 0.1171875
        },
        {
          "name": "D4",
          "midi": 62,
          "time": 88.0078125,
          "velocity": 0.7874015748031497,
          "duration": 0.1171875
        },
        {
          "name": "F4",
          "midi": 65,
          "time": 88.125,
          "velocity": 0.7874015748031497,
          "duration": 0.1171875
        },
        {
          "name": "E4",
          "midi": 64,
          "time": 88.2421875,
          "velocity": 0.7874015748031497,
          "duration": 0.1171875
        },
        {
          "name": "D4",
          "midi": 62,
          "time": 88.359375,
          "velocity": 0.5118110236220472,
          "duration": 0.0390625
        },
        {
          "name": "E4",
          "midi": 64,
          "time": 88.3984375,
          "velocity": 0.6771653543307087,
          "duration": 0.0390625
        },
        {
          "name": "F4",
          "midi": 65,
          "time": 88.4375,
          "velocity": 0.7874015748031497,
          "duration": 0.0390625
        },
        {
          "name": "E4",
          "midi": 64,
          "time": 88.4765625,
          "velocity": 0.7874015748031497,
          "duration": 0.1171875
        },
        {
          "name": "D4",
          "midi": 62,
          "time": 88.59375,
          "velocity": 0.7874015748031497,
          "duration": 0.1171875
        },
        {
          "name": "F4",
          "midi": 65,
          "time": 88.7109375,
          "velocity": 0.7322834645669292,
          "duration": 0.1123046875
        },
        {
          "name": "F4",
          "midi": 65,
          "time": 88.828125,
          "velocity": 0.8503937007874016,
          "duration": 0.1123046875
        },
        {
          "name": "E4",
          "midi": 64,
          "time": 88.9453125,
          "velocity": 0.8503937007874016,
          "duration": 0.1123046875
        },
        {
          "name": "D4",
          "midi": 62,
          "time": 89.0625,
          "velocity": 0.8503937007874016,
          "duration": 0.1123046875
        },
        {
          "name": "F4",
          "midi": 65,
          "time": 89.1796875,
          "velocity": 0.5118110236220472,
          "duration": 0.1171875
        },
        {
          "name": "F4",
          "midi": 65,
          "time": 89.296875,
          "velocity": 0.6535433070866141,
          "duration": 0.1171875
        },
        {
          "name": "F4",
          "midi": 65,
          "time": 89.4140625,
          "velocity": 0.8661417322834646,
          "duration": 0.1171875
        },
        {
          "name": "E4",
          "midi": 64,
          "time": 89.53125,
          "velocity": 0.8503937007874016,
          "duration": 0.1123046875
        },
        {
          "name": "C4",
          "midi": 60,
          "time": 89.6484375,
          "velocity": 0.8503937007874016,
          "duration": 0.1123046875
        },
        {
          "name": "C4",
          "midi": 60,
          "time": 89.765625,
          "velocity": 0.8503937007874016,
          "duration": 0.1123046875
        },
        {
          "name": "C4",
          "midi": 60,
          "time": 90,
          "velocity": 0.8031496062992126,
          "duration": 0.1123046875
        },
        {
          "name": "C4",
          "midi": 60,
          "time": 90.234375,
          "velocity": 0.8031496062992126,
          "duration": 0.1123046875
        },
        {
          "name": "C4",
          "midi": 60,
          "time": 90.3515625,
          "velocity": 0.8031496062992126,
          "duration": 0.1123046875
        },
        {
          "name": "D4",
          "midi": 62,
          "time": 90.46875,
          "velocity": 0.8031496062992126,
          "duration": 0.1123046875
        },
        {
          "name": "F4",
          "midi": 65,
          "time": 90.5859375,
          "velocity": 0.8031496062992126,
          "duration": 0.1123046875
        },
        {
          "name": "E4",
          "midi": 64,
          "time": 90.703125,
          "velocity": 0.8031496062992126,
          "duration": 0.1123046875
        },
        {
          "name": "D4",
          "midi": 62,
          "time": 90.703125,
          "velocity": 0.8031496062992126,
          "duration": 0.1123046875
        },
        {
          "name": "E4",
          "midi": 64,
          "time": 90.9375,
          "velocity": 0.8031496062992126,
          "duration": 0.1123046875
        },
        {
          "name": "F4",
          "midi": 65,
          "time": 91.0546875,
          "velocity": 0.8031496062992126,
          "duration": 0.1123046875
        },
        {
          "name": "C4",
          "midi": 60,
          "time": 91.0546875,
          "velocity": 0.8031496062992126,
          "duration": 0.1123046875
        },
        {
          "name": "E4",
          "midi": 64,
          "time": 91.171875,
          "velocity": 0.8031496062992126,
          "duration": 0.1123046875
        },
        {
          "name": "F4",
          "midi": 65,
          "time": 91.2890625,
          "velocity": 0.8031496062992126,
          "duration": 0.1123046875
        },
        {
          "name": "E4",
          "midi": 64,
          "time": 91.40625,
          "velocity": 0.8031496062992126,
          "duration": 0.1123046875
        },
        {
          "name": "E4",
          "midi": 64,
          "time": 91.640625,
          "velocity": 0.3228346456692913,
          "duration": 0.0390625
        },
        {
          "name": "F4",
          "midi": 65,
          "time": 91.6796875,
          "velocity": 0.5354330708661418,
          "duration": 0.0390625
        },
        {
          "name": "E4",
          "midi": 64,
          "time": 91.71875,
          "velocity": 0.8031496062992126,
          "duration": 0.0390625
        },
        {
          "name": "F4",
          "midi": 65,
          "time": 91.7578125,
          "velocity": 0.7874015748031497,
          "duration": 0.1123046875
        },
        {
          "name": "C4",
          "midi": 60,
          "time": 91.7578125,
          "velocity": 0.7874015748031497,
          "duration": 0.1123046875
        },
        {
          "name": "E4",
          "midi": 64,
          "time": 91.9921875,
          "velocity": 0.7874015748031497,
          "duration": 0.1123046875
        },
        {
          "name": "F4",
          "midi": 65,
          "time": 92.109375,
          "velocity": 0.7874015748031497,
          "duration": 0.1123046875
        },
        {
          "name": "E4",
          "midi": 64,
          "time": 92.2265625,
          "velocity": 0.7874015748031497,
          "duration": 0.1123046875
        },
        {
          "name": "D4",
          "midi": 62,
          "time": 92.34375,
          "velocity": 0.7874015748031497,
          "duration": 0.1123046875
        },
        {
          "name": "F4",
          "midi": 65,
          "time": 92.34375,
          "velocity": 0.7874015748031497,
          "duration": 0.1123046875
        },
        {
          "name": "C4",
          "midi": 60,
          "time": 92.578125,
          "velocity": 0.7874015748031497,
          "duration": 0.1123046875
        },
        {
          "name": "E4",
          "midi": 64,
          "time": 92.6953125,
          "velocity": 0.7874015748031497,
          "duration": 0.1123046875
        },
        {
          "name": "F4",
          "midi": 65,
          "time": 92.8125,
          "velocity": 0.7874015748031497,
          "duration": 0.1123046875
        },
        {
          "name": "C4",
          "midi": 60,
          "time": 92.8125,
          "velocity": 0.7874015748031497,
          "duration": 0.1123046875
        },
        {
          "name": "F4",
          "midi": 65,
          "time": 92.9296875,
          "velocity": 0.7874015748031497,
          "duration": 0.1123046875
        },
        {
          "name": "E4",
          "midi": 64,
          "time": 93.046875,
          "velocity": 0.7874015748031497,
          "duration": 0.1123046875
        },
        {
          "name": "E4",
          "midi": 64,
          "time": 93.1640625,
          "velocity": 0.7874015748031497,
          "duration": 0.1123046875
        },
        {
          "name": "D4",
          "midi": 62,
          "time": 93.28125,
          "velocity": 0.7874015748031497,
          "duration": 0.1123046875
        },
        {
          "name": "E4",
          "midi": 64,
          "time": 93.3984375,
          "velocity": 0.7874015748031497,
          "duration": 0.1123046875
        },
        {
          "name": "F4",
          "midi": 65,
          "time": 93.6328125,
          "velocity": 0.7401574803149606,
          "duration": 0.1171875
        },
        {
          "name": "C4",
          "midi": 60,
          "time": 93.6328125,
          "velocity": 0.7401574803149606,
          "duration": 0.1171875
        },
        {
          "name": "C4",
          "midi": 60,
          "time": 93.8671875,
          "velocity": 0.7874015748031497,
          "duration": 0.1171875
        },
        {
          "name": "D4",
          "midi": 62,
          "time": 94.21875,
          "velocity": 0.7874015748031497,
          "duration": 0.1171875
        },
        {
          "name": "F4",
          "midi": 65,
          "time": 94.453125,
          "velocity": 0.7874015748031497,
          "duration": 0.1171875
        },
        {
          "name": "C4",
          "midi": 60,
          "time": 94.5703125,
          "velocity": 0.7874015748031497,
          "duration": 0.1171875
        },
        {
          "name": "F4",
          "midi": 65,
          "time": 94.921875,
          "velocity": 0.7874015748031497,
          "duration": 0.1171875
        },
        {
          "name": "E4",
          "midi": 64,
          "time": 95.0390625,
          "velocity": 0.7874015748031497,
          "duration": 0.1171875
        },
        {
          "name": "F4",
          "midi": 65,
          "time": 95.15625,
          "velocity": 0.7874015748031497,
          "duration": 0.1171875
        },
        {
          "name": "E4",
          "midi": 64,
          "time": 95.390625,
          "velocity": 0.7874015748031497,
          "duration": 0.1171875
        },
        {
          "name": "F4",
          "midi": 65,
          "time": 95.625,
          "velocity": 0.7874015748031497,
          "duration": 0.4638671875
        },
        {
          "name": "C4",
          "midi": 60,
          "time": 95.625,
          "velocity": 0.7874015748031497,
          "duration": 0.1123046875
        },
        {
          "name": "C4",
          "midi": 60,
          "time": 96.09375,
          "velocity": 0.7874015748031497,
          "duration": 0.1123046875
        },
        {
          "name": "D4",
          "midi": 62,
          "time": 96.09375,
          "velocity": 0.7874015748031497,
          "duration": 0.4638671875
        },
        {
          "name": "C4",
          "midi": 60,
          "time": 96.5625,
          "velocity": 0.7874015748031497,
          "duration": 0.1123046875
        },
        {
          "name": "F4",
          "midi": 65,
          "time": 96.796875,
          "velocity": 0.7874015748031497,
          "duration": 0.2294921875
        },
        {
          "name": "D4",
          "midi": 62,
          "time": 97.03125,
          "velocity": 0.7874015748031497,
          "duration": 0.2294921875
        },
        {
          "name": "C4",
          "midi": 60,
          "time": 97.03125,
          "velocity": 0.7874015748031497,
          "duration": 0.1123046875
        },
        {
          "name": "F4",
          "midi": 65,
          "time": 97.265625,
          "velocity": 0.7874015748031497,
          "duration": 0.2294921875
        },
        {
          "name": "C4",
          "midi": 60,
          "time": 97.5,
          "velocity": 0.7874015748031497,
          "duration": 0.1123046875
        },
        {
          "name": "E4",
          "midi": 64,
          "time": 97.5,
          "velocity": 0.7874015748031497,
          "duration": 0.4638671875
        },
        {
          "name": "C4",
          "midi": 60,
          "time": 97.96875,
          "velocity": 0.7874015748031497,
          "duration": 0.1123046875
        },
        {
          "name": "D4",
          "midi": 62,
          "time": 97.96875,
          "velocity": 0.7874015748031497,
          "duration": 0.2294921875
        },
        {
          "name": "E4",
          "midi": 64,
          "time": 98.203125,
          "velocity": 0.7874015748031497,
          "duration": 0.4638671875
        },
        {
          "name": "C4",
          "midi": 60,
          "time": 98.4375,
          "velocity": 0.7874015748031497,
          "duration": 0.1123046875
        },
        {
          "name": "D4",
          "midi": 62,
          "time": 98.671875,
          "velocity": 0.7874015748031497,
          "duration": 0.2294921875
        },
        {
          "name": "C4",
          "midi": 60,
          "time": 98.90625,
          "velocity": 0.7874015748031497,
          "duration": 0.1123046875
        },
        {
          "name": "E4",
          "midi": 64,
          "time": 98.90625,
          "velocity": 0.7874015748031497,
          "duration": 0.2294921875
        },
        {
          "name": "D4",
          "midi": 62,
          "time": 99.140625,
          "velocity": 0.7874015748031497,
          "duration": 0.2294921875
        },
        {
          "name": "E4",
          "midi": 64,
          "time": 99.375,
          "velocity": 0.7874015748031497,
          "duration": 0.4638671875
        },
        {
          "name": "C4",
          "midi": 60,
          "time": 99.375,
          "velocity": 0.7874015748031497,
          "duration": 0.1123046875
        },
        {
          "name": "C4",
          "midi": 60,
          "time": 99.84375,
          "velocity": 0.7874015748031497,
          "duration": 0.1123046875
        },
        {
          "name": "D4",
          "midi": 62,
          "time": 99.84375,
          "velocity": 0.7874015748031497,
          "duration": 0.1123046875
        },
        {
          "name": "C4",
          "midi": 60,
          "time": 100.3125,
          "velocity": 0.7874015748031497,
          "duration": 0.1123046875
        },
        {
          "name": "D4",
          "midi": 62,
          "time": 100.78125,
          "velocity": 0.7874015748031497,
          "duration": 0.1123046875
        },
        {
          "name": "C4",
          "midi": 60,
          "time": 100.78125,
          "velocity": 0.7874015748031497,
          "duration": 0.1123046875
        },
        {
          "name": "C4",
          "midi": 60,
          "time": 101.25,
          "velocity": 0.7874015748031497,
          "duration": 0.1123046875
        },
        {
          "name": "D4",
          "midi": 62,
          "time": 101.71875,
          "velocity": 0.7874015748031497,
          "duration": 0.1123046875
        },
        {
          "name": "C4",
          "midi": 60,
          "time": 101.71875,
          "velocity": 0.7874015748031497,
          "duration": 0.1123046875
        },
        {
          "name": "C4",
          "midi": 60,
          "time": 102.1875,
          "velocity": 0.7874015748031497,
          "duration": 0.1123046875
        },
        {
          "name": "D4",
          "midi": 62,
          "time": 102.421875,
          "velocity": 0.7874015748031497,
          "duration": 0.1123046875
        },
        {
          "name": "D4",
          "midi": 62,
          "time": 102.65625,
          "velocity": 0.7874015748031497,
          "duration": 0.1123046875
        },
        {
          "name": "C4",
          "midi": 60,
          "time": 103.125,
          "velocity": 0.7874015748031497,
          "duration": 0.1123046875
        },
        {
          "name": "F4",
          "midi": 65,
          "time": 103.125,
          "velocity": 0.7874015748031497,
          "duration": 0.4638671875
        },
        {
          "name": "C4",
          "midi": 60,
          "time": 103.59375,
          "velocity": 0.7874015748031497,
          "duration": 0.1123046875
        },
        {
          "name": "D4",
          "midi": 62,
          "time": 103.59375,
          "velocity": 0.7874015748031497,
          "duration": 0.4638671875
        },
        {
          "name": "F4",
          "midi": 65,
          "time": 104.0625,
          "velocity": 0.7874015748031497,
          "duration": 0.4638671875
        },
        {
          "name": "C4",
          "midi": 60,
          "time": 104.0625,
          "velocity": 0.7874015748031497,
          "duration": 0.1123046875
        },
        {
          "name": "C4",
          "midi": 60,
          "time": 104.53125,
          "velocity": 0.7874015748031497,
          "duration": 0.1123046875
        },
        {
          "name": "E4",
          "midi": 64,
          "time": 104.53125,
          "velocity": 0.7874015748031497,
          "duration": 0.9326171875
        },
        {
          "name": "C4",
          "midi": 60,
          "time": 105,
          "velocity": 0.7874015748031497,
          "duration": 0.1123046875
        },
        {
          "name": "E4",
          "midi": 64,
          "time": 105.46875,
          "velocity": 0.7874015748031497,
          "duration": 0.9326171875
        },
        {
          "name": "C4",
          "midi": 60,
          "time": 105.46875,
          "velocity": 0.7874015748031497,
          "duration": 0.1123046875
        },
        {
          "name": "C4",
          "midi": 60,
          "time": 105.9375,
          "velocity": 0.7874015748031497,
          "duration": 0.1123046875
        },
        {
          "name": "C4",
          "midi": 60,
          "time": 106.40625,
          "velocity": 0.7874015748031497,
          "duration": 0.1123046875
        },
        {
          "name": "D4",
          "midi": 62,
          "time": 106.40625,
          "velocity": 0.7874015748031497,
          "duration": 0.9326171875
        },
        {
          "name": "C4",
          "midi": 60,
          "time": 106.875,
          "velocity": 0.7874015748031497,
          "duration": 0.1123046875
        },
        {
          "name": "C4",
          "midi": 60,
          "time": 107.34375,
          "velocity": 0.7874015748031497,
          "duration": 0.1123046875
        },
        {
          "name": "D4",
          "midi": 62,
          "time": 107.34375,
          "velocity": 0.7874015748031497,
          "duration": 0.1123046875
        },
        {
          "name": "C4",
          "midi": 60,
          "time": 107.8125,
          "velocity": 0.7874015748031497,
          "duration": 0.1123046875
        },
        {
          "name": "C4",
          "midi": 60,
          "time": 108.28125,
          "velocity": 0.7874015748031497,
          "duration": 0.1123046875
        },
        {
          "name": "D4",
          "midi": 62,
          "time": 108.28125,
          "velocity": 0.7874015748031497,
          "duration": 0.1123046875
        },
        {
          "name": "C4",
          "midi": 60,
          "time": 108.75,
          "velocity": 0.7874015748031497,
          "duration": 0.1123046875
        },
        {
          "name": "C4",
          "midi": 60,
          "time": 109.21875,
          "velocity": 0.7874015748031497,
          "duration": 0.1123046875
        },
        {
          "name": "D4",
          "midi": 62,
          "time": 109.21875,
          "velocity": 0.7874015748031497,
          "duration": 0.1123046875
        },
        {
          "name": "C4",
          "midi": 60,
          "time": 109.6875,
          "velocity": 0.7874015748031497,
          "duration": 0.1123046875
        },
        {
          "name": "D4",
          "midi": 62,
          "time": 109.921875,
          "velocity": 0.7874015748031497,
          "duration": 0.1123046875
        },
        {
          "name": "D4",
          "midi": 62,
          "time": 110.15625,
          "velocity": 0.7874015748031497,
          "duration": 0.1123046875
        },
        {
          "name": "C4",
          "midi": 60,
          "time": 110.2734375,
          "velocity": 0.7874015748031497,
          "duration": 0.1171875
        },
        {
          "name": "F4",
          "midi": 65,
          "time": 110.625,
          "velocity": 0.7874015748031497,
          "duration": 0.4638671875
        },
        {
          "name": "C4",
          "midi": 60,
          "time": 110.625,
          "velocity": 0.7874015748031497,
          "duration": 0.1123046875
        },
        {
          "name": "C4",
          "midi": 60,
          "time": 111.09375,
          "velocity": 0.7874015748031497,
          "duration": 0.1123046875
        },
        {
          "name": "D4",
          "midi": 62,
          "time": 111.09375,
          "velocity": 0.7874015748031497,
          "duration": 0.4638671875
        },
        {
          "name": "C4",
          "midi": 60,
          "time": 111.5625,
          "velocity": 0.7874015748031497,
          "duration": 0.1123046875
        },
        {
          "name": "F4",
          "midi": 65,
          "time": 111.796875,
          "velocity": 0.7874015748031497,
          "duration": 0.2294921875
        },
        {
          "name": "D4",
          "midi": 62,
          "time": 112.03125,
          "velocity": 0.7874015748031497,
          "duration": 0.2294921875
        },
        {
          "name": "C4",
          "midi": 60,
          "time": 112.03125,
          "velocity": 0.7874015748031497,
          "duration": 0.1123046875
        },
        {
          "name": "F4",
          "midi": 65,
          "time": 112.265625,
          "velocity": 0.7874015748031497,
          "duration": 0.2294921875
        },
        {
          "name": "C4",
          "midi": 60,
          "time": 112.5,
          "velocity": 0.7874015748031497,
          "duration": 0.1123046875
        },
        {
          "name": "E4",
          "midi": 64,
          "time": 112.5,
          "velocity": 0.7874015748031497,
          "duration": 0.4638671875
        },
        {
          "name": "C4",
          "midi": 60,
          "time": 112.96875,
          "velocity": 0.7874015748031497,
          "duration": 0.1123046875
        },
        {
          "name": "D4",
          "midi": 62,
          "time": 112.96875,
          "velocity": 0.7874015748031497,
          "duration": 0.2294921875
        },
        {
          "name": "E4",
          "midi": 64,
          "time": 113.203125,
          "velocity": 0.7874015748031497,
          "duration": 0.4638671875
        },
        {
          "name": "C4",
          "midi": 60,
          "time": 113.4375,
          "velocity": 0.7874015748031497,
          "duration": 0.1123046875
        },
        {
          "name": "D4",
          "midi": 62,
          "time": 113.671875,
          "velocity": 0.7874015748031497,
          "duration": 0.2294921875
        },
        {
          "name": "C4",
          "midi": 60,
          "time": 113.90625,
          "velocity": 0.7874015748031497,
          "duration": 0.1123046875
        },
        {
          "name": "E4",
          "midi": 64,
          "time": 113.90625,
          "velocity": 0.7874015748031497,
          "duration": 0.2294921875
        },
        {
          "name": "D4",
          "midi": 62,
          "time": 114.140625,
          "velocity": 0.7874015748031497,
          "duration": 0.2294921875
        },
        {
          "name": "E4",
          "midi": 64,
          "time": 114.375,
          "velocity": 0.7874015748031497,
          "duration": 0.4638671875
        },
        {
          "name": "C4",
          "midi": 60,
          "time": 114.375,
          "velocity": 0.7874015748031497,
          "duration": 0.1123046875
        },
        {
          "name": "C4",
          "midi": 60,
          "time": 114.84375,
          "velocity": 0.7874015748031497,
          "duration": 0.1123046875
        },
        {
          "name": "D4",
          "midi": 62,
          "time": 114.84375,
          "velocity": 0.7874015748031497,
          "duration": 0.1123046875
        },
        {
          "name": "C4",
          "midi": 60,
          "time": 115.3125,
          "velocity": 0.7874015748031497,
          "duration": 0.1123046875
        },
        {
          "name": "D4",
          "midi": 62,
          "time": 115.78125,
          "velocity": 0.7874015748031497,
          "duration": 0.1123046875
        },
        {
          "name": "C4",
          "midi": 60,
          "time": 115.78125,
          "velocity": 0.7874015748031497,
          "duration": 0.1123046875
        },
        {
          "name": "C4",
          "midi": 60,
          "time": 116.25,
          "velocity": 0.7874015748031497,
          "duration": 0.1123046875
        },
        {
          "name": "D4",
          "midi": 62,
          "time": 116.71875,
          "velocity": 0.7874015748031497,
          "duration": 0.1123046875
        },
        {
          "name": "C4",
          "midi": 60,
          "time": 116.71875,
          "velocity": 0.7874015748031497,
          "duration": 0.1123046875
        },
        {
          "name": "C4",
          "midi": 60,
          "time": 117.1875,
          "velocity": 0.7874015748031497,
          "duration": 0.1123046875
        },
        {
          "name": "D4",
          "midi": 62,
          "time": 117.421875,
          "velocity": 0.7874015748031497,
          "duration": 0.1123046875
        },
        {
          "name": "D4",
          "midi": 62,
          "time": 117.65625,
          "velocity": 0.7874015748031497,
          "duration": 0.1123046875
        },
        {
          "name": "C4",
          "midi": 60,
          "time": 118.125,
          "velocity": 0.7874015748031497,
          "duration": 0.1123046875
        },
        {
          "name": "F4",
          "midi": 65,
          "time": 118.125,
          "velocity": 0.7874015748031497,
          "duration": 0.4638671875
        },
        {
          "name": "C4",
          "midi": 60,
          "time": 118.59375,
          "velocity": 0.7874015748031497,
          "duration": 0.1123046875
        },
        {
          "name": "D4",
          "midi": 62,
          "time": 118.59375,
          "velocity": 0.7874015748031497,
          "duration": 0.4638671875
        },
        {
          "name": "F4",
          "midi": 65,
          "time": 119.0625,
          "velocity": 0.7874015748031497,
          "duration": 0.4638671875
        },
        {
          "name": "C4",
          "midi": 60,
          "time": 119.0625,
          "velocity": 0.7874015748031497,
          "duration": 0.1123046875
        },
        {
          "name": "C4",
          "midi": 60,
          "time": 119.53125,
          "velocity": 0.7874015748031497,
          "duration": 0.1123046875
        },
        {
          "name": "E4",
          "midi": 64,
          "time": 119.53125,
          "velocity": 0.7874015748031497,
          "duration": 0.9326171875
        },
        {
          "name": "C4",
          "midi": 60,
          "time": 120,
          "velocity": 0.7874015748031497,
          "duration": 0.1123046875
        },
        {
          "name": "E4",
          "midi": 64,
          "time": 120.46875,
          "velocity": 0.7874015748031497,
          "duration": 0.9326171875
        },
        {
          "name": "C4",
          "midi": 60,
          "time": 120.46875,
          "velocity": 0.7874015748031497,
          "duration": 0.1123046875
        },
        {
          "name": "C4",
          "midi": 60,
          "time": 120.9375,
          "velocity": 0.7874015748031497,
          "duration": 0.1123046875
        },
        {
          "name": "C4",
          "midi": 60,
          "time": 121.40625,
          "velocity": 0.7874015748031497,
          "duration": 0.1123046875
        },
        {
          "name": "D4",
          "midi": 62,
          "time": 121.40625,
          "velocity": 0.7874015748031497,
          "duration": 0.9326171875
        },
        {
          "name": "C4",
          "midi": 60,
          "time": 121.875,
          "velocity": 0.7874015748031497,
          "duration": 0.1123046875
        },
        {
          "name": "C4",
          "midi": 60,
          "time": 122.34375,
          "velocity": 0.7874015748031497,
          "duration": 0.1123046875
        },
        {
          "name": "D4",
          "midi": 62,
          "time": 122.34375,
          "velocity": 0.7874015748031497,
          "duration": 0.1123046875
        },
        {
          "name": "C4",
          "midi": 60,
          "time": 122.8125,
          "velocity": 0.7874015748031497,
          "duration": 0.1123046875
        },
        {
          "name": "C4",
          "midi": 60,
          "time": 123.28125,
          "velocity": 0.7874015748031497,
          "duration": 0.1123046875
        },
        {
          "name": "D4",
          "midi": 62,
          "time": 123.28125,
          "velocity": 0.7874015748031497,
          "duration": 0.1123046875
        },
        {
          "name": "C4",
          "midi": 60,
          "time": 123.75,
          "velocity": 0.7874015748031497,
          "duration": 0.1123046875
        },
        {
          "name": "C4",
          "midi": 60,
          "time": 124.21875,
          "velocity": 0.7874015748031497,
          "duration": 0.1123046875
        },
        {
          "name": "D4",
          "midi": 62,
          "time": 124.21875,
          "velocity": 0.7874015748031497,
          "duration": 0.1123046875
        },
        {
          "name": "C4",
          "midi": 60,
          "time": 124.6875,
          "velocity": 0.7874015748031497,
          "duration": 0.1123046875
        },
        {
          "name": "D4",
          "midi": 62,
          "time": 124.921875,
          "velocity": 0.7874015748031497,
          "duration": 0.1123046875
        },
        {
          "name": "D4",
          "midi": 62,
          "time": 125.15625,
          "velocity": 0.7874015748031497,
          "duration": 0.1123046875
        },
        {
          "name": "D4",
          "midi": 62,
          "time": 125.390625,
          "velocity": 0.7874015748031497,
          "duration": 0.1171875
        },
        {
          "name": "E4",
          "midi": 64,
          "time": 125.5078125,
          "velocity": 0.7874015748031497,
          "duration": 0.1171875
        }
      ],
      "controlChanges": {},
      "id": 1,
      "name": "lo-fi-short-snare_B_minor 1",
      "channelNumber": 0,
      "isPercussion": false
    }
  ]
}