{
  "header": {
    "PPQ": 96,
    "bpm": 172.00010320006191,
    "timeSignature": [
      4,
      4
    ],
    "name": ""
  },
  "tempo": [
    {
      "absoluteTime": 0,
      "seconds": 0,
      "bpm": 172.00010320006191
    }
  ],
  "timeSignature": [
    {
      "absoluteTime": 0,
      "seconds": 0,
      "numerator": 4,
      "denominator": 2,
      "click": 24,
      "notesQ": 8
    }
  ],
  "startTime": 0,
  "duration": 79.53483600000035,
  "tracks": [
    {
      "startTime": 0,
      "duration": 0,
      "length": 0,
      "notes": [],
      "controlChanges": {},
      "id": 0
    },
    {
      "startTime": 2.093022,
      "duration": 79.53483600000035,
      "length": 259,
      "notes": [
        {
          "name": "D4",
          "midi": 62,
          "time": 2.093022,
          "velocity": 0.7874015748031497,
          "duration": 0.0872092499999999
        },
        {
          "name": "C4",
          "midi": 60,
          "time": 2.441859,
          "velocity": 0.7874015748031497,
          "duration": 0.0872092499999999
        },
        {
          "name": "C4",
          "midi": 60,
          "time": 5.0581365,
          "velocity": 0.7874015748031497,
          "duration": 0.0872092499999999
        },
        {
          "name": "D4",
          "midi": 62,
          "time": 5.232555,
          "velocity": 0.7874015748031497,
          "duration": 0.0872092499999999
        },
        {
          "name": "D4",
          "midi": 62,
          "time": 5.581391999999999,
          "velocity": 0.7874015748031497,
          "duration": 0.0872092499999999
        },
        {
          "name": "D4",
          "midi": 62,
          "time": 7.674413999999999,
          "velocity": 0.7874015748031497,
          "duration": 0.0872092499999999
        },
        {
          "name": "D4",
          "midi": 62,
          "time": 7.8488324999999985,
          "velocity": 0.7874015748031497,
          "duration": 0.0872092499999999
        },
        {
          "name": "C4",
          "midi": 60,
          "time": 8.023250999999998,
          "velocity": 0.7874015748031497,
          "duration": 0.0872092500000008
        },
        {
          "name": "C4",
          "midi": 60,
          "time": 8.1976695,
          "velocity": 0.7874015748031497,
          "duration": 0.0872092500000008
        },
        {
          "name": "D4",
          "midi": 62,
          "time": 8.372088000000002,
          "velocity": 0.7874015748031497,
          "duration": 0.0872092500000008
        },
        {
          "name": "D4",
          "midi": 62,
          "time": 10.465110000000003,
          "velocity": 0.7874015748031497,
          "duration": 0.0872092500000008
        },
        {
          "name": "D4",
          "midi": 62,
          "time": 10.552319250000004,
          "velocity": 0.7874015748031497,
          "duration": 0.0872092500000008
        },
        {
          "name": "C4",
          "midi": 60,
          "time": 10.639528500000004,
          "velocity": 0.7874015748031497,
          "duration": 0.0872092500000008
        },
        {
          "name": "D4",
          "midi": 62,
          "time": 10.813947000000006,
          "velocity": 0.7874015748031497,
          "duration": 0.0872092500000008
        },
        {
          "name": "C4",
          "midi": 60,
          "time": 10.988365500000008,
          "velocity": 0.7874015748031497,
          "duration": 0.0872092500000008
        },
        {
          "name": "D4",
          "midi": 62,
          "time": 11.16278400000001,
          "velocity": 0.7874015748031497,
          "duration": 2.005812750000006
        },
        {
          "name": "C4",
          "midi": 60,
          "time": 11.16278400000001,
          "velocity": 0.7874015748031497,
          "duration": 0.0872092500000008
        },
        {
          "name": "C4",
          "midi": 60,
          "time": 12.03487650000001,
          "velocity": 0.7874015748031497,
          "duration": 0.0872092500000008
        },
        {
          "name": "C4",
          "midi": 60,
          "time": 12.209295000000012,
          "velocity": 0.7874015748031497,
          "duration": 0.0872092500000008
        },
        {
          "name": "C4",
          "midi": 60,
          "time": 12.383713500000013,
          "velocity": 0.7874015748031497,
          "duration": 0.0872092500000008
        },
        {
          "name": "C4",
          "midi": 60,
          "time": 12.558132000000015,
          "velocity": 0.7874015748031497,
          "duration": 0.0872092500000008
        },
        {
          "name": "D4",
          "midi": 62,
          "time": 13.255806000000016,
          "velocity": 0.7874015748031497,
          "duration": 0.6104647500000056
        },
        {
          "name": "C4",
          "midi": 60,
          "time": 13.255806000000016,
          "velocity": 0.7874015748031497,
          "duration": 0.0872092500000008
        },
        {
          "name": "C4",
          "midi": 60,
          "time": 13.430224500000017,
          "velocity": 0.7874015748031497,
          "duration": 0.0872092500000008
        },
        {
          "name": "C4",
          "midi": 60,
          "time": 13.604643000000019,
          "velocity": 0.7874015748031497,
          "duration": 0.0872092500000008
        },
        {
          "name": "C4",
          "midi": 60,
          "time": 13.77906150000002,
          "velocity": 0.7874015748031497,
          "duration": 0.0872092500000008
        },
        {
          "name": "D4",
          "midi": 62,
          "time": 13.953480000000022,
          "velocity": 0.7874015748031497,
          "duration": 2.354649750000009
        },
        {
          "name": "C4",
          "midi": 60,
          "time": 13.953480000000022,
          "velocity": 0.7874015748031497,
          "duration": 0.0872092500000008
        },
        {
          "name": "C4",
          "midi": 60,
          "time": 14.825572500000023,
          "velocity": 0.7874015748031497,
          "duration": 0.0872092500000008
        },
        {
          "name": "C4",
          "midi": 60,
          "time": 14.999991000000024,
          "velocity": 0.7874015748031497,
          "duration": 0.0872092500000008
        },
        {
          "name": "C4",
          "midi": 60,
          "time": 15.174409500000026,
          "velocity": 0.7874015748031497,
          "duration": 0.0872092500000008
        },
        {
          "name": "C4",
          "midi": 60,
          "time": 15.348828000000028,
          "velocity": 0.7874015748031497,
          "duration": 0.0872092500000008
        },
        {
          "name": "C4",
          "midi": 60,
          "time": 15.872083500000029,
          "velocity": 0.7874015748031497,
          "duration": 0.0872092500000008
        },
        {
          "name": "C4",
          "midi": 60,
          "time": 16.04650200000003,
          "velocity": 0.7874015748031497,
          "duration": 0.0872092500000008
        },
        {
          "name": "C4",
          "midi": 60,
          "time": 16.22092050000003,
          "velocity": 0.7874015748031497,
          "duration": 0.0872092500000008
        },
        {
          "name": "D4",
          "midi": 62,
          "time": 16.395339000000032,
          "velocity": 0.7874015748031497,
          "duration": 0.2616277500000024
        },
        {
          "name": "C4",
          "midi": 60,
          "time": 16.395339000000032,
          "velocity": 0.7874015748031497,
          "duration": 0.0872092500000008
        },
        {
          "name": "C4",
          "midi": 60,
          "time": 16.569757500000033,
          "velocity": 0.7874015748031497,
          "duration": 0.0872092500000008
        },
        {
          "name": "D4",
          "midi": 62,
          "time": 16.744176000000035,
          "velocity": 0.7874015748031497,
          "duration": 0.0872092500000008
        },
        {
          "name": "C4",
          "midi": 60,
          "time": 16.744176000000035,
          "velocity": 0.7874015748031497,
          "duration": 2.0058127500000076
        },
        {
          "name": "D4",
          "midi": 62,
          "time": 17.616268500000036,
          "velocity": 0.7874015748031497,
          "duration": 0.0872092500000008
        },
        {
          "name": "D4",
          "midi": 62,
          "time": 17.790687000000037,
          "velocity": 0.7874015748031497,
          "duration": 0.0872092500000008
        },
        {
          "name": "D4",
          "midi": 62,
          "time": 17.96510550000004,
          "velocity": 0.7874015748031497,
          "duration": 0.0872092500000008
        },
        {
          "name": "D4",
          "midi": 62,
          "time": 18.13952400000004,
          "velocity": 0.7874015748031497,
          "duration": 0.0872092500000008
        },
        {
          "name": "D4",
          "midi": 62,
          "time": 18.837198000000043,
          "velocity": 0.7874015748031497,
          "duration": 0.0872092500000008
        },
        {
          "name": "C4",
          "midi": 60,
          "time": 18.837198000000043,
          "velocity": 0.7874015748031497,
          "duration": 0.6104647500000056
        },
        {
          "name": "D4",
          "midi": 62,
          "time": 19.011616500000045,
          "velocity": 0.7874015748031497,
          "duration": 0.0872092500000008
        },
        {
          "name": "D4",
          "midi": 62,
          "time": 19.186035000000047,
          "velocity": 0.7874015748031497,
          "duration": 0.0872092500000008
        },
        {
          "name": "D4",
          "midi": 62,
          "time": 19.360453500000048,
          "velocity": 0.7874015748031497,
          "duration": 0.0872092500000008
        },
        {
          "name": "D4",
          "midi": 62,
          "time": 19.53487200000005,
          "velocity": 0.7874015748031497,
          "duration": 0.0872092500000008
        },
        {
          "name": "C4",
          "midi": 60,
          "time": 19.53487200000005,
          "velocity": 0.7874015748031497,
          "duration": 1.3081387500000083
        },
        {
          "name": "D4",
          "midi": 62,
          "time": 19.88370900000005,
          "velocity": 0.7874015748031497,
          "duration": 0.0872092500000008
        },
        {
          "name": "D4",
          "midi": 62,
          "time": 20.05812750000005,
          "velocity": 0.7874015748031497,
          "duration": 0.0872092500000008
        },
        {
          "name": "D4",
          "midi": 62,
          "time": 20.232546000000053,
          "velocity": 0.7874015748031497,
          "duration": 0.0872092500000008
        },
        {
          "name": "D4",
          "midi": 62,
          "time": 20.406964500000054,
          "velocity": 0.7874015748031497,
          "duration": 0.0872092500000008
        },
        {
          "name": "D4",
          "midi": 62,
          "time": 20.581383000000056,
          "velocity": 0.7874015748031497,
          "duration": 0.0872092500000008
        },
        {
          "name": "D4",
          "midi": 62,
          "time": 20.755801500000057,
          "velocity": 0.7874015748031497,
          "duration": 0.0872092500000008
        },
        {
          "name": "D4",
          "midi": 62,
          "time": 20.93022000000006,
          "velocity": 0.7874015748031497,
          "duration": 0.0872092500000008
        },
        {
          "name": "C4",
          "midi": 60,
          "time": 20.93022000000006,
          "velocity": 0.7874015748031497,
          "duration": 0.6104647500000056
        },
        {
          "name": "D4",
          "midi": 62,
          "time": 21.10463850000006,
          "velocity": 0.7874015748031497,
          "duration": 0.0872092500000008
        },
        {
          "name": "D4",
          "midi": 62,
          "time": 21.279057000000062,
          "velocity": 0.7874015748031497,
          "duration": 0.0872092500000008
        },
        {
          "name": "D4",
          "midi": 62,
          "time": 21.453475500000064,
          "velocity": 0.7874015748031497,
          "duration": 0.0872092500000008
        },
        {
          "name": "C4",
          "midi": 60,
          "time": 21.627894000000065,
          "velocity": 0.7874015748031497,
          "duration": 0.6104647499999984
        },
        {
          "name": "D4",
          "midi": 62,
          "time": 21.627894000000065,
          "velocity": 0.7874015748031497,
          "duration": 0.2616277499999988
        },
        {
          "name": "D4",
          "midi": 62,
          "time": 21.976731000000065,
          "velocity": 0.7874015748031497,
          "duration": 0.2616277499999988
        },
        {
          "name": "C4",
          "midi": 60,
          "time": 22.325568000000064,
          "velocity": 0.7874015748031497,
          "duration": 0.6976739999999992
        },
        {
          "name": "D4",
          "midi": 62,
          "time": 23.023242000000064,
          "velocity": 0.7874015748031497,
          "duration": 0.1744185000000016
        },
        {
          "name": "D4",
          "midi": 62,
          "time": 23.197660500000065,
          "velocity": 0.7874015748031497,
          "duration": 0.1744185000000016
        },
        {
          "name": "C4",
          "midi": 60,
          "time": 23.372079000000067,
          "velocity": 0.7874015748031497,
          "duration": 0.1744185000000016
        },
        {
          "name": "C4",
          "midi": 60,
          "time": 23.54649750000007,
          "velocity": 0.7874015748031497,
          "duration": 0.1744185000000016
        },
        {
          "name": "C4",
          "midi": 60,
          "time": 23.72091600000007,
          "velocity": 0.7874015748031497,
          "duration": 0.1744185000000016
        },
        {
          "name": "C4",
          "midi": 60,
          "time": 24.069753000000073,
          "velocity": 0.7874015748031497,
          "duration": 0.0872092500000008
        },
        {
          "name": "C4",
          "midi": 60,
          "time": 24.244171500000075,
          "velocity": 0.7874015748031497,
          "duration": 0.0872092500000008
        },
        {
          "name": "D4",
          "midi": 62,
          "time": 24.418590000000076,
          "velocity": 0.7874015748031497,
          "duration": 0.0872092500000008
        },
        {
          "name": "C4",
          "midi": 60,
          "time": 24.593008500000078,
          "velocity": 0.7874015748031497,
          "duration": 0.0872092500000008
        },
        {
          "name": "C4",
          "midi": 60,
          "time": 24.76742700000008,
          "velocity": 0.7874015748031497,
          "duration": 0.1744185000000016
        },
        {
          "name": "D4",
          "midi": 62,
          "time": 24.94184550000008,
          "velocity": 0.7874015748031497,
          "duration": 0.1744185000000016
        },
        {
          "name": "C4",
          "midi": 60,
          "time": 25.116264000000083,
          "velocity": 0.7874015748031497,
          "duration": 0.0872092500000008
        },
        {
          "name": "C4",
          "midi": 60,
          "time": 25.465101000000082,
          "velocity": 0.7874015748031497,
          "duration": 0.0872092500000008
        },
        {
          "name": "C4",
          "midi": 60,
          "time": 25.639519500000084,
          "velocity": 0.7874015748031497,
          "duration": 0.0872092500000008
        },
        {
          "name": "D4",
          "midi": 62,
          "time": 25.813938000000086,
          "velocity": 0.7874015748031497,
          "duration": 0.0872092500000008
        },
        {
          "name": "C4",
          "midi": 60,
          "time": 25.988356500000087,
          "velocity": 0.7874015748031497,
          "duration": 0.0872092500000008
        },
        {
          "name": "C4",
          "midi": 60,
          "time": 26.16277500000009,
          "velocity": 0.7874015748031497,
          "duration": 0.1744185000000016
        },
        {
          "name": "D4",
          "midi": 62,
          "time": 26.33719350000009,
          "velocity": 0.7874015748031497,
          "duration": 0.1744185000000016
        },
        {
          "name": "C4",
          "midi": 60,
          "time": 26.511612000000092,
          "velocity": 0.7874015748031497,
          "duration": 0.6976739999999992
        },
        {
          "name": "D4",
          "midi": 62,
          "time": 27.20928600000009,
          "velocity": 0.7874015748031497,
          "duration": 0.1744185000000016
        },
        {
          "name": "D4",
          "midi": 62,
          "time": 27.383704500000093,
          "velocity": 0.7874015748031497,
          "duration": 0.1744185000000016
        },
        {
          "name": "C4",
          "midi": 60,
          "time": 27.558123000000094,
          "velocity": 0.7874015748031497,
          "duration": 0.1744185000000016
        },
        {
          "name": "C4",
          "midi": 60,
          "time": 27.732541500000096,
          "velocity": 0.7874015748031497,
          "duration": 0.1744185000000016
        },
        {
          "name": "C4",
          "midi": 60,
          "time": 27.906960000000097,
          "velocity": 0.7874015748031497,
          "duration": 0.1744185000000016
        },
        {
          "name": "C4",
          "midi": 60,
          "time": 28.0813785000001,
          "velocity": 0.7874015748031497,
          "duration": 0.1744185000000016
        },
        {
          "name": "D4",
          "midi": 62,
          "time": 28.2557970000001,
          "velocity": 0.7874015748031497,
          "duration": 0.1744185000000016
        },
        {
          "name": "D4",
          "midi": 62,
          "time": 28.430215500000102,
          "velocity": 0.7874015748031497,
          "duration": 0.1744185000000016
        },
        {
          "name": "D4",
          "midi": 62,
          "time": 28.604634000000104,
          "velocity": 0.7874015748031497,
          "duration": 0.1744185000000016
        },
        {
          "name": "C4",
          "midi": 60,
          "time": 28.779052500000105,
          "velocity": 0.7874015748031497,
          "duration": 0.1744185000000016
        },
        {
          "name": "C4",
          "midi": 60,
          "time": 28.953471000000107,
          "velocity": 0.7874015748031497,
          "duration": 0.1744185000000016
        },
        {
          "name": "C4",
          "midi": 60,
          "time": 29.12788950000011,
          "velocity": 0.7874015748031497,
          "duration": 0.1744185000000016
        },
        {
          "name": "C4",
          "midi": 60,
          "time": 29.30230800000011,
          "velocity": 0.7874015748031497,
          "duration": 0.1744185000000016
        },
        {
          "name": "D4",
          "midi": 62,
          "time": 29.47672650000011,
          "velocity": 0.7874015748031497,
          "duration": 0.1744185000000016
        },
        {
          "name": "C4",
          "midi": 60,
          "time": 29.651145000000113,
          "velocity": 0.7874015748031497,
          "duration": 0.0872092500000008
        },
        {
          "name": "C4",
          "midi": 60,
          "time": 29.825563500000115,
          "velocity": 0.7874015748031497,
          "duration": 0.1744185000000016
        },
        {
          "name": "C4",
          "midi": 60,
          "time": 29.999982000000116,
          "velocity": 0.7874015748031497,
          "duration": 0.6976739999999992
        },
        {
          "name": "D4",
          "midi": 62,
          "time": 30.697656000000116,
          "velocity": 0.7874015748031497,
          "duration": 0.6976739999999992
        },
        {
          "name": "C4",
          "midi": 60,
          "time": 31.395330000000115,
          "velocity": 0.7874015748031497,
          "duration": 0.6976739999999992
        },
        {
          "name": "C4",
          "midi": 60,
          "time": 32.093004000000114,
          "velocity": 0.7874015748031497,
          "duration": 0.0872092500000008
        },
        {
          "name": "D4",
          "midi": 62,
          "time": 32.093004000000114,
          "velocity": 0.7874015748031497,
          "duration": 0.6976740000000063
        },
        {
          "name": "C4",
          "midi": 60,
          "time": 32.44184100000012,
          "velocity": 0.7874015748031497,
          "duration": 0.0872092500000008
        },
        {
          "name": "D4",
          "midi": 62,
          "time": 32.79067800000012,
          "velocity": 0.7874015748031497,
          "duration": 0.0872092500000008
        },
        {
          "name": "C4",
          "midi": 60,
          "time": 32.79067800000012,
          "velocity": 0.7874015748031497,
          "duration": 0.6976740000000063
        },
        {
          "name": "D4",
          "midi": 62,
          "time": 33.139515000000124,
          "velocity": 0.7874015748031497,
          "duration": 0.0872092500000008
        },
        {
          "name": "D4",
          "midi": 62,
          "time": 33.48835200000013,
          "velocity": 0.7874015748031497,
          "duration": 0.6976739999999992
        },
        {
          "name": "C4",
          "midi": 60,
          "time": 33.48835200000013,
          "velocity": 0.7874015748031497,
          "duration": 0.0872092500000008
        },
        {
          "name": "C4",
          "midi": 60,
          "time": 34.36044450000013,
          "velocity": 0.7874015748031497,
          "duration": 0.0872092500000008
        },
        {
          "name": "C4",
          "midi": 60,
          "time": 34.53486300000013,
          "velocity": 0.7874015748031497,
          "duration": 0.0872092500000008
        },
        {
          "name": "C4",
          "midi": 60,
          "time": 34.70928150000013,
          "velocity": 0.7874015748031497,
          "duration": 0.0872092500000008
        },
        {
          "name": "C4",
          "midi": 60,
          "time": 34.88370000000013,
          "velocity": 0.7874015748031497,
          "duration": 0.0872092500000008
        },
        {
          "name": "D4",
          "midi": 62,
          "time": 35.58137400000013,
          "velocity": 0.7874015748031497,
          "duration": 0.0872092500000008
        },
        {
          "name": "D4",
          "midi": 62,
          "time": 35.75579250000013,
          "velocity": 0.7874015748031497,
          "duration": 0.0872092500000008
        },
        {
          "name": "D4",
          "midi": 62,
          "time": 35.930211000000135,
          "velocity": 0.7874015748031497,
          "duration": 0.0872092500000008
        },
        {
          "name": "D4",
          "midi": 62,
          "time": 36.10462950000014,
          "velocity": 0.7874015748031497,
          "duration": 0.0872092500000008
        },
        {
          "name": "C4",
          "midi": 60,
          "time": 36.27904800000014,
          "velocity": 0.7874015748031497,
          "duration": 0.0872092500000008
        },
        {
          "name": "C4",
          "midi": 60,
          "time": 37.15114050000014,
          "velocity": 0.7874015748031497,
          "duration": 0.0872092500000008
        },
        {
          "name": "C4",
          "midi": 60,
          "time": 37.32555900000014,
          "velocity": 0.7874015748031497,
          "duration": 0.0872092500000008
        },
        {
          "name": "C4",
          "midi": 60,
          "time": 37.49997750000014,
          "velocity": 0.7874015748031497,
          "duration": 0.0872092500000008
        },
        {
          "name": "C4",
          "midi": 60,
          "time": 37.674396000000144,
          "velocity": 0.7874015748031497,
          "duration": 0.0872092500000008
        },
        {
          "name": "C4",
          "midi": 60,
          "time": 38.19765150000014,
          "velocity": 0.7874015748031497,
          "duration": 0.0872092500000008
        },
        {
          "name": "C4",
          "midi": 60,
          "time": 38.37207000000014,
          "velocity": 0.7874015748031497,
          "duration": 0.0872092500000008
        },
        {
          "name": "C4",
          "midi": 60,
          "time": 38.546488500000144,
          "velocity": 0.7874015748031497,
          "duration": 0.0872092500000008
        },
        {
          "name": "D4",
          "midi": 62,
          "time": 38.720907000000146,
          "velocity": 0.7874015748031497,
          "duration": 0.0872092500000008
        },
        {
          "name": "D4",
          "midi": 62,
          "time": 38.89532550000015,
          "velocity": 0.7874015748031497,
          "duration": 0.0872092500000008
        },
        {
          "name": "C4",
          "midi": 60,
          "time": 39.06974400000015,
          "velocity": 0.7874015748031497,
          "duration": 0.0872092500000008
        },
        {
          "name": "C4",
          "midi": 60,
          "time": 39.94183650000015,
          "velocity": 0.7874015748031497,
          "duration": 0.0872092500000008
        },
        {
          "name": "C4",
          "midi": 60,
          "time": 40.11625500000015,
          "velocity": 0.7874015748031497,
          "duration": 0.0872092500000008
        },
        {
          "name": "C4",
          "midi": 60,
          "time": 40.29067350000015,
          "velocity": 0.7874015748031497,
          "duration": 0.0872092500000008
        },
        {
          "name": "C4",
          "midi": 60,
          "time": 40.465092000000155,
          "velocity": 0.7874015748031497,
          "duration": 0.0872092500000008
        },
        {
          "name": "D4",
          "midi": 62,
          "time": 41.162766000000154,
          "velocity": 0.7874015748031497,
          "duration": 0.0872092500000008
        },
        {
          "name": "D4",
          "midi": 62,
          "time": 41.337184500000156,
          "velocity": 0.7874015748031497,
          "duration": 0.0872092500000008
        },
        {
          "name": "D4",
          "midi": 62,
          "time": 41.51160300000016,
          "velocity": 0.7874015748031497,
          "duration": 0.0872092500000008
        },
        {
          "name": "D4",
          "midi": 62,
          "time": 41.68602150000016,
          "velocity": 0.7874015748031497,
          "duration": 0.0872092500000008
        },
        {
          "name": "C4",
          "midi": 60,
          "time": 41.86044000000016,
          "velocity": 0.7874015748031497,
          "duration": 0.0872092500000008
        },
        {
          "name": "C4",
          "midi": 60,
          "time": 42.209277000000164,
          "velocity": 0.7874015748031497,
          "duration": 0.0872092500000008
        },
        {
          "name": "C4",
          "midi": 60,
          "time": 42.383695500000165,
          "velocity": 0.7874015748031497,
          "duration": 0.0872092500000008
        },
        {
          "name": "C4",
          "midi": 60,
          "time": 42.55811400000017,
          "velocity": 0.7874015748031497,
          "duration": 0.0872092500000008
        },
        {
          "name": "C4",
          "midi": 60,
          "time": 42.73253250000017,
          "velocity": 0.7874015748031497,
          "duration": 0.0872092500000008
        },
        {
          "name": "C4",
          "midi": 60,
          "time": 42.90695100000017,
          "velocity": 0.7874015748031497,
          "duration": 0.0872092500000008
        },
        {
          "name": "C4",
          "midi": 60,
          "time": 43.08136950000017,
          "velocity": 0.7874015748031497,
          "duration": 0.0872092500000008
        },
        {
          "name": "D4",
          "midi": 62,
          "time": 43.25578800000017,
          "velocity": 0.7874015748031497,
          "duration": 0.0872092500000008
        },
        {
          "name": "D4",
          "midi": 62,
          "time": 43.430206500000175,
          "velocity": 0.7874015748031497,
          "duration": 0.0872092500000008
        },
        {
          "name": "D4",
          "midi": 62,
          "time": 43.604625000000176,
          "velocity": 0.7874015748031497,
          "duration": 0.0872092500000008
        },
        {
          "name": "D4",
          "midi": 62,
          "time": 43.77904350000018,
          "velocity": 0.7874015748031497,
          "duration": 0.0872092500000008
        },
        {
          "name": "C4",
          "midi": 60,
          "time": 43.95346200000018,
          "velocity": 0.7874015748031497,
          "duration": 0.3488370000000032
        },
        {
          "name": "C4",
          "midi": 60,
          "time": 44.30229900000018,
          "velocity": 0.7874015748031497,
          "duration": 0.3488370000000032
        },
        {
          "name": "D4",
          "midi": 62,
          "time": 46.74415800000018,
          "velocity": 0.7874015748031497,
          "duration": 0.0872092500000008
        },
        {
          "name": "C4",
          "midi": 60,
          "time": 47.09299500000019,
          "velocity": 0.7874015748031497,
          "duration": 0.0872092500000008
        },
        {
          "name": "C4",
          "midi": 60,
          "time": 49.70927250000019,
          "velocity": 0.7874015748031497,
          "duration": 0.0872092500000008
        },
        {
          "name": "D4",
          "midi": 62,
          "time": 49.88369100000019,
          "velocity": 0.7874015748031497,
          "duration": 0.0872092500000008
        },
        {
          "name": "D4",
          "midi": 62,
          "time": 50.232528000000194,
          "velocity": 0.7874015748031497,
          "duration": 0.0872092500000008
        },
        {
          "name": "D4",
          "midi": 62,
          "time": 52.32555000000019,
          "velocity": 0.7874015748031497,
          "duration": 0.0872092500000008
        },
        {
          "name": "D4",
          "midi": 62,
          "time": 52.49996850000019,
          "velocity": 0.7874015748031497,
          "duration": 0.0872092500000008
        },
        {
          "name": "C4",
          "midi": 60,
          "time": 52.674387000000195,
          "velocity": 0.7874015748031497,
          "duration": 0.0872092500000008
        },
        {
          "name": "C4",
          "midi": 60,
          "time": 52.848805500000196,
          "velocity": 0.7874015748031497,
          "duration": 0.0872092500000008
        },
        {
          "name": "D4",
          "midi": 62,
          "time": 53.0232240000002,
          "velocity": 0.7874015748031497,
          "duration": 0.0872092500000008
        },
        {
          "name": "D4",
          "midi": 62,
          "time": 55.116246000000196,
          "velocity": 0.7874015748031497,
          "duration": 0.0872092500000008
        },
        {
          "name": "D4",
          "midi": 62,
          "time": 55.2034552500002,
          "velocity": 0.7874015748031497,
          "duration": 0.0872092500000008
        },
        {
          "name": "C4",
          "midi": 60,
          "time": 55.2906645000002,
          "velocity": 0.7874015748031497,
          "duration": 0.0872092500000008
        },
        {
          "name": "D4",
          "midi": 62,
          "time": 55.4650830000002,
          "velocity": 0.7874015748031497,
          "duration": 0.0872092500000008
        },
        {
          "name": "C4",
          "midi": 60,
          "time": 55.6395015000002,
          "velocity": 0.7874015748031497,
          "duration": 0.0872092500000008
        },
        {
          "name": "D4",
          "midi": 62,
          "time": 55.8139200000002,
          "velocity": 0.7874015748031497,
          "duration": 2.005812750000004
        },
        {
          "name": "C4",
          "midi": 60,
          "time": 55.8139200000002,
          "velocity": 0.7874015748031497,
          "duration": 0.0872092500000008
        },
        {
          "name": "C4",
          "midi": 60,
          "time": 56.6860125000002,
          "velocity": 0.7874015748031497,
          "duration": 0.0872092500000008
        },
        {
          "name": "C4",
          "midi": 60,
          "time": 56.860431000000204,
          "velocity": 0.7874015748031497,
          "duration": 0.0872092500000008
        },
        {
          "name": "C4",
          "midi": 60,
          "time": 57.034849500000206,
          "velocity": 0.7874015748031497,
          "duration": 0.0872092500000008
        },
        {
          "name": "C4",
          "midi": 60,
          "time": 57.20926800000021,
          "velocity": 0.7874015748031497,
          "duration": 0.0872092500000008
        },
        {
          "name": "C4",
          "midi": 60,
          "time": 57.90694200000021,
          "velocity": 0.7874015748031497,
          "duration": 0.0872092500000008
        },
        {
          "name": "D4",
          "midi": 62,
          "time": 57.90694200000021,
          "velocity": 0.7874015748031497,
          "duration": 0.6104647500000056
        },
        {
          "name": "C4",
          "midi": 60,
          "time": 58.08136050000021,
          "velocity": 0.7874015748031497,
          "duration": 0.0872092500000008
        },
        {
          "name": "C4",
          "midi": 60,
          "time": 58.25577900000021,
          "velocity": 0.7874015748031497,
          "duration": 0.0872092500000008
        },
        {
          "name": "C4",
          "midi": 60,
          "time": 58.43019750000021,
          "velocity": 0.7874015748031497,
          "duration": 0.0872092500000008
        },
        {
          "name": "D4",
          "midi": 62,
          "time": 58.60461600000021,
          "velocity": 0.7874015748031497,
          "duration": 2.354649750000007
        },
        {
          "name": "C4",
          "midi": 60,
          "time": 58.60461600000021,
          "velocity": 0.7874015748031497,
          "duration": 0.0872092500000008
        },
        {
          "name": "C4",
          "midi": 60,
          "time": 59.476708500000214,
          "velocity": 0.7874015748031497,
          "duration": 0.0872092500000008
        },
        {
          "name": "C4",
          "midi": 60,
          "time": 59.651127000000216,
          "velocity": 0.7874015748031497,
          "duration": 0.0872092500000008
        },
        {
          "name": "C4",
          "midi": 60,
          "time": 59.82554550000022,
          "velocity": 0.7874015748031497,
          "duration": 0.0872092500000008
        },
        {
          "name": "C4",
          "midi": 60,
          "time": 59.99996400000022,
          "velocity": 0.7874015748031497,
          "duration": 0.0872092500000008
        },
        {
          "name": "C4",
          "midi": 60,
          "time": 60.523219500000216,
          "velocity": 0.7874015748031497,
          "duration": 0.0872092500000008
        },
        {
          "name": "C4",
          "midi": 60,
          "time": 60.69763800000022,
          "velocity": 0.7874015748031497,
          "duration": 0.0872092500000008
        },
        {
          "name": "C4",
          "midi": 60,
          "time": 60.87205650000022,
          "velocity": 0.7874015748031497,
          "duration": 0.0872092500000008
        },
        {
          "name": "D4",
          "midi": 62,
          "time": 61.04647500000022,
          "velocity": 0.7874015748031497,
          "duration": 0.2616277500000024
        },
        {
          "name": "C4",
          "midi": 60,
          "time": 61.04647500000022,
          "velocity": 0.7874015748031497,
          "duration": 0.0872092500000008
        },
        {
          "name": "C4",
          "midi": 60,
          "time": 61.22089350000022,
          "velocity": 0.7874015748031497,
          "duration": 0.0872092500000008
        },
        {
          "name": "D4",
          "midi": 62,
          "time": 61.395312000000224,
          "velocity": 0.7874015748031497,
          "duration": 0.0872092500000008
        },
        {
          "name": "C4",
          "midi": 60,
          "time": 61.395312000000224,
          "velocity": 0.7874015748031497,
          "duration": 2.005812750000004
        },
        {
          "name": "D4",
          "midi": 62,
          "time": 62.267404500000225,
          "velocity": 0.7874015748031497,
          "duration": 0.0872092500000008
        },
        {
          "name": "D4",
          "midi": 62,
          "time": 62.44182300000023,
          "velocity": 0.7874015748031497,
          "duration": 0.0872092500000008
        },
        {
          "name": "D4",
          "midi": 62,
          "time": 62.61624150000023,
          "velocity": 0.7874015748031497,
          "duration": 0.0872092500000008
        },
        {
          "name": "D4",
          "midi": 62,
          "time": 62.79066000000023,
          "velocity": 0.7874015748031497,
          "duration": 0.0872092500000008
        },
        {
          "name": "C4",
          "midi": 60,
          "time": 63.48833400000023,
          "velocity": 0.7874015748031497,
          "duration": 0.6104647499999984
        },
        {
          "name": "D4",
          "midi": 62,
          "time": 63.48833400000023,
          "velocity": 0.7874015748031497,
          "duration": 0.0872092500000008
        },
        {
          "name": "D4",
          "midi": 62,
          "time": 63.66275250000023,
          "velocity": 0.7874015748031497,
          "duration": 0.0872092500000008
        },
        {
          "name": "D4",
          "midi": 62,
          "time": 63.83717100000023,
          "velocity": 0.7874015748031497,
          "duration": 0.0872092500000008
        },
        {
          "name": "D4",
          "midi": 62,
          "time": 64.01158950000023,
          "velocity": 0.7874015748031497,
          "duration": 0.0872092500000008
        },
        {
          "name": "D4",
          "midi": 62,
          "time": 64.18600800000023,
          "velocity": 0.7874015748031497,
          "duration": 0.0872092500000008
        },
        {
          "name": "C4",
          "midi": 60,
          "time": 64.18600800000023,
          "velocity": 0.7874015748031497,
          "duration": 1.308138750000012
        },
        {
          "name": "D4",
          "midi": 62,
          "time": 64.53484500000023,
          "velocity": 0.7874015748031497,
          "duration": 0.0872092500000008
        },
        {
          "name": "D4",
          "midi": 62,
          "time": 64.70926350000023,
          "velocity": 0.7874015748031497,
          "duration": 0.0872092500000008
        },
        {
          "name": "D4",
          "midi": 62,
          "time": 64.88368200000023,
          "velocity": 0.7874015748031497,
          "duration": 0.0872092500000008
        },
        {
          "name": "D4",
          "midi": 62,
          "time": 65.05810050000024,
          "velocity": 0.7874015748031497,
          "duration": 0.0872092500000008
        },
        {
          "name": "D4",
          "midi": 62,
          "time": 65.23251900000024,
          "velocity": 0.7874015748031497,
          "duration": 0.0872092500000008
        },
        {
          "name": "D4",
          "midi": 62,
          "time": 65.40693750000024,
          "velocity": 0.7874015748031497,
          "duration": 0.0872092500000008
        },
        {
          "name": "C4",
          "midi": 60,
          "time": 65.58135600000024,
          "velocity": 0.7874015748031497,
          "duration": 0.6104647500000056
        },
        {
          "name": "D4",
          "midi": 62,
          "time": 65.58135600000024,
          "velocity": 0.7874015748031497,
          "duration": 0.0872092500000008
        },
        {
          "name": "D4",
          "midi": 62,
          "time": 65.75577450000024,
          "velocity": 0.7874015748031497,
          "duration": 0.0872092500000008
        },
        {
          "name": "D4",
          "midi": 62,
          "time": 65.93019300000024,
          "velocity": 0.7874015748031497,
          "duration": 0.0872092500000008
        },
        {
          "name": "D4",
          "midi": 62,
          "time": 66.10461150000025,
          "velocity": 0.7874015748031497,
          "duration": 0.0872092500000008
        },
        {
          "name": "D4",
          "midi": 62,
          "time": 66.27903000000025,
          "velocity": 0.7874015748031497,
          "duration": 0.2616277500000024
        },
        {
          "name": "C4",
          "midi": 60,
          "time": 66.27903000000025,
          "velocity": 0.7874015748031497,
          "duration": 0.6104647500000056
        },
        {
          "name": "D4",
          "midi": 62,
          "time": 66.62786700000025,
          "velocity": 0.7874015748031497,
          "duration": 0.2616277500000024
        },
        {
          "name": "C4",
          "midi": 60,
          "time": 66.97670400000025,
          "velocity": 0.7874015748031497,
          "duration": 0.6976740000000063
        },
        {
          "name": "D4",
          "midi": 62,
          "time": 67.67437800000026,
          "velocity": 0.7874015748031497,
          "duration": 0.1744185000000016
        },
        {
          "name": "D4",
          "midi": 62,
          "time": 67.84879650000026,
          "velocity": 0.7874015748031497,
          "duration": 0.1744185000000016
        },
        {
          "name": "C4",
          "midi": 60,
          "time": 68.02321500000026,
          "velocity": 0.7874015748031497,
          "duration": 0.1744185000000016
        },
        {
          "name": "C4",
          "midi": 60,
          "time": 68.19763350000026,
          "velocity": 0.7874015748031497,
          "duration": 0.1744185000000016
        },
        {
          "name": "C4",
          "midi": 60,
          "time": 68.37205200000027,
          "velocity": 0.7874015748031497,
          "duration": 0.1744185000000016
        },
        {
          "name": "C4",
          "midi": 60,
          "time": 68.72088900000027,
          "velocity": 0.7874015748031497,
          "duration": 0.0872092500000008
        },
        {
          "name": "C4",
          "midi": 60,
          "time": 68.89530750000027,
          "velocity": 0.7874015748031497,
          "duration": 0.0872092500000008
        },
        {
          "name": "D4",
          "midi": 62,
          "time": 69.06972600000027,
          "velocity": 0.7874015748031497,
          "duration": 0.0872092500000008
        },
        {
          "name": "C4",
          "midi": 60,
          "time": 69.24414450000027,
          "velocity": 0.7874015748031497,
          "duration": 0.0872092500000008
        },
        {
          "name": "C4",
          "midi": 60,
          "time": 69.41856300000028,
          "velocity": 0.7874015748031497,
          "duration": 0.1744185000000016
        },
        {
          "name": "D4",
          "midi": 62,
          "time": 69.59298150000028,
          "velocity": 0.7874015748031497,
          "duration": 0.1744185000000016
        },
        {
          "name": "C4",
          "midi": 60,
          "time": 69.76740000000028,
          "velocity": 0.7874015748031497,
          "duration": 0.0872092500000008
        },
        {
          "name": "C4",
          "midi": 60,
          "time": 70.11623700000028,
          "velocity": 0.7874015748031497,
          "duration": 0.0872092500000008
        },
        {
          "name": "C4",
          "midi": 60,
          "time": 70.29065550000028,
          "velocity": 0.7874015748031497,
          "duration": 0.0872092500000008
        },
        {
          "name": "D4",
          "midi": 62,
          "time": 70.46507400000029,
          "velocity": 0.7874015748031497,
          "duration": 0.0872092500000008
        },
        {
          "name": "C4",
          "midi": 60,
          "time": 70.63949250000029,
          "velocity": 0.7874015748031497,
          "duration": 0.0872092500000008
        },
        {
          "name": "C4",
          "midi": 60,
          "time": 70.81391100000029,
          "velocity": 0.7874015748031497,
          "duration": 0.1744185000000016
        },
        {
          "name": "D4",
          "midi": 62,
          "time": 70.98832950000029,
          "velocity": 0.7874015748031497,
          "duration": 0.1744185000000016
        },
        {
          "name": "C4",
          "midi": 60,
          "time": 71.16274800000029,
          "velocity": 0.7874015748031497,
          "duration": 0.6976740000000063
        },
        {
          "name": "D4",
          "midi": 62,
          "time": 71.8604220000003,
          "velocity": 0.7874015748031497,
          "duration": 0.1744185000000016
        },
        {
          "name": "D4",
          "midi": 62,
          "time": 72.0348405000003,
          "velocity": 0.7874015748031497,
          "duration": 0.1744185000000016
        },
        {
          "name": "C4",
          "midi": 60,
          "time": 72.2092590000003,
          "velocity": 0.7874015748031497,
          "duration": 0.1744185000000016
        },
        {
          "name": "C4",
          "midi": 60,
          "time": 72.3836775000003,
          "velocity": 0.7874015748031497,
          "duration": 0.1744185000000016
        },
        {
          "name": "C4",
          "midi": 60,
          "time": 72.5580960000003,
          "velocity": 0.7874015748031497,
          "duration": 0.1744185000000016
        },
        {
          "name": "C4",
          "midi": 60,
          "time": 72.7325145000003,
          "velocity": 0.7874015748031497,
          "duration": 0.1744185000000016
        },
        {
          "name": "D4",
          "midi": 62,
          "time": 72.90693300000031,
          "velocity": 0.7874015748031497,
          "duration": 0.1744185000000016
        },
        {
          "name": "D4",
          "midi": 62,
          "time": 73.08135150000031,
          "velocity": 0.7874015748031497,
          "duration": 0.1744185000000016
        },
        {
          "name": "D4",
          "midi": 62,
          "time": 73.25577000000031,
          "velocity": 0.7874015748031497,
          "duration": 0.1744185000000016
        },
        {
          "name": "C4",
          "midi": 60,
          "time": 73.43018850000031,
          "velocity": 0.7874015748031497,
          "duration": 0.1744185000000016
        },
        {
          "name": "C4",
          "midi": 60,
          "time": 73.60460700000031,
          "velocity": 0.7874015748031497,
          "duration": 0.1744185000000016
        },
        {
          "name": "C4",
          "midi": 60,
          "time": 73.77902550000032,
          "velocity": 0.7874015748031497,
          "duration": 0.1744185000000016
        },
        {
          "name": "C4",
          "midi": 60,
          "time": 73.95344400000032,
          "velocity": 0.7874015748031497,
          "duration": 0.1744185000000016
        },
        {
          "name": "D4",
          "midi": 62,
          "time": 74.12786250000032,
          "velocity": 0.7874015748031497,
          "duration": 0.1744185000000016
        },
        {
          "name": "C4",
          "midi": 60,
          "time": 74.30228100000032,
          "velocity": 0.7874015748031497,
          "duration": 0.0872092500000008
        },
        {
          "name": "C4",
          "midi": 60,
          "time": 74.47669950000032,
          "velocity": 0.7874015748031497,
          "duration": 0.1744185000000016
        },
        {
          "name": "C4",
          "midi": 60,
          "time": 74.65111800000032,
          "velocity": 0.7874015748031497,
          "duration": 0.6976740000000063
        },
        {
          "name": "D4",
          "midi": 62,
          "time": 75.34879200000033,
          "velocity": 0.7874015748031497,
          "duration": 0.6976740000000063
        },
        {
          "name": "C4",
          "midi": 60,
          "time": 76.04646600000034,
          "velocity": 0.7874015748031497,
          "duration": 0.6976740000000063
        },
        {
          "name": "D4",
          "midi": 62,
          "time": 76.74414000000034,
          "velocity": 0.7874015748031497,
          "duration": 0.6976740000000063
        },
        {
          "name": "C4",
          "midi": 60,
          "time": 77.44181400000035,
          "velocity": 0.7874015748031497,
          "duration": 0.6976740000000063
        },
        {
          "name": "D4",
          "midi": 62,
          "time": 78.13948800000036,
          "velocity": 0.7874015748031497,
          "duration": 1.3953479999999985
        }
      ],
      "controlChanges": {},
      "id": 1,
      "name": "lo-fi-short-snare_B_minor 1",
      "channelNumber": 0,
      "isPercussion": false
    }
  ]
}