{
  "header": {
    "PPQ": 96,
    "bpm": 135.000135000135,
    "timeSignature": [
      4,
      4
    ],
    "name": ""
  },
  "tempo": [
    {
      "absoluteTime": 0,
      "seconds": 0,
      "bpm": 135.000135000135
    }
  ],
  "timeSignature": [
    {
      "absoluteTime": 0,
      "seconds": 0,
      "numerator": 4,
      "denominator": 2,
      "click": 24,
      "notesQ": 8
    }
  ],
  "startTime": 0,
  "duration": 142.2220799999978,
  "tracks": [
    {
      "startTime": 0,
      "duration": 0,
      "length": 0,
      "notes": [],
      "controlChanges": {},
      "id": 0
    },
    {
      "startTime": 3.555552,
      "duration": 142.2220799999978,
      "length": 620,
      "notes": [
        {
          "name": "D4",
          "midi": 62,
          "time": 3.555552,
          "velocity": 0.7874015748031497,
          "duration": 0.11111100000000018
        },
        {
          "name": "D4",
          "midi": 62,
          "time": 3.9999960000000003,
          "velocity": 0.7874015748031497,
          "duration": 0.11111100000000018
        },
        {
          "name": "C4",
          "midi": 60,
          "time": 4.888884000000001,
          "velocity": 0.7874015748031497,
          "duration": 0.11111100000000018
        },
        {
          "name": "D4",
          "midi": 62,
          "time": 4.999995000000001,
          "velocity": 0.7874015748031497,
          "duration": 0.11111100000000018
        },
        {
          "name": "C4",
          "midi": 60,
          "time": 5.111106000000001,
          "velocity": 0.7874015748031497,
          "duration": 0.11111100000000018
        },
        {
          "name": "D4",
          "midi": 62,
          "time": 5.222217000000001,
          "velocity": 0.7874015748031497,
          "duration": 0.11111100000000018
        },
        {
          "name": "C4",
          "midi": 60,
          "time": 5.333328000000002,
          "velocity": 0.7874015748031497,
          "duration": 0.11111100000000018
        },
        {
          "name": "F4",
          "midi": 65,
          "time": 5.333328000000002,
          "velocity": 0.7874015748031497,
          "duration": 5.333327999999998
        },
        {
          "name": "C4",
          "midi": 60,
          "time": 7.111104000000002,
          "velocity": 0.7874015748031497,
          "duration": 0.11111100000000018
        },
        {
          "name": "C4",
          "midi": 60,
          "time": 7.555548000000002,
          "velocity": 0.7874015748031497,
          "duration": 0.11111100000000018
        },
        {
          "name": "C4",
          "midi": 60,
          "time": 10.222212000000003,
          "velocity": 0.7874015748031497,
          "duration": 0.1111109999999993
        },
        {
          "name": "C4",
          "midi": 61,
          "time": 10.333323000000002,
          "velocity": 0.7874015748031497,
          "duration": 0.1111109999999993
        },
        {
          "name": "C4",
          "midi": 60,
          "time": 10.444434000000001,
          "velocity": 0.7874015748031497,
          "duration": 0.1111109999999993
        },
        {
          "name": "C4",
          "midi": 61,
          "time": 10.555545,
          "velocity": 0.7874015748031497,
          "duration": 0.1111109999999993
        },
        {
          "name": "C4",
          "midi": 60,
          "time": 10.666656,
          "velocity": 0.7874015748031497,
          "duration": 0.1111109999999993
        },
        {
          "name": "E4",
          "midi": 64,
          "time": 10.666656,
          "velocity": 0.7874015748031497,
          "duration": 3.555551999999988
        },
        {
          "name": "C4",
          "midi": 60,
          "time": 11.111099999999999,
          "velocity": 0.7874015748031497,
          "duration": 0.1111109999999993
        },
        {
          "name": "C4",
          "midi": 60,
          "time": 11.555543999999998,
          "velocity": 0.7874015748031497,
          "duration": 0.1111109999999993
        },
        {
          "name": "C4",
          "midi": 60,
          "time": 11.666654999999997,
          "velocity": 0.7874015748031497,
          "duration": 0.1111109999999993
        },
        {
          "name": "C4",
          "midi": 60,
          "time": 11.999987999999997,
          "velocity": 0.7874015748031497,
          "duration": 0.1111109999999993
        },
        {
          "name": "C4",
          "midi": 60,
          "time": 12.444431999999995,
          "velocity": 0.7874015748031497,
          "duration": 0.1111109999999993
        },
        {
          "name": "C4",
          "midi": 60,
          "time": 12.555542999999995,
          "velocity": 0.7874015748031497,
          "duration": 0.1111109999999993
        },
        {
          "name": "C4",
          "midi": 60,
          "time": 12.888875999999994,
          "velocity": 0.7874015748031497,
          "duration": 0.1111109999999993
        },
        {
          "name": "C4",
          "midi": 60,
          "time": 12.999986999999994,
          "velocity": 0.7874015748031497,
          "duration": 0.1111109999999993
        },
        {
          "name": "C4",
          "midi": 60,
          "time": 13.333319999999993,
          "velocity": 0.7874015748031497,
          "duration": 0.1111109999999993
        },
        {
          "name": "D4",
          "midi": 62,
          "time": 13.444430999999993,
          "velocity": 0.7874015748031497,
          "duration": 0.1111109999999993
        },
        {
          "name": "C4",
          "midi": 60,
          "time": 13.555541999999992,
          "velocity": 0.7874015748031497,
          "duration": 0.1111109999999993
        },
        {
          "name": "D4",
          "midi": 62,
          "time": 13.666652999999991,
          "velocity": 0.7874015748031497,
          "duration": 0.1111109999999993
        },
        {
          "name": "C4",
          "midi": 60,
          "time": 13.77776399999999,
          "velocity": 0.7874015748031497,
          "duration": 0.1111109999999993
        },
        {
          "name": "D4",
          "midi": 62,
          "time": 13.88887499999999,
          "velocity": 0.7874015748031497,
          "duration": 0.1111109999999993
        },
        {
          "name": "C4",
          "midi": 60,
          "time": 13.99998599999999,
          "velocity": 0.7874015748031497,
          "duration": 0.1111109999999993
        },
        {
          "name": "D4",
          "midi": 62,
          "time": 14.111096999999988,
          "velocity": 0.7874015748031497,
          "duration": 0.1111109999999993
        },
        {
          "name": "F4",
          "midi": 65,
          "time": 14.222207999999988,
          "velocity": 0.7874015748031497,
          "duration": 5.333328000000005
        },
        {
          "name": "C4",
          "midi": 60,
          "time": 14.222207999999988,
          "velocity": 0.7874015748031497,
          "duration": 0.1111109999999993
        },
        {
          "name": "C4",
          "midi": 60,
          "time": 14.666651999999987,
          "velocity": 0.7874015748031497,
          "duration": 0.1111109999999993
        },
        {
          "name": "C4",
          "midi": 60,
          "time": 17.777759999999986,
          "velocity": 0.7874015748031497,
          "duration": 0.11111100000000107
        },
        {
          "name": "C4",
          "midi": 60,
          "time": 18.222203999999987,
          "velocity": 0.7874015748031497,
          "duration": 0.11111100000000107
        },
        {
          "name": "C4",
          "midi": 60,
          "time": 19.11109199999999,
          "velocity": 0.7874015748031497,
          "duration": 0.11111100000000107
        },
        {
          "name": "D4",
          "midi": 62,
          "time": 19.22220299999999,
          "velocity": 0.7874015748031497,
          "duration": 0.11111100000000107
        },
        {
          "name": "C4",
          "midi": 60,
          "time": 19.33331399999999,
          "velocity": 0.7874015748031497,
          "duration": 0.11111100000000107
        },
        {
          "name": "D4",
          "midi": 62,
          "time": 19.444424999999992,
          "velocity": 0.7874015748031497,
          "duration": 0.11111100000000107
        },
        {
          "name": "C4",
          "midi": 60,
          "time": 19.555535999999993,
          "velocity": 0.7874015748031497,
          "duration": 0.11111100000000107
        },
        {
          "name": "E4",
          "midi": 64,
          "time": 19.555535999999993,
          "velocity": 0.7874015748031497,
          "duration": 3.555552000000006
        },
        {
          "name": "C4",
          "midi": 60,
          "time": 19.999979999999994,
          "velocity": 0.7874015748031497,
          "duration": 0.11111100000000107
        },
        {
          "name": "C4",
          "midi": 60,
          "time": 21.333311999999996,
          "velocity": 0.7874015748031497,
          "duration": 0.11111100000000107
        },
        {
          "name": "C4",
          "midi": 60,
          "time": 21.777755999999997,
          "velocity": 0.7874015748031497,
          "duration": 0.11111100000000107
        },
        {
          "name": "D4",
          "midi": 62,
          "time": 23.111088,
          "velocity": 0.7874015748031497,
          "duration": 0.8888880000000015
        },
        {
          "name": "E4",
          "midi": 64,
          "time": 23.999976,
          "velocity": 0.7874015748031497,
          "duration": 0.8888880000000015
        },
        {
          "name": "C4",
          "midi": 60,
          "time": 24.888864,
          "velocity": 0.7874015748031497,
          "duration": 0.11111100000000107
        },
        {
          "name": "F4",
          "midi": 65,
          "time": 24.888864,
          "velocity": 0.7874015748031497,
          "duration": 1.777776000000003
        },
        {
          "name": "C4",
          "midi": 60,
          "time": 25.333308000000002,
          "velocity": 0.7874015748031497,
          "duration": 0.11111100000000107
        },
        {
          "name": "C4",
          "midi": 60,
          "time": 26.666640000000005,
          "velocity": 0.7874015748031497,
          "duration": 0.11111100000000107
        },
        {
          "name": "D4",
          "midi": 62,
          "time": 26.777751000000006,
          "velocity": 0.7874015748031497,
          "duration": 0.11111100000000107
        },
        {
          "name": "E4",
          "midi": 64,
          "time": 26.888862000000007,
          "velocity": 0.7874015748031497,
          "duration": 0.11111100000000107
        },
        {
          "name": "F4",
          "midi": 65,
          "time": 26.999973000000008,
          "velocity": 0.7874015748031497,
          "duration": 0.11111100000000107
        },
        {
          "name": "C4",
          "midi": 60,
          "time": 27.11108400000001,
          "velocity": 0.7874015748031497,
          "duration": 0.11111100000000107
        },
        {
          "name": "D4",
          "midi": 62,
          "time": 27.22219500000001,
          "velocity": 0.7874015748031497,
          "duration": 0.11111100000000107
        },
        {
          "name": "E4",
          "midi": 64,
          "time": 27.33330600000001,
          "velocity": 0.7874015748031497,
          "duration": 0.11111100000000107
        },
        {
          "name": "F4",
          "midi": 65,
          "time": 27.444417000000012,
          "velocity": 0.7874015748031497,
          "duration": 0.11111100000000107
        },
        {
          "name": "C4",
          "midi": 60,
          "time": 27.555528000000013,
          "velocity": 0.7874015748031497,
          "duration": 0.11111100000000107
        },
        {
          "name": "D4",
          "midi": 62,
          "time": 27.666639000000014,
          "velocity": 0.7874015748031497,
          "duration": 0.11111100000000107
        },
        {
          "name": "C4",
          "midi": 60,
          "time": 27.777750000000015,
          "velocity": 0.7874015748031497,
          "duration": 0.11111100000000107
        },
        {
          "name": "D4",
          "midi": 62,
          "time": 27.888861000000016,
          "velocity": 0.7874015748031497,
          "duration": 0.11111100000000107
        },
        {
          "name": "C4",
          "midi": 60,
          "time": 27.999972000000017,
          "velocity": 0.7874015748031497,
          "duration": 0.11111100000000107
        },
        {
          "name": "D4",
          "midi": 62,
          "time": 28.11108300000002,
          "velocity": 0.7874015748031497,
          "duration": 0.11111100000000107
        },
        {
          "name": "C4",
          "midi": 60,
          "time": 28.22219400000002,
          "velocity": 0.7874015748031497,
          "duration": 0.11111100000000107
        },
        {
          "name": "D4",
          "midi": 62,
          "time": 28.33330500000002,
          "velocity": 0.7874015748031497,
          "duration": 0.11111100000000107
        },
        {
          "name": "C4",
          "midi": 60,
          "time": 28.44441600000002,
          "velocity": 0.7874015748031497,
          "duration": 0.11111100000000107
        },
        {
          "name": "E4",
          "midi": 64,
          "time": 28.666638000000024,
          "velocity": 0.7874015748031497,
          "duration": 0.11111100000000107
        },
        {
          "name": "E4",
          "midi": 64,
          "time": 28.777749000000025,
          "velocity": 0.7874015748031497,
          "duration": 0.11111100000000107
        },
        {
          "name": "D4",
          "midi": 62,
          "time": 28.888860000000026,
          "velocity": 0.7874015748031497,
          "duration": 0.11111100000000107
        },
        {
          "name": "E4",
          "midi": 64,
          "time": 29.111082000000028,
          "velocity": 0.7874015748031497,
          "duration": 0.11111100000000107
        },
        {
          "name": "C4",
          "midi": 60,
          "time": 29.33330400000003,
          "velocity": 0.7874015748031497,
          "duration": 0.11111100000000107
        },
        {
          "name": "E4",
          "midi": 64,
          "time": 29.555526000000032,
          "velocity": 0.7874015748031497,
          "duration": 0.11111100000000107
        },
        {
          "name": "D4",
          "midi": 62,
          "time": 29.777748000000035,
          "velocity": 0.7874015748031497,
          "duration": 0.11111100000000107
        },
        {
          "name": "E4",
          "midi": 64,
          "time": 29.999970000000037,
          "velocity": 0.7874015748031497,
          "duration": 0.11111100000000107
        },
        {
          "name": "C4",
          "midi": 60,
          "time": 30.22219200000004,
          "velocity": 0.7874015748031497,
          "duration": 0.11111100000000107
        },
        {
          "name": "E4",
          "midi": 64,
          "time": 30.44441400000004,
          "velocity": 0.7874015748031497,
          "duration": 0.11111100000000107
        },
        {
          "name": "D4",
          "midi": 62,
          "time": 30.666636000000043,
          "velocity": 0.7874015748031497,
          "duration": 0.11111100000000107
        },
        {
          "name": "E4",
          "midi": 64,
          "time": 30.777747000000044,
          "velocity": 0.7874015748031497,
          "duration": 0.11111100000000107
        },
        {
          "name": "E4",
          "midi": 64,
          "time": 30.888858000000045,
          "velocity": 0.7874015748031497,
          "duration": 0.11111100000000107
        },
        {
          "name": "E4",
          "midi": 64,
          "time": 31.111080000000047,
          "velocity": 0.7874015748031497,
          "duration": 0.11111100000000107
        },
        {
          "name": "C4",
          "midi": 60,
          "time": 31.111080000000047,
          "velocity": 0.7874015748031497,
          "duration": 0.11111100000000107
        },
        {
          "name": "E4",
          "midi": 64,
          "time": 31.33330200000005,
          "velocity": 0.7874015748031497,
          "duration": 0.11111100000000107
        },
        {
          "name": "C4",
          "midi": 60,
          "time": 31.55552400000005,
          "velocity": 0.7874015748031497,
          "duration": 0.11111100000000107
        },
        {
          "name": "E4",
          "midi": 64,
          "time": 31.777746000000054,
          "velocity": 0.7874015748031497,
          "duration": 0.11111100000000107
        },
        {
          "name": "C4",
          "midi": 60,
          "time": 31.999968000000056,
          "velocity": 0.7874015748031497,
          "duration": 0.11111099999999752
        },
        {
          "name": "F4",
          "midi": 65,
          "time": 32.11107900000005,
          "velocity": 0.7874015748031497,
          "duration": 0.11111100000000107
        },
        {
          "name": "F4",
          "midi": 65,
          "time": 32.222190000000055,
          "velocity": 0.7874015748031497,
          "duration": 0.11111100000000107
        },
        {
          "name": "F4",
          "midi": 65,
          "time": 32.333301000000056,
          "velocity": 0.7874015748031497,
          "duration": 0.11111100000000107
        },
        {
          "name": "D4",
          "midi": 62,
          "time": 32.44441200000006,
          "velocity": 0.7874015748031497,
          "duration": 0.11111100000000107
        },
        {
          "name": "E4",
          "midi": 64,
          "time": 32.55552300000006,
          "velocity": 0.7874015748031497,
          "duration": 0.11111100000000107
        },
        {
          "name": "E4",
          "midi": 64,
          "time": 32.66663400000006,
          "velocity": 0.7874015748031497,
          "duration": 0.11111100000000107
        },
        {
          "name": "C4",
          "midi": 60,
          "time": 32.88885600000006,
          "velocity": 0.7874015748031497,
          "duration": 0.11111100000000107
        },
        {
          "name": "F4",
          "midi": 65,
          "time": 32.99996700000006,
          "velocity": 0.7874015748031497,
          "duration": 0.11111100000000107
        },
        {
          "name": "F4",
          "midi": 65,
          "time": 33.11107800000006,
          "velocity": 0.7874015748031497,
          "duration": 0.11111100000000107
        },
        {
          "name": "F4",
          "midi": 65,
          "time": 33.222189000000064,
          "velocity": 0.7874015748031497,
          "duration": 0.11111100000000107
        },
        {
          "name": "C4",
          "midi": 60,
          "time": 33.333300000000065,
          "velocity": 0.7874015748031497,
          "duration": 0.11111100000000107
        },
        {
          "name": "D4",
          "midi": 62,
          "time": 33.444411000000066,
          "velocity": 0.7874015748031497,
          "duration": 0.11111100000000107
        },
        {
          "name": "C4",
          "midi": 60,
          "time": 33.55552200000007,
          "velocity": 0.7874015748031497,
          "duration": 0.11111100000000107
        },
        {
          "name": "D4",
          "midi": 62,
          "time": 33.66663300000007,
          "velocity": 0.7874015748031497,
          "duration": 0.11111100000000107
        },
        {
          "name": "E4",
          "midi": 64,
          "time": 33.77774400000007,
          "velocity": 0.7874015748031497,
          "duration": 0.11111100000000107
        },
        {
          "name": "C4",
          "midi": 60,
          "time": 33.77774400000007,
          "velocity": 0.7874015748031497,
          "duration": 0.11111100000000107
        },
        {
          "name": "E4",
          "midi": 64,
          "time": 33.99996600000007,
          "velocity": 0.7874015748031497,
          "duration": 0.11111100000000107
        },
        {
          "name": "D4",
          "midi": 62,
          "time": 34.222188000000074,
          "velocity": 0.7874015748031497,
          "duration": 0.11111100000000107
        },
        {
          "name": "E4",
          "midi": 64,
          "time": 34.444410000000076,
          "velocity": 0.7874015748031497,
          "duration": 0.11111100000000107
        },
        {
          "name": "E4",
          "midi": 64,
          "time": 34.66663200000008,
          "velocity": 0.7874015748031497,
          "duration": 0.11111100000000107
        },
        {
          "name": "C4",
          "midi": 60,
          "time": 34.66663200000008,
          "velocity": 0.7874015748031497,
          "duration": 0.11111100000000107
        },
        {
          "name": "E4",
          "midi": 64,
          "time": 34.88885400000008,
          "velocity": 0.7874015748031497,
          "duration": 0.11111100000000107
        },
        {
          "name": "D4",
          "midi": 62,
          "time": 35.11107600000008,
          "velocity": 0.7874015748031497,
          "duration": 0.11111100000000107
        },
        {
          "name": "F4",
          "midi": 65,
          "time": 35.22218700000008,
          "velocity": 0.7874015748031497,
          "duration": 0.11111100000000107
        },
        {
          "name": "F4",
          "midi": 65,
          "time": 35.333298000000084,
          "velocity": 0.7874015748031497,
          "duration": 0.11111100000000107
        },
        {
          "name": "F4",
          "midi": 65,
          "time": 35.444409000000086,
          "velocity": 0.7874015748031497,
          "duration": 0.11111100000000107
        },
        {
          "name": "E4",
          "midi": 64,
          "time": 35.55552000000009,
          "velocity": 0.7874015748031497,
          "duration": 0.11111100000000107
        },
        {
          "name": "C4",
          "midi": 60,
          "time": 35.55552000000009,
          "velocity": 0.7874015748031497,
          "duration": 0.11111100000000107
        },
        {
          "name": "E4",
          "midi": 64,
          "time": 35.77774200000009,
          "velocity": 0.7874015748031497,
          "duration": 0.11111100000000107
        },
        {
          "name": "E4",
          "midi": 64,
          "time": 35.99996400000009,
          "velocity": 0.7874015748031497,
          "duration": 0.11111100000000107
        },
        {
          "name": "D4",
          "midi": 62,
          "time": 35.99996400000009,
          "velocity": 0.7874015748031497,
          "duration": 0.11111100000000107
        },
        {
          "name": "E4",
          "midi": 64,
          "time": 36.22218600000009,
          "velocity": 0.7874015748031497,
          "duration": 0.11111100000000107
        },
        {
          "name": "E4",
          "midi": 64,
          "time": 36.444408000000095,
          "velocity": 0.7874015748031497,
          "duration": 0.11111100000000107
        },
        {
          "name": "C4",
          "midi": 60,
          "time": 36.444408000000095,
          "velocity": 0.7874015748031497,
          "duration": 0.11111100000000107
        },
        {
          "name": "E4",
          "midi": 64,
          "time": 36.6666300000001,
          "velocity": 0.7874015748031497,
          "duration": 0.11111100000000107
        },
        {
          "name": "D4",
          "midi": 62,
          "time": 36.8888520000001,
          "velocity": 0.7874015748031497,
          "duration": 0.11111100000000107
        },
        {
          "name": "E4",
          "midi": 64,
          "time": 36.8888520000001,
          "velocity": 0.7874015748031497,
          "duration": 0.11111100000000107
        },
        {
          "name": "E4",
          "midi": 64,
          "time": 37.1110740000001,
          "velocity": 0.7874015748031497,
          "duration": 0.11111100000000107
        },
        {
          "name": "E4",
          "midi": 64,
          "time": 37.333296000000104,
          "velocity": 0.7874015748031497,
          "duration": 0.11111100000000107
        },
        {
          "name": "C4",
          "midi": 60,
          "time": 37.333296000000104,
          "velocity": 0.7874015748031497,
          "duration": 0.11111100000000107
        },
        {
          "name": "E4",
          "midi": 64,
          "time": 37.555518000000106,
          "velocity": 0.7874015748031497,
          "duration": 0.11111100000000107
        },
        {
          "name": "E4",
          "midi": 64,
          "time": 37.77774000000011,
          "velocity": 0.7874015748031497,
          "duration": 0.11111100000000107
        },
        {
          "name": "D4",
          "midi": 62,
          "time": 37.77774000000011,
          "velocity": 0.7874015748031497,
          "duration": 0.11111100000000107
        },
        {
          "name": "E4",
          "midi": 64,
          "time": 37.99996200000011,
          "velocity": 0.7874015748031497,
          "duration": 0.11111100000000107
        },
        {
          "name": "E4",
          "midi": 64,
          "time": 38.22218400000011,
          "velocity": 0.7874015748031497,
          "duration": 0.11111100000000107
        },
        {
          "name": "C4",
          "midi": 60,
          "time": 38.22218400000011,
          "velocity": 0.7874015748031497,
          "duration": 0.11111100000000107
        },
        {
          "name": "E4",
          "midi": 64,
          "time": 38.444406000000114,
          "velocity": 0.7874015748031497,
          "duration": 0.11111100000000107
        },
        {
          "name": "C4",
          "midi": 60,
          "time": 38.66662800000012,
          "velocity": 0.7874015748031497,
          "duration": 0.11111100000000107
        },
        {
          "name": "D4",
          "midi": 62,
          "time": 38.77773900000012,
          "velocity": 0.7874015748031497,
          "duration": 0.11111100000000107
        },
        {
          "name": "C4",
          "midi": 60,
          "time": 38.88885000000012,
          "velocity": 0.7874015748031497,
          "duration": 0.11111100000000107
        },
        {
          "name": "D4",
          "midi": 62,
          "time": 38.99996100000012,
          "velocity": 0.7874015748031497,
          "duration": 0.11111100000000107
        },
        {
          "name": "C4",
          "midi": 60,
          "time": 39.11107200000012,
          "velocity": 0.7874015748031497,
          "duration": 0.11111100000000107
        },
        {
          "name": "C4",
          "midi": 60,
          "time": 39.22218300000012,
          "velocity": 0.7874015748031497,
          "duration": 0.11111100000000107
        },
        {
          "name": "D4",
          "midi": 62,
          "time": 39.555516000000125,
          "velocity": 0.7874015748031497,
          "duration": 0.11111100000000107
        },
        {
          "name": "F4",
          "midi": 65,
          "time": 39.77773800000013,
          "velocity": 0.7874015748031497,
          "duration": 0.22222200000000214
        },
        {
          "name": "C4",
          "midi": 60,
          "time": 39.99996000000013,
          "velocity": 0.7874015748031497,
          "duration": 0.11111100000000107
        },
        {
          "name": "C4",
          "midi": 60,
          "time": 40.11107100000013,
          "velocity": 0.7874015748031497,
          "duration": 0.11111100000000107
        },
        {
          "name": "D4",
          "midi": 62,
          "time": 40.444404000000134,
          "velocity": 0.7874015748031497,
          "duration": 0.11111100000000107
        },
        {
          "name": "C4",
          "midi": 60,
          "time": 40.88884800000014,
          "velocity": 0.7874015748031497,
          "duration": 0.11111100000000107
        },
        {
          "name": "C4",
          "midi": 60,
          "time": 40.99995900000014,
          "velocity": 0.7874015748031497,
          "duration": 0.11111100000000107
        },
        {
          "name": "C4",
          "midi": 60,
          "time": 41.33329200000014,
          "velocity": 0.7874015748031497,
          "duration": 0.11111100000000107
        },
        {
          "name": "C4",
          "midi": 60,
          "time": 41.44440300000014,
          "velocity": 0.7874015748031497,
          "duration": 0.11111100000000107
        },
        {
          "name": "C4",
          "midi": 60,
          "time": 41.77773600000015,
          "velocity": 0.7874015748031497,
          "duration": 0.11111100000000107
        },
        {
          "name": "D4",
          "midi": 62,
          "time": 41.88884700000015,
          "velocity": 0.7874015748031497,
          "duration": 0.11111100000000107
        },
        {
          "name": "C4",
          "midi": 60,
          "time": 41.99995800000015,
          "velocity": 0.7874015748031497,
          "duration": 0.11111100000000107
        },
        {
          "name": "D4",
          "midi": 62,
          "time": 42.11106900000015,
          "velocity": 0.7874015748031497,
          "duration": 0.11111100000000107
        },
        {
          "name": "C4",
          "midi": 60,
          "time": 42.22218000000015,
          "velocity": 0.7874015748031497,
          "duration": 0.11111100000000107
        },
        {
          "name": "F4",
          "midi": 65,
          "time": 42.22218000000015,
          "velocity": 0.7874015748031497,
          "duration": 0.4444440000000043
        },
        {
          "name": "D4",
          "midi": 62,
          "time": 42.33329100000015,
          "velocity": 0.7874015748031497,
          "duration": 0.11111100000000107
        },
        {
          "name": "C4",
          "midi": 60,
          "time": 42.44440200000015,
          "velocity": 0.7874015748031497,
          "duration": 0.11111100000000107
        },
        {
          "name": "D4",
          "midi": 62,
          "time": 42.555513000000154,
          "velocity": 0.7874015748031497,
          "duration": 0.11111100000000107
        },
        {
          "name": "C4",
          "midi": 60,
          "time": 42.666624000000155,
          "velocity": 0.7874015748031497,
          "duration": 0.11111100000000107
        },
        {
          "name": "E4",
          "midi": 64,
          "time": 42.88884600000016,
          "velocity": 0.7874015748031497,
          "duration": 0.11111100000000107
        },
        {
          "name": "D4",
          "midi": 62,
          "time": 43.11106800000016,
          "velocity": 0.7874015748031497,
          "duration": 0.11111100000000107
        },
        {
          "name": "E4",
          "midi": 64,
          "time": 43.33329000000016,
          "velocity": 0.7874015748031497,
          "duration": 0.11111100000000107
        },
        {
          "name": "C4",
          "midi": 60,
          "time": 43.555512000000164,
          "velocity": 0.7874015748031497,
          "duration": 0.11111100000000107
        },
        {
          "name": "E4",
          "midi": 64,
          "time": 43.777734000000166,
          "velocity": 0.7874015748031497,
          "duration": 0.11111100000000107
        },
        {
          "name": "D4",
          "midi": 62,
          "time": 43.99995600000017,
          "velocity": 0.7874015748031497,
          "duration": 0.11111100000000107
        },
        {
          "name": "E4",
          "midi": 64,
          "time": 44.22217800000017,
          "velocity": 0.7874015748031497,
          "duration": 0.11111100000000107
        },
        {
          "name": "C4",
          "midi": 60,
          "time": 44.44440000000017,
          "velocity": 0.7874015748031497,
          "duration": 0.11111100000000107
        },
        {
          "name": "E4",
          "midi": 64,
          "time": 44.666622000000174,
          "velocity": 0.7874015748031497,
          "duration": 0.11111100000000107
        },
        {
          "name": "D4",
          "midi": 62,
          "time": 44.88884400000018,
          "velocity": 0.7874015748031497,
          "duration": 0.11111100000000107
        },
        {
          "name": "E4",
          "midi": 64,
          "time": 44.99995500000018,
          "velocity": 0.7874015748031497,
          "duration": 0.11111100000000107
        },
        {
          "name": "E4",
          "midi": 64,
          "time": 45.11106600000018,
          "velocity": 0.7874015748031497,
          "duration": 0.11111100000000107
        },
        {
          "name": "C4",
          "midi": 60,
          "time": 45.33328800000018,
          "velocity": 0.7874015748031497,
          "duration": 0.11111100000000107
        },
        {
          "name": "E4",
          "midi": 64,
          "time": 45.33328800000018,
          "velocity": 0.7874015748031497,
          "duration": 0.11111100000000107
        },
        {
          "name": "E4",
          "midi": 64,
          "time": 45.55551000000018,
          "velocity": 0.7874015748031497,
          "duration": 0.11111100000000107
        },
        {
          "name": "C4",
          "midi": 60,
          "time": 45.777732000000185,
          "velocity": 0.7874015748031497,
          "duration": 0.11111100000000107
        },
        {
          "name": "E4",
          "midi": 64,
          "time": 45.99995400000019,
          "velocity": 0.7874015748031497,
          "duration": 0.11111100000000107
        },
        {
          "name": "C4",
          "midi": 60,
          "time": 46.22217600000019,
          "velocity": 0.7874015748031497,
          "duration": 0.11111100000000107
        },
        {
          "name": "F4",
          "midi": 65,
          "time": 46.33328700000019,
          "velocity": 0.7874015748031497,
          "duration": 0.11111100000000107
        },
        {
          "name": "F4",
          "midi": 65,
          "time": 46.44439800000019,
          "velocity": 0.7874015748031497,
          "duration": 0.11111100000000107
        },
        {
          "name": "F4",
          "midi": 65,
          "time": 46.55550900000019,
          "velocity": 0.7874015748031497,
          "duration": 0.11111100000000107
        },
        {
          "name": "D4",
          "midi": 62,
          "time": 46.666620000000194,
          "velocity": 0.7874015748031497,
          "duration": 0.11111100000000107
        },
        {
          "name": "E4",
          "midi": 64,
          "time": 46.777731000000195,
          "velocity": 0.7874015748031497,
          "duration": 0.11111100000000107
        },
        {
          "name": "E4",
          "midi": 64,
          "time": 46.888842000000196,
          "velocity": 0.7874015748031497,
          "duration": 0.11111100000000107
        },
        {
          "name": "C4",
          "midi": 60,
          "time": 47.1110640000002,
          "velocity": 0.7874015748031497,
          "duration": 0.11111100000000107
        },
        {
          "name": "F4",
          "midi": 65,
          "time": 47.2221750000002,
          "velocity": 0.7874015748031497,
          "duration": 0.11111100000000107
        },
        {
          "name": "F4",
          "midi": 65,
          "time": 47.3332860000002,
          "velocity": 0.7874015748031497,
          "duration": 0.11111100000000107
        },
        {
          "name": "F4",
          "midi": 65,
          "time": 47.4443970000002,
          "velocity": 0.7874015748031497,
          "duration": 0.11111100000000107
        },
        {
          "name": "C4",
          "midi": 60,
          "time": 47.5555080000002,
          "velocity": 0.7874015748031497,
          "duration": 0.11111100000000107
        },
        {
          "name": "D4",
          "midi": 62,
          "time": 47.6666190000002,
          "velocity": 0.7874015748031497,
          "duration": 0.11111100000000107
        },
        {
          "name": "C4",
          "midi": 60,
          "time": 47.777730000000204,
          "velocity": 0.7874015748031497,
          "duration": 0.11111100000000107
        },
        {
          "name": "D4",
          "midi": 62,
          "time": 47.888841000000205,
          "velocity": 0.7874015748031497,
          "duration": 0.11111100000000107
        },
        {
          "name": "C4",
          "midi": 60,
          "time": 47.99995200000021,
          "velocity": 0.7874015748031497,
          "duration": 0.11111100000000107
        },
        {
          "name": "E4",
          "midi": 64,
          "time": 47.99995200000021,
          "velocity": 0.7874015748031497,
          "duration": 0.11111100000000107
        },
        {
          "name": "E4",
          "midi": 64,
          "time": 48.22217400000021,
          "velocity": 0.7874015748031497,
          "duration": 0.11111100000000107
        },
        {
          "name": "D4",
          "midi": 62,
          "time": 48.44439600000021,
          "velocity": 0.7874015748031497,
          "duration": 0.11111100000000107
        },
        {
          "name": "E4",
          "midi": 64,
          "time": 48.66661800000021,
          "velocity": 0.7874015748031497,
          "duration": 0.11111100000000107
        },
        {
          "name": "E4",
          "midi": 64,
          "time": 48.888840000000215,
          "velocity": 0.7874015748031497,
          "duration": 0.11111100000000107
        },
        {
          "name": "C4",
          "midi": 60,
          "time": 48.888840000000215,
          "velocity": 0.7874015748031497,
          "duration": 0.11111100000000107
        },
        {
          "name": "E4",
          "midi": 64,
          "time": 49.11106200000022,
          "velocity": 0.7874015748031497,
          "duration": 0.11111100000000107
        },
        {
          "name": "D4",
          "midi": 62,
          "time": 49.33328400000022,
          "velocity": 0.7874015748031497,
          "duration": 0.11111100000000107
        },
        {
          "name": "F4",
          "midi": 65,
          "time": 49.44439500000022,
          "velocity": 0.7874015748031497,
          "duration": 0.11111100000000107
        },
        {
          "name": "F4",
          "midi": 65,
          "time": 49.55550600000022,
          "velocity": 0.7874015748031497,
          "duration": 0.11111100000000107
        },
        {
          "name": "F4",
          "midi": 65,
          "time": 49.66661700000022,
          "velocity": 0.7874015748031497,
          "duration": 0.11111100000000107
        },
        {
          "name": "C4",
          "midi": 60,
          "time": 49.777728000000224,
          "velocity": 0.7874015748031497,
          "duration": 0.11111100000000107
        },
        {
          "name": "E4",
          "midi": 64,
          "time": 49.777728000000224,
          "velocity": 0.7874015748031497,
          "duration": 0.11111100000000107
        },
        {
          "name": "E4",
          "midi": 64,
          "time": 49.999950000000226,
          "velocity": 0.7874015748031497,
          "duration": 0.11111100000000107
        },
        {
          "name": "E4",
          "midi": 64,
          "time": 50.22217200000023,
          "velocity": 0.7874015748031497,
          "duration": 0.11111100000000107
        },
        {
          "name": "D4",
          "midi": 62,
          "time": 50.22217200000023,
          "velocity": 0.7874015748031497,
          "duration": 0.11111100000000107
        },
        {
          "name": "E4",
          "midi": 64,
          "time": 50.44439400000023,
          "velocity": 0.7874015748031497,
          "duration": 0.11111100000000107
        },
        {
          "name": "E4",
          "midi": 64,
          "time": 50.66661600000023,
          "velocity": 0.7874015748031497,
          "duration": 0.11111100000000107
        },
        {
          "name": "C4",
          "midi": 60,
          "time": 50.66661600000023,
          "velocity": 0.7874015748031497,
          "duration": 0.11111100000000107
        },
        {
          "name": "E4",
          "midi": 64,
          "time": 50.888838000000234,
          "velocity": 0.7874015748031497,
          "duration": 0.11111100000000107
        },
        {
          "name": "E4",
          "midi": 64,
          "time": 51.111060000000236,
          "velocity": 0.7874015748031497,
          "duration": 0.11111100000000107
        },
        {
          "name": "D4",
          "midi": 62,
          "time": 51.111060000000236,
          "velocity": 0.7874015748031497,
          "duration": 0.11111100000000107
        },
        {
          "name": "E4",
          "midi": 64,
          "time": 51.33328200000024,
          "velocity": 0.7874015748031497,
          "duration": 0.11111100000000107
        },
        {
          "name": "C4",
          "midi": 60,
          "time": 51.55550400000024,
          "velocity": 0.7874015748031497,
          "duration": 0.11111100000000107
        },
        {
          "name": "E4",
          "midi": 64,
          "time": 51.55550400000024,
          "velocity": 0.7874015748031497,
          "duration": 0.11111100000000107
        },
        {
          "name": "E4",
          "midi": 64,
          "time": 51.77772600000024,
          "velocity": 0.7874015748031497,
          "duration": 0.11111100000000107
        },
        {
          "name": "E4",
          "midi": 64,
          "time": 51.999948000000245,
          "velocity": 0.7874015748031497,
          "duration": 0.11111100000000107
        },
        {
          "name": "D4",
          "midi": 62,
          "time": 51.999948000000245,
          "velocity": 0.7874015748031497,
          "duration": 0.11111100000000107
        },
        {
          "name": "E4",
          "midi": 64,
          "time": 52.22217000000025,
          "velocity": 0.7874015748031497,
          "duration": 0.11111100000000107
        },
        {
          "name": "E4",
          "midi": 64,
          "time": 52.44439200000025,
          "velocity": 0.7874015748031497,
          "duration": 0.11111100000000107
        },
        {
          "name": "C4",
          "midi": 60,
          "time": 52.44439200000025,
          "velocity": 0.7874015748031497,
          "duration": 0.11111100000000107
        },
        {
          "name": "E4",
          "midi": 64,
          "time": 52.66661400000025,
          "velocity": 0.7874015748031497,
          "duration": 0.11111100000000107
        },
        {
          "name": "C4",
          "midi": 60,
          "time": 52.88883600000025,
          "velocity": 0.7874015748031497,
          "duration": 0.11111100000000107
        },
        {
          "name": "D4",
          "midi": 62,
          "time": 52.999947000000255,
          "velocity": 0.7874015748031497,
          "duration": 0.11111100000000107
        },
        {
          "name": "C4",
          "midi": 60,
          "time": 53.111058000000256,
          "velocity": 0.7874015748031497,
          "duration": 0.11111100000000107
        },
        {
          "name": "D4",
          "midi": 62,
          "time": 53.22216900000026,
          "velocity": 0.7874015748031497,
          "duration": 0.11111100000000107
        },
        {
          "name": "C4",
          "midi": 60,
          "time": 53.33328000000026,
          "velocity": 0.7874015748031497,
          "duration": 0.11111100000000107
        },
        {
          "name": "C4",
          "midi": 60,
          "time": 53.44439100000026,
          "velocity": 0.7874015748031497,
          "duration": 0.11111100000000107
        },
        {
          "name": "D4",
          "midi": 62,
          "time": 53.77772400000026,
          "velocity": 0.7874015748031497,
          "duration": 0.11111100000000107
        },
        {
          "name": "F4",
          "midi": 65,
          "time": 53.999946000000264,
          "velocity": 0.7874015748031497,
          "duration": 0.22222200000000214
        },
        {
          "name": "C4",
          "midi": 60,
          "time": 54.222168000000266,
          "velocity": 0.7874015748031497,
          "duration": 0.11111100000000107
        },
        {
          "name": "C4",
          "midi": 60,
          "time": 54.33327900000027,
          "velocity": 0.7874015748031497,
          "duration": 0.11111100000000107
        },
        {
          "name": "D4",
          "midi": 62,
          "time": 54.66661200000027,
          "velocity": 0.7874015748031497,
          "duration": 0.11111100000000107
        },
        {
          "name": "C4",
          "midi": 60,
          "time": 55.111056000000275,
          "velocity": 0.7874015748031497,
          "duration": 0.11111100000000107
        },
        {
          "name": "C4",
          "midi": 60,
          "time": 55.222167000000276,
          "velocity": 0.7874015748031497,
          "duration": 0.11111100000000107
        },
        {
          "name": "C4",
          "midi": 60,
          "time": 55.55550000000028,
          "velocity": 0.7874015748031497,
          "duration": 0.11111100000000107
        },
        {
          "name": "C4",
          "midi": 60,
          "time": 55.66661100000028,
          "velocity": 0.7874015748031497,
          "duration": 0.11111100000000107
        },
        {
          "name": "C4",
          "midi": 60,
          "time": 55.99994400000028,
          "velocity": 0.7874015748031497,
          "duration": 0.11111100000000107
        },
        {
          "name": "D4",
          "midi": 62,
          "time": 56.111055000000285,
          "velocity": 0.7874015748031497,
          "duration": 0.11111100000000107
        },
        {
          "name": "C4",
          "midi": 60,
          "time": 56.222166000000286,
          "velocity": 0.7874015748031497,
          "duration": 0.11111100000000107
        },
        {
          "name": "D4",
          "midi": 62,
          "time": 56.33327700000029,
          "velocity": 0.7874015748031497,
          "duration": 0.11111100000000107
        },
        {
          "name": "C4",
          "midi": 60,
          "time": 56.44438800000029,
          "velocity": 0.7874015748031497,
          "duration": 0.11111100000000107
        },
        {
          "name": "F4",
          "midi": 65,
          "time": 56.44438800000029,
          "velocity": 0.7874015748031497,
          "duration": 0.4444440000000043
        },
        {
          "name": "D4",
          "midi": 62,
          "time": 56.55549900000029,
          "velocity": 0.7874015748031497,
          "duration": 0.11111100000000107
        },
        {
          "name": "C4",
          "midi": 60,
          "time": 56.66661000000029,
          "velocity": 0.7874015748031497,
          "duration": 0.11111100000000107
        },
        {
          "name": "D4",
          "midi": 62,
          "time": 56.77772100000029,
          "velocity": 0.7874015748031497,
          "duration": 0.11111100000000107
        },
        {
          "name": "E4",
          "midi": 64,
          "time": 56.88883200000029,
          "velocity": 0.7874015748031497,
          "duration": 0.4444440000000043
        },
        {
          "name": "C4",
          "midi": 60,
          "time": 56.88883200000029,
          "velocity": 0.7874015748031497,
          "duration": 0.11111100000000107
        },
        {
          "name": "C4",
          "midi": 60,
          "time": 57.333276000000296,
          "velocity": 0.7874015748031497,
          "duration": 0.11111100000000107
        },
        {
          "name": "C4",
          "midi": 60,
          "time": 57.7777200000003,
          "velocity": 0.7874015748031497,
          "duration": 0.11111100000000107
        },
        {
          "name": "E4",
          "midi": 64,
          "time": 57.7777200000003,
          "velocity": 0.7874015748031497,
          "duration": 0.4444440000000043
        },
        {
          "name": "C4",
          "midi": 60,
          "time": 58.222164000000305,
          "velocity": 0.7874015748031497,
          "duration": 0.11111100000000107
        },
        {
          "name": "D4",
          "midi": 62,
          "time": 58.66660800000031,
          "velocity": 0.7874015748031497,
          "duration": 1.3333320000000128
        },
        {
          "name": "C4",
          "midi": 60,
          "time": 58.66660800000031,
          "velocity": 0.7874015748031497,
          "duration": 0.11111100000000107
        },
        {
          "name": "C4",
          "midi": 60,
          "time": 59.11105200000031,
          "velocity": 0.7874015748031497,
          "duration": 0.11111100000000107
        },
        {
          "name": "C4",
          "midi": 60,
          "time": 59.55549600000032,
          "velocity": 0.7874015748031497,
          "duration": 0.11111100000000107
        },
        {
          "name": "C4",
          "midi": 60,
          "time": 59.99994000000032,
          "velocity": 0.7874015748031497,
          "duration": 0.11111100000000107
        },
        {
          "name": "F4",
          "midi": 65,
          "time": 59.99994000000032,
          "velocity": 0.7874015748031497,
          "duration": 0.4444440000000043
        },
        {
          "name": "E4",
          "midi": 64,
          "time": 60.444384000000326,
          "velocity": 0.7874015748031497,
          "duration": 0.4444440000000043
        },
        {
          "name": "C4",
          "midi": 60,
          "time": 60.444384000000326,
          "velocity": 0.7874015748031497,
          "duration": 0.11111100000000107
        },
        {
          "name": "C4",
          "midi": 60,
          "time": 60.88882800000033,
          "velocity": 0.7874015748031497,
          "duration": 0.11111100000000107
        },
        {
          "name": "C4",
          "midi": 60,
          "time": 61.333272000000335,
          "velocity": 0.7874015748031497,
          "duration": 0.11111100000000107
        },
        {
          "name": "E4",
          "midi": 64,
          "time": 61.333272000000335,
          "velocity": 0.7874015748031497,
          "duration": 0.4444440000000043
        },
        {
          "name": "C4",
          "midi": 60,
          "time": 61.77771600000034,
          "velocity": 0.7874015748031497,
          "duration": 0.11111100000000107
        },
        {
          "name": "D4",
          "midi": 62,
          "time": 62.22216000000034,
          "velocity": 0.7874015748031497,
          "duration": 1.3333320000000128
        },
        {
          "name": "C4",
          "midi": 60,
          "time": 62.22216000000034,
          "velocity": 0.7874015748031497,
          "duration": 0.11111100000000107
        },
        {
          "name": "C4",
          "midi": 60,
          "time": 62.66660400000035,
          "velocity": 0.7874015748031497,
          "duration": 0.11111100000000107
        },
        {
          "name": "C4",
          "midi": 60,
          "time": 63.11104800000035,
          "velocity": 0.7874015748031497,
          "duration": 0.11111100000000107
        },
        {
          "name": "C4",
          "midi": 60,
          "time": 63.555492000000356,
          "velocity": 0.7874015748031497,
          "duration": 0.11111100000000107
        },
        {
          "name": "F4",
          "midi": 65,
          "time": 63.555492000000356,
          "velocity": 0.7874015748031497,
          "duration": 0.4444440000000043
        },
        {
          "name": "E4",
          "midi": 64,
          "time": 63.99993600000036,
          "velocity": 0.7874015748031497,
          "duration": 0.44444399999999007
        },
        {
          "name": "C4",
          "midi": 60,
          "time": 63.99993600000036,
          "velocity": 0.7874015748031497,
          "duration": 0.11111099999999396
        },
        {
          "name": "C4",
          "midi": 60,
          "time": 64.44438000000035,
          "velocity": 0.7874015748031497,
          "duration": 0.11111099999999396
        },
        {
          "name": "C4",
          "midi": 60,
          "time": 64.88882400000034,
          "velocity": 0.7874015748031497,
          "duration": 0.11111099999999396
        },
        {
          "name": "E4",
          "midi": 64,
          "time": 64.88882400000034,
          "velocity": 0.7874015748031497,
          "duration": 0.44444399999999007
        },
        {
          "name": "C4",
          "midi": 60,
          "time": 65.33326800000033,
          "velocity": 0.7874015748031497,
          "duration": 0.11111099999999396
        },
        {
          "name": "D4",
          "midi": 62,
          "time": 65.77771200000032,
          "velocity": 0.7874015748031497,
          "duration": 1.3333319999999702
        },
        {
          "name": "C4",
          "midi": 60,
          "time": 65.77771200000032,
          "velocity": 0.7874015748031497,
          "duration": 0.11111099999999396
        },
        {
          "name": "C4",
          "midi": 60,
          "time": 66.22215600000031,
          "velocity": 0.7874015748031497,
          "duration": 0.11111099999999396
        },
        {
          "name": "C4",
          "midi": 60,
          "time": 66.6666000000003,
          "velocity": 0.7874015748031497,
          "duration": 0.11111099999999396
        },
        {
          "name": "C4",
          "midi": 60,
          "time": 67.11104400000029,
          "velocity": 0.7874015748031497,
          "duration": 0.11111099999999396
        },
        {
          "name": "E4",
          "midi": 64,
          "time": 67.11104400000029,
          "velocity": 0.7874015748031497,
          "duration": 0.44444399999999007
        },
        {
          "name": "F4",
          "midi": 65,
          "time": 67.55548800000028,
          "velocity": 0.7874015748031497,
          "duration": 1.7777759999999603
        },
        {
          "name": "C4",
          "midi": 60,
          "time": 67.55548800000028,
          "velocity": 0.7874015748031497,
          "duration": 0.11111099999999396
        },
        {
          "name": "C4",
          "midi": 60,
          "time": 67.99993200000027,
          "velocity": 0.7874015748031497,
          "duration": 0.11111099999999396
        },
        {
          "name": "C4",
          "midi": 60,
          "time": 68.44437600000026,
          "velocity": 0.7874015748031497,
          "duration": 0.11111099999999396
        },
        {
          "name": "C4",
          "midi": 60,
          "time": 68.88882000000025,
          "velocity": 0.7874015748031497,
          "duration": 0.11111099999999396
        },
        {
          "name": "E4",
          "midi": 64,
          "time": 69.33326400000024,
          "velocity": 0.7874015748031497,
          "duration": 1.333331999999956
        },
        {
          "name": "C4",
          "midi": 60,
          "time": 69.33326400000024,
          "velocity": 0.7874015748031497,
          "duration": 0.11111099999999396
        },
        {
          "name": "C4",
          "midi": 60,
          "time": 69.44437500000024,
          "velocity": 0.7874015748031497,
          "duration": 0.11111099999999396
        },
        {
          "name": "C4",
          "midi": 60,
          "time": 69.77770800000023,
          "velocity": 0.7874015748031497,
          "duration": 0.11111099999999396
        },
        {
          "name": "C4",
          "midi": 60,
          "time": 69.88881900000023,
          "velocity": 0.7874015748031497,
          "duration": 0.11111099999999396
        },
        {
          "name": "C4",
          "midi": 60,
          "time": 70.22215200000022,
          "velocity": 0.7874015748031497,
          "duration": 0.11111099999999396
        },
        {
          "name": "D4",
          "midi": 62,
          "time": 70.33326300000022,
          "velocity": 0.7874015748031497,
          "duration": 0.11111099999999396
        },
        {
          "name": "C4",
          "midi": 60,
          "time": 70.44437400000021,
          "velocity": 0.7874015748031497,
          "duration": 0.11111099999999396
        },
        {
          "name": "D4",
          "midi": 62,
          "time": 70.5554850000002,
          "velocity": 0.7874015748031497,
          "duration": 0.11111099999999396
        },
        {
          "name": "C4",
          "midi": 60,
          "time": 70.6665960000002,
          "velocity": 0.7874015748031497,
          "duration": 0.11111099999999396
        },
        {
          "name": "F4",
          "midi": 65,
          "time": 70.6665960000002,
          "velocity": 0.7874015748031497,
          "duration": 0.44444399999999007
        },
        {
          "name": "C4",
          "midi": 60,
          "time": 71.11104000000019,
          "velocity": 0.7874015748031497,
          "duration": 0.11111099999999396
        },
        {
          "name": "E4",
          "midi": 64,
          "time": 71.33326200000018,
          "velocity": 0.7874015748031497,
          "duration": 0.11111099999999396
        },
        {
          "name": "D4",
          "midi": 62,
          "time": 71.55548400000016,
          "velocity": 0.7874015748031497,
          "duration": 0.11111099999999396
        },
        {
          "name": "E4",
          "midi": 64,
          "time": 71.66659500000016,
          "velocity": 0.7874015748031497,
          "duration": 0.11111099999999396
        },
        {
          "name": "E4",
          "midi": 64,
          "time": 71.77770600000015,
          "velocity": 0.7874015748031497,
          "duration": 0.11111099999999396
        },
        {
          "name": "C4",
          "midi": 60,
          "time": 71.99992800000014,
          "velocity": 0.7874015748031497,
          "duration": 0.11111099999999396
        },
        {
          "name": "E4",
          "midi": 64,
          "time": 72.22215000000013,
          "velocity": 0.7874015748031497,
          "duration": 0.11111099999999396
        },
        {
          "name": "D4",
          "midi": 62,
          "time": 72.44437200000012,
          "velocity": 0.7874015748031497,
          "duration": 0.11111099999999396
        },
        {
          "name": "E4",
          "midi": 64,
          "time": 72.55548300000011,
          "velocity": 0.7874015748031497,
          "duration": 0.11111099999999396
        },
        {
          "name": "E4",
          "midi": 64,
          "time": 72.6665940000001,
          "velocity": 0.7874015748031497,
          "duration": 0.11111099999999396
        },
        {
          "name": "E4",
          "midi": 64,
          "time": 72.88881600000009,
          "velocity": 0.7874015748031497,
          "duration": 0.11111099999999396
        },
        {
          "name": "C4",
          "midi": 60,
          "time": 72.88881600000009,
          "velocity": 0.7874015748031497,
          "duration": 0.11111099999999396
        },
        {
          "name": "E4",
          "midi": 64,
          "time": 73.11103800000008,
          "velocity": 0.7874015748031497,
          "duration": 0.11111099999999396
        },
        {
          "name": "D4",
          "midi": 62,
          "time": 73.33326000000007,
          "velocity": 0.7874015748031497,
          "duration": 0.11111099999999396
        },
        {
          "name": "E4",
          "midi": 64,
          "time": 73.55548200000005,
          "velocity": 0.7874015748031497,
          "duration": 0.11111099999999396
        },
        {
          "name": "E4",
          "midi": 64,
          "time": 73.77770400000004,
          "velocity": 0.7874015748031497,
          "duration": 0.11111099999999396
        },
        {
          "name": "C4",
          "midi": 60,
          "time": 73.77770400000004,
          "velocity": 0.7874015748031497,
          "duration": 0.11111099999999396
        },
        {
          "name": "E4",
          "midi": 64,
          "time": 73.99992600000003,
          "velocity": 0.7874015748031497,
          "duration": 0.11111099999999396
        },
        {
          "name": "C4",
          "midi": 60,
          "time": 74.22214800000002,
          "velocity": 0.7874015748031497,
          "duration": 0.11111099999999396
        },
        {
          "name": "E4",
          "midi": 64,
          "time": 74.44437,
          "velocity": 0.7874015748031497,
          "duration": 0.11111099999999396
        },
        {
          "name": "C4",
          "midi": 60,
          "time": 74.666592,
          "velocity": 0.7874015748031497,
          "duration": 0.11111099999999396
        },
        {
          "name": "E4",
          "midi": 64,
          "time": 74.88881399999998,
          "velocity": 0.7874015748031497,
          "duration": 0.11111099999999396
        },
        {
          "name": "D4",
          "midi": 62,
          "time": 75.11103599999997,
          "velocity": 0.7874015748031497,
          "duration": 0.11111099999999396
        },
        {
          "name": "E4",
          "midi": 64,
          "time": 75.22214699999996,
          "velocity": 0.7874015748031497,
          "duration": 0.11111099999999396
        },
        {
          "name": "E4",
          "midi": 64,
          "time": 75.33325799999996,
          "velocity": 0.7874015748031497,
          "duration": 0.11111099999999396
        },
        {
          "name": "C4",
          "midi": 60,
          "time": 75.55547999999995,
          "velocity": 0.7874015748031497,
          "duration": 0.11111099999999396
        },
        {
          "name": "E4",
          "midi": 64,
          "time": 75.77770199999993,
          "velocity": 0.7874015748031497,
          "duration": 0.11111099999999396
        },
        {
          "name": "C4",
          "midi": 60,
          "time": 75.99992399999992,
          "velocity": 0.7874015748031497,
          "duration": 0.11111099999999396
        },
        {
          "name": "F4",
          "midi": 65,
          "time": 76.22214599999991,
          "velocity": 0.7874015748031497,
          "duration": 0.22222200000000214
        },
        {
          "name": "E4",
          "midi": 64,
          "time": 76.44436799999991,
          "velocity": 0.7874015748031497,
          "duration": 0.11111099999999396
        },
        {
          "name": "C4",
          "midi": 60,
          "time": 76.44436799999991,
          "velocity": 0.7874015748031497,
          "duration": 0.11111099999999396
        },
        {
          "name": "E4",
          "midi": 64,
          "time": 76.6665899999999,
          "velocity": 0.7874015748031497,
          "duration": 0.11111099999999396
        },
        {
          "name": "D4",
          "midi": 62,
          "time": 76.88881199999989,
          "velocity": 0.7874015748031497,
          "duration": 0.11111099999999396
        },
        {
          "name": "F4",
          "midi": 65,
          "time": 76.88881199999989,
          "velocity": 0.7874015748031497,
          "duration": 0.22222199999998793
        },
        {
          "name": "E4",
          "midi": 64,
          "time": 77.11103399999988,
          "velocity": 0.7874015748031497,
          "duration": 0.11111099999999396
        },
        {
          "name": "F4",
          "midi": 65,
          "time": 77.33325599999986,
          "velocity": 0.7874015748031497,
          "duration": 0.22222199999998793
        },
        {
          "name": "C4",
          "midi": 60,
          "time": 77.33325599999986,
          "velocity": 0.7874015748031497,
          "duration": 0.11111099999999396
        },
        {
          "name": "E4",
          "midi": 64,
          "time": 77.55547799999985,
          "velocity": 0.7874015748031497,
          "duration": 0.11111099999999396
        },
        {
          "name": "D4",
          "midi": 62,
          "time": 77.77769999999984,
          "velocity": 0.7874015748031497,
          "duration": 0.11111099999999396
        },
        {
          "name": "E4",
          "midi": 64,
          "time": 77.99992199999983,
          "velocity": 0.7874015748031497,
          "duration": 0.11111099999999396
        },
        {
          "name": "E4",
          "midi": 64,
          "time": 78.22214399999982,
          "velocity": 0.7874015748031497,
          "duration": 0.11111099999999396
        },
        {
          "name": "C4",
          "midi": 60,
          "time": 78.22214399999982,
          "velocity": 0.7874015748031497,
          "duration": 0.11111099999999396
        },
        {
          "name": "E4",
          "midi": 64,
          "time": 78.4443659999998,
          "velocity": 0.7874015748031497,
          "duration": 0.11111099999999396
        },
        {
          "name": "D4",
          "midi": 62,
          "time": 78.66658799999979,
          "velocity": 0.7874015748031497,
          "duration": 0.11111099999999396
        },
        {
          "name": "F4",
          "midi": 65,
          "time": 78.66658799999979,
          "velocity": 0.7874015748031497,
          "duration": 0.22222199999998793
        },
        {
          "name": "F4",
          "midi": 65,
          "time": 78.88880999999978,
          "velocity": 0.7874015748031497,
          "duration": 0.22222200000000214
        },
        {
          "name": "C4",
          "midi": 60,
          "time": 79.11103199999978,
          "velocity": 0.7874015748031497,
          "duration": 0.11111099999999396
        },
        {
          "name": "E4",
          "midi": 64,
          "time": 79.33325399999977,
          "velocity": 0.7874015748031497,
          "duration": 0.11111099999999396
        },
        {
          "name": "E4",
          "midi": 64,
          "time": 79.55547599999976,
          "velocity": 0.7874015748031497,
          "duration": 0.11111099999999396
        },
        {
          "name": "D4",
          "midi": 62,
          "time": 79.55547599999976,
          "velocity": 0.7874015748031497,
          "duration": 0.11111099999999396
        },
        {
          "name": "E4",
          "midi": 64,
          "time": 79.66658699999975,
          "velocity": 0.7874015748031497,
          "duration": 0.11111099999999396
        },
        {
          "name": "E4",
          "midi": 64,
          "time": 79.77769799999975,
          "velocity": 0.7874015748031497,
          "duration": 0.22222200000000214
        },
        {
          "name": "E4",
          "midi": 64,
          "time": 79.99991999999975,
          "velocity": 0.7874015748031497,
          "duration": 0.11111099999999396
        },
        {
          "name": "C4",
          "midi": 60,
          "time": 79.99991999999975,
          "velocity": 0.7874015748031497,
          "duration": 0.11111099999999396
        },
        {
          "name": "E4",
          "midi": 64,
          "time": 80.22214199999974,
          "velocity": 0.7874015748031497,
          "duration": 0.11111099999999396
        },
        {
          "name": "D4",
          "midi": 62,
          "time": 80.44436399999972,
          "velocity": 0.7874015748031497,
          "duration": 0.11111099999999396
        },
        {
          "name": "E4",
          "midi": 64,
          "time": 80.44436399999972,
          "velocity": 0.7874015748031497,
          "duration": 0.11111099999999396
        },
        {
          "name": "E4",
          "midi": 64,
          "time": 80.66658599999971,
          "velocity": 0.7874015748031497,
          "duration": 0.11111099999999396
        },
        {
          "name": "C4",
          "midi": 60,
          "time": 80.8888079999997,
          "velocity": 0.7874015748031497,
          "duration": 0.11111099999999396
        },
        {
          "name": "E4",
          "midi": 64,
          "time": 80.8888079999997,
          "velocity": 0.7874015748031497,
          "duration": 0.11111099999999396
        },
        {
          "name": "E4",
          "midi": 64,
          "time": 81.11102999999969,
          "velocity": 0.7874015748031497,
          "duration": 0.11111099999999396
        },
        {
          "name": "C4",
          "midi": 60,
          "time": 81.33325199999967,
          "velocity": 0.7874015748031497,
          "duration": 0.11111099999999396
        },
        {
          "name": "D4",
          "midi": 62,
          "time": 81.44436299999967,
          "velocity": 0.7874015748031497,
          "duration": 0.11111099999999396
        },
        {
          "name": "C4",
          "midi": 60,
          "time": 81.55547399999966,
          "velocity": 0.7874015748031497,
          "duration": 0.11111099999999396
        },
        {
          "name": "D4",
          "midi": 62,
          "time": 81.66658499999966,
          "velocity": 0.7874015748031497,
          "duration": 0.11111099999999396
        },
        {
          "name": "E4",
          "midi": 64,
          "time": 81.77769599999965,
          "velocity": 0.7874015748031497,
          "duration": 0.22222200000000214
        },
        {
          "name": "F4",
          "midi": 65,
          "time": 81.99991799999965,
          "velocity": 0.7874015748031497,
          "duration": 0.11111099999999396
        },
        {
          "name": "D4",
          "midi": 62,
          "time": 82.22213999999964,
          "velocity": 0.7874015748031497,
          "duration": 0.11111099999999396
        },
        {
          "name": "E4",
          "midi": 64,
          "time": 82.44436199999963,
          "velocity": 0.7874015748031497,
          "duration": 0.11111099999999396
        },
        {
          "name": "C4",
          "midi": 60,
          "time": 82.66658399999962,
          "velocity": 0.7874015748031497,
          "duration": 0.11111099999999396
        },
        {
          "name": "C4",
          "midi": 60,
          "time": 82.77769499999961,
          "velocity": 0.7874015748031497,
          "duration": 0.11111099999999396
        },
        {
          "name": "E4",
          "midi": 64,
          "time": 82.8888059999996,
          "velocity": 0.7874015748031497,
          "duration": 0.11111099999999396
        },
        {
          "name": "D4",
          "midi": 62,
          "time": 83.11102799999959,
          "velocity": 0.7874015748031497,
          "duration": 0.11111099999999396
        },
        {
          "name": "E4",
          "midi": 64,
          "time": 83.33324999999958,
          "velocity": 0.7874015748031497,
          "duration": 0.11111099999999396
        },
        {
          "name": "E4",
          "midi": 64,
          "time": 83.55547199999957,
          "velocity": 0.7874015748031497,
          "duration": 0.11111099999999396
        },
        {
          "name": "C4",
          "midi": 60,
          "time": 83.55547199999957,
          "velocity": 0.7874015748031497,
          "duration": 0.11111099999999396
        },
        {
          "name": "C4",
          "midi": 60,
          "time": 83.66658299999956,
          "velocity": 0.7874015748031497,
          "duration": 0.11111099999999396
        },
        {
          "name": "E4",
          "midi": 64,
          "time": 83.77769399999956,
          "velocity": 0.7874015748031497,
          "duration": 0.11111099999999396
        },
        {
          "name": "C4",
          "midi": 60,
          "time": 83.99991599999954,
          "velocity": 0.7874015748031497,
          "duration": 0.11111099999999396
        },
        {
          "name": "C4",
          "midi": 60,
          "time": 84.11102699999954,
          "velocity": 0.7874015748031497,
          "duration": 0.11111099999999396
        },
        {
          "name": "E4",
          "midi": 64,
          "time": 84.22213799999953,
          "velocity": 0.7874015748031497,
          "duration": 0.11111099999999396
        },
        {
          "name": "C4",
          "midi": 60,
          "time": 84.44435999999952,
          "velocity": 0.7874015748031497,
          "duration": 0.11111099999999396
        },
        {
          "name": "D4",
          "midi": 62,
          "time": 84.55547099999951,
          "velocity": 0.7874015748031497,
          "duration": 0.11111099999999396
        },
        {
          "name": "C4",
          "midi": 60,
          "time": 84.66658199999951,
          "velocity": 0.7874015748031497,
          "duration": 0.11111099999999396
        },
        {
          "name": "D4",
          "midi": 62,
          "time": 84.7776929999995,
          "velocity": 0.7874015748031497,
          "duration": 0.11111099999999396
        },
        {
          "name": "E4",
          "midi": 64,
          "time": 84.8888039999995,
          "velocity": 0.7874015748031497,
          "duration": 0.11111099999999396
        },
        {
          "name": "C4",
          "midi": 60,
          "time": 84.8888039999995,
          "velocity": 0.7874015748031497,
          "duration": 0.11111099999999396
        },
        {
          "name": "D4",
          "midi": 62,
          "time": 84.99991499999949,
          "velocity": 0.7874015748031497,
          "duration": 0.11111099999999396
        },
        {
          "name": "C4",
          "midi": 60,
          "time": 85.11102599999948,
          "velocity": 0.7874015748031497,
          "duration": 0.11111099999999396
        },
        {
          "name": "D4",
          "midi": 62,
          "time": 85.22213699999948,
          "velocity": 0.7874015748031497,
          "duration": 0.11111099999999396
        },
        {
          "name": "F4",
          "midi": 65,
          "time": 85.33324799999947,
          "velocity": 0.7874015748031497,
          "duration": 0.11111099999999396
        },
        {
          "name": "F4",
          "midi": 65,
          "time": 87.11102399999946,
          "velocity": 0.7874015748031497,
          "duration": 0.11111099999999396
        },
        {
          "name": "F4",
          "midi": 65,
          "time": 88.88879999999945,
          "velocity": 0.7874015748031497,
          "duration": 0.11111099999999396
        },
        {
          "name": "F4",
          "midi": 65,
          "time": 90.66657599999944,
          "velocity": 0.7874015748031497,
          "duration": 0.11111099999999396
        },
        {
          "name": "F4",
          "midi": 65,
          "time": 92.44435199999943,
          "velocity": 0.7874015748031497,
          "duration": 0.11111099999999396
        },
        {
          "name": "F4",
          "midi": 65,
          "time": 94.22212799999942,
          "velocity": 0.7874015748031497,
          "duration": 0.11111099999999396
        },
        {
          "name": "F4",
          "midi": 65,
          "time": 95.9999039999994,
          "velocity": 0.7874015748031497,
          "duration": 0.11111099999999396
        },
        {
          "name": "F4",
          "midi": 65,
          "time": 97.77767999999939,
          "velocity": 0.7874015748031497,
          "duration": 0.11111099999999396
        },
        {
          "name": "F4",
          "midi": 65,
          "time": 99.55545599999938,
          "velocity": 0.7874015748031497,
          "duration": 0.11111099999999396
        },
        {
          "name": "F4",
          "midi": 65,
          "time": 101.33323199999937,
          "velocity": 0.7874015748031497,
          "duration": 0.11111099999999396
        },
        {
          "name": "F4",
          "midi": 65,
          "time": 103.11100799999936,
          "velocity": 0.7874015748031497,
          "duration": 0.11111099999999396
        },
        {
          "name": "F4",
          "midi": 65,
          "time": 104.88878399999935,
          "velocity": 0.7874015748031497,
          "duration": 0.11111099999999396
        },
        {
          "name": "F4",
          "midi": 65,
          "time": 106.66655999999934,
          "velocity": 0.7874015748031497,
          "duration": 0.11111099999999396
        },
        {
          "name": "F4",
          "midi": 65,
          "time": 108.44433599999932,
          "velocity": 0.7874015748031497,
          "duration": 0.11111099999999396
        },
        {
          "name": "F4",
          "midi": 65,
          "time": 110.22211199999931,
          "velocity": 0.7874015748031497,
          "duration": 0.11111099999999396
        },
        {
          "name": "F4",
          "midi": 65,
          "time": 111.9998879999993,
          "velocity": 0.7874015748031497,
          "duration": 0.11111099999999396
        },
        {
          "name": "D4",
          "midi": 62,
          "time": 112.3332209999993,
          "velocity": 0.7874015748031497,
          "duration": 0.11111099999999396
        },
        {
          "name": "D4",
          "midi": 62,
          "time": 112.77766499999929,
          "velocity": 0.7874015748031497,
          "duration": 0.11111099999999396
        },
        {
          "name": "D4",
          "midi": 62,
          "time": 113.22210899999928,
          "velocity": 0.7874015748031497,
          "duration": 0.11111099999999396
        },
        {
          "name": "C4",
          "midi": 60,
          "time": 113.33321999999927,
          "velocity": 0.7874015748031497,
          "duration": 0.11111099999999396
        },
        {
          "name": "D4",
          "midi": 62,
          "time": 113.44433099999927,
          "velocity": 0.7874015748031497,
          "duration": 0.11111099999999396
        },
        {
          "name": "C4",
          "midi": 60,
          "time": 113.55544199999926,
          "velocity": 0.7874015748031497,
          "duration": 0.11111099999999396
        },
        {
          "name": "D4",
          "midi": 62,
          "time": 113.66655299999925,
          "velocity": 0.7874015748031497,
          "duration": 0.11111099999999396
        },
        {
          "name": "C4",
          "midi": 60,
          "time": 113.77766399999925,
          "velocity": 0.7874015748031497,
          "duration": 0.11111099999999396
        },
        {
          "name": "E4",
          "midi": 64,
          "time": 113.99988599999924,
          "velocity": 0.7874015748031497,
          "duration": 0.11111099999999396
        },
        {
          "name": "E4",
          "midi": 64,
          "time": 114.11099699999923,
          "velocity": 0.7874015748031497,
          "duration": 0.11111099999999396
        },
        {
          "name": "D4",
          "midi": 62,
          "time": 114.22210799999922,
          "velocity": 0.7874015748031497,
          "duration": 0.11111099999999396
        },
        {
          "name": "E4",
          "midi": 64,
          "time": 114.44432999999921,
          "velocity": 0.7874015748031497,
          "duration": 0.11111099999999396
        },
        {
          "name": "C4",
          "midi": 60,
          "time": 114.6665519999992,
          "velocity": 0.7874015748031497,
          "duration": 0.11111099999999396
        },
        {
          "name": "E4",
          "midi": 64,
          "time": 114.88877399999919,
          "velocity": 0.7874015748031497,
          "duration": 0.11111099999999396
        },
        {
          "name": "D4",
          "midi": 62,
          "time": 115.11099599999918,
          "velocity": 0.7874015748031497,
          "duration": 0.11111099999999396
        },
        {
          "name": "E4",
          "midi": 64,
          "time": 115.33321799999916,
          "velocity": 0.7874015748031497,
          "duration": 0.11111099999999396
        },
        {
          "name": "C4",
          "midi": 60,
          "time": 115.55543999999915,
          "velocity": 0.7874015748031497,
          "duration": 0.11111099999999396
        },
        {
          "name": "E4",
          "midi": 64,
          "time": 115.77766199999914,
          "velocity": 0.7874015748031497,
          "duration": 0.11111099999999396
        },
        {
          "name": "D4",
          "midi": 62,
          "time": 115.99988399999913,
          "velocity": 0.7874015748031497,
          "duration": 0.11111099999999396
        },
        {
          "name": "E4",
          "midi": 64,
          "time": 116.11099499999912,
          "velocity": 0.7874015748031497,
          "duration": 0.11111099999999396
        },
        {
          "name": "E4",
          "midi": 64,
          "time": 116.22210599999912,
          "velocity": 0.7874015748031497,
          "duration": 0.11111099999999396
        },
        {
          "name": "E4",
          "midi": 64,
          "time": 116.4443279999991,
          "velocity": 0.7874015748031497,
          "duration": 0.11111099999999396
        },
        {
          "name": "C4",
          "midi": 60,
          "time": 116.4443279999991,
          "velocity": 0.7874015748031497,
          "duration": 0.11111099999999396
        },
        {
          "name": "E4",
          "midi": 64,
          "time": 116.66654999999909,
          "velocity": 0.7874015748031497,
          "duration": 0.11111099999999396
        },
        {
          "name": "C4",
          "midi": 60,
          "time": 116.88877199999908,
          "velocity": 0.7874015748031497,
          "duration": 0.11111099999999396
        },
        {
          "name": "E4",
          "midi": 64,
          "time": 117.11099399999907,
          "velocity": 0.7874015748031497,
          "duration": 0.11111099999999396
        },
        {
          "name": "C4",
          "midi": 60,
          "time": 117.33321599999906,
          "velocity": 0.7874015748031497,
          "duration": 0.11111099999999396
        },
        {
          "name": "F4",
          "midi": 65,
          "time": 117.44432699999905,
          "velocity": 0.7874015748031497,
          "duration": 0.11111099999999396
        },
        {
          "name": "F4",
          "midi": 65,
          "time": 117.55543799999904,
          "velocity": 0.7874015748031497,
          "duration": 0.11111099999999396
        },
        {
          "name": "F4",
          "midi": 65,
          "time": 117.66654899999904,
          "velocity": 0.7874015748031497,
          "duration": 0.11111099999999396
        },
        {
          "name": "D4",
          "midi": 62,
          "time": 117.77765999999903,
          "velocity": 0.7874015748031497,
          "duration": 0.11111099999999396
        },
        {
          "name": "E4",
          "midi": 64,
          "time": 117.88877099999902,
          "velocity": 0.7874015748031497,
          "duration": 0.11111099999999396
        },
        {
          "name": "E4",
          "midi": 64,
          "time": 117.99988199999902,
          "velocity": 0.7874015748031497,
          "duration": 0.11111099999999396
        },
        {
          "name": "C4",
          "midi": 60,
          "time": 118.222103999999,
          "velocity": 0.7874015748031497,
          "duration": 0.11111099999999396
        },
        {
          "name": "F4",
          "midi": 65,
          "time": 118.333214999999,
          "velocity": 0.7874015748031497,
          "duration": 0.11111099999999396
        },
        {
          "name": "F4",
          "midi": 65,
          "time": 118.444325999999,
          "velocity": 0.7874015748031497,
          "duration": 0.11111099999999396
        },
        {
          "name": "F4",
          "midi": 65,
          "time": 118.55543699999899,
          "velocity": 0.7874015748031497,
          "duration": 0.11111099999999396
        },
        {
          "name": "C4",
          "midi": 60,
          "time": 118.66654799999898,
          "velocity": 0.7874015748031497,
          "duration": 0.11111099999999396
        },
        {
          "name": "D4",
          "midi": 62,
          "time": 118.77765899999898,
          "velocity": 0.7874015748031497,
          "duration": 0.11111099999999396
        },
        {
          "name": "C4",
          "midi": 60,
          "time": 118.88876999999897,
          "velocity": 0.7874015748031497,
          "duration": 0.11111099999999396
        },
        {
          "name": "D4",
          "midi": 62,
          "time": 118.99988099999896,
          "velocity": 0.7874015748031497,
          "duration": 0.11111099999999396
        },
        {
          "name": "C4",
          "midi": 60,
          "time": 119.11099199999896,
          "velocity": 0.7874015748031497,
          "duration": 0.11111099999999396
        },
        {
          "name": "E4",
          "midi": 64,
          "time": 119.11099199999896,
          "velocity": 0.7874015748031497,
          "duration": 0.11111099999999396
        },
        {
          "name": "E4",
          "midi": 64,
          "time": 119.33321399999895,
          "velocity": 0.7874015748031497,
          "duration": 0.11111099999999396
        },
        {
          "name": "D4",
          "midi": 62,
          "time": 119.55543599999893,
          "velocity": 0.7874015748031497,
          "duration": 0.11111099999999396
        },
        {
          "name": "E4",
          "midi": 64,
          "time": 119.77765799999892,
          "velocity": 0.7874015748031497,
          "duration": 0.11111099999999396
        },
        {
          "name": "E4",
          "midi": 64,
          "time": 119.99987999999891,
          "velocity": 0.7874015748031497,
          "duration": 0.11111099999999396
        },
        {
          "name": "C4",
          "midi": 60,
          "time": 119.99987999999891,
          "velocity": 0.7874015748031497,
          "duration": 0.11111099999999396
        },
        {
          "name": "E4",
          "midi": 64,
          "time": 120.2221019999989,
          "velocity": 0.7874015748031497,
          "duration": 0.11111099999999396
        },
        {
          "name": "D4",
          "midi": 62,
          "time": 120.44432399999889,
          "velocity": 0.7874015748031497,
          "duration": 0.11111099999999396
        },
        {
          "name": "F4",
          "midi": 65,
          "time": 120.55543499999888,
          "velocity": 0.7874015748031497,
          "duration": 0.11111099999999396
        },
        {
          "name": "F4",
          "midi": 65,
          "time": 120.66654599999887,
          "velocity": 0.7874015748031497,
          "duration": 0.11111099999999396
        },
        {
          "name": "F4",
          "midi": 65,
          "time": 120.77765699999887,
          "velocity": 0.7874015748031497,
          "duration": 0.11111099999999396
        },
        {
          "name": "E4",
          "midi": 64,
          "time": 120.88876799999886,
          "velocity": 0.7874015748031497,
          "duration": 0.11111099999999396
        },
        {
          "name": "C4",
          "midi": 60,
          "time": 120.88876799999886,
          "velocity": 0.7874015748031497,
          "duration": 0.11111099999999396
        },
        {
          "name": "E4",
          "midi": 64,
          "time": 121.11098999999885,
          "velocity": 0.7874015748031497,
          "duration": 0.11111099999999396
        },
        {
          "name": "D4",
          "midi": 62,
          "time": 121.33321199999884,
          "velocity": 0.7874015748031497,
          "duration": 0.11111099999999396
        },
        {
          "name": "E4",
          "midi": 64,
          "time": 121.33321199999884,
          "velocity": 0.7874015748031497,
          "duration": 0.11111099999999396
        },
        {
          "name": "E4",
          "midi": 64,
          "time": 121.55543399999883,
          "velocity": 0.7874015748031497,
          "duration": 0.11111099999999396
        },
        {
          "name": "C4",
          "midi": 60,
          "time": 121.77765599999881,
          "velocity": 0.7874015748031497,
          "duration": 0.11111099999999396
        },
        {
          "name": "E4",
          "midi": 64,
          "time": 121.77765599999881,
          "velocity": 0.7874015748031497,
          "duration": 0.11111099999999396
        },
        {
          "name": "E4",
          "midi": 64,
          "time": 121.9998779999988,
          "velocity": 0.7874015748031497,
          "duration": 0.11111099999999396
        },
        {
          "name": "E4",
          "midi": 64,
          "time": 122.22209999999879,
          "velocity": 0.7874015748031497,
          "duration": 0.11111099999999396
        },
        {
          "name": "D4",
          "midi": 62,
          "time": 122.22209999999879,
          "velocity": 0.7874015748031497,
          "duration": 0.11111099999999396
        },
        {
          "name": "E4",
          "midi": 64,
          "time": 122.44432199999878,
          "velocity": 0.7874015748031497,
          "duration": 0.11111099999999396
        },
        {
          "name": "C4",
          "midi": 60,
          "time": 122.66654399999877,
          "velocity": 0.7874015748031497,
          "duration": 0.11111099999999396
        },
        {
          "name": "E4",
          "midi": 64,
          "time": 122.66654399999877,
          "velocity": 0.7874015748031497,
          "duration": 0.11111099999999396
        },
        {
          "name": "E4",
          "midi": 64,
          "time": 122.88876599999875,
          "velocity": 0.7874015748031497,
          "duration": 0.11111099999999396
        },
        {
          "name": "E4",
          "midi": 64,
          "time": 123.11098799999874,
          "velocity": 0.7874015748031497,
          "duration": 0.11111099999999396
        },
        {
          "name": "D4",
          "midi": 62,
          "time": 123.11098799999874,
          "velocity": 0.7874015748031497,
          "duration": 0.11111099999999396
        },
        {
          "name": "E4",
          "midi": 64,
          "time": 123.33320999999873,
          "velocity": 0.7874015748031497,
          "duration": 0.11111099999999396
        },
        {
          "name": "E4",
          "midi": 64,
          "time": 123.55543199999872,
          "velocity": 0.7874015748031497,
          "duration": 0.11111099999999396
        },
        {
          "name": "C4",
          "midi": 60,
          "time": 123.55543199999872,
          "velocity": 0.7874015748031497,
          "duration": 0.11111099999999396
        },
        {
          "name": "E4",
          "midi": 64,
          "time": 123.7776539999987,
          "velocity": 0.7874015748031497,
          "duration": 0.11111099999999396
        },
        {
          "name": "C4",
          "midi": 60,
          "time": 123.9998759999987,
          "velocity": 0.7874015748031497,
          "duration": 0.11111099999999396
        },
        {
          "name": "D4",
          "midi": 62,
          "time": 124.11098699999869,
          "velocity": 0.7874015748031497,
          "duration": 0.11111099999999396
        },
        {
          "name": "C4",
          "midi": 60,
          "time": 124.22209799999868,
          "velocity": 0.7874015748031497,
          "duration": 0.11111099999999396
        },
        {
          "name": "D4",
          "midi": 62,
          "time": 124.33320899999867,
          "velocity": 0.7874015748031497,
          "duration": 0.11111099999999396
        },
        {
          "name": "C4",
          "midi": 60,
          "time": 124.44431999999867,
          "velocity": 0.7874015748031497,
          "duration": 0.11111099999999396
        },
        {
          "name": "C4",
          "midi": 60,
          "time": 124.55543099999866,
          "velocity": 0.7874015748031497,
          "duration": 0.11111099999999396
        },
        {
          "name": "D4",
          "midi": 62,
          "time": 124.88876399999866,
          "velocity": 0.7874015748031497,
          "duration": 0.11111099999999396
        },
        {
          "name": "F4",
          "midi": 65,
          "time": 125.11098599999865,
          "velocity": 0.7874015748031497,
          "duration": 0.22222200000000214
        },
        {
          "name": "C4",
          "midi": 60,
          "time": 125.33320799999865,
          "velocity": 0.7874015748031497,
          "duration": 0.11111099999999396
        },
        {
          "name": "C4",
          "midi": 60,
          "time": 125.44431899999864,
          "velocity": 0.7874015748031497,
          "duration": 0.11111099999999396
        },
        {
          "name": "D4",
          "midi": 62,
          "time": 125.77765199999864,
          "velocity": 0.7874015748031497,
          "duration": 0.11111099999999396
        },
        {
          "name": "C4",
          "midi": 60,
          "time": 126.22209599999863,
          "velocity": 0.7874015748031497,
          "duration": 0.11111099999999396
        },
        {
          "name": "C4",
          "midi": 60,
          "time": 126.33320699999862,
          "velocity": 0.7874015748031497,
          "duration": 0.11111099999999396
        },
        {
          "name": "C4",
          "midi": 60,
          "time": 126.66653999999862,
          "velocity": 0.7874015748031497,
          "duration": 0.11111099999999396
        },
        {
          "name": "C4",
          "midi": 60,
          "time": 126.77765099999861,
          "velocity": 0.7874015748031497,
          "duration": 0.11111099999999396
        },
        {
          "name": "C4",
          "midi": 60,
          "time": 127.11098399999861,
          "velocity": 0.7874015748031497,
          "duration": 0.11111099999999396
        },
        {
          "name": "D4",
          "midi": 62,
          "time": 127.2220949999986,
          "velocity": 0.7874015748031497,
          "duration": 0.11111099999999396
        },
        {
          "name": "C4",
          "midi": 60,
          "time": 127.3332059999986,
          "velocity": 0.7874015748031497,
          "duration": 0.11111099999999396
        },
        {
          "name": "D4",
          "midi": 62,
          "time": 127.44431699999859,
          "velocity": 0.7874015748031497,
          "duration": 0.11111099999999396
        },
        {
          "name": "C4",
          "midi": 60,
          "time": 127.55542799999859,
          "velocity": 0.7874015748031497,
          "duration": 0.11111099999999396
        },
        {
          "name": "F4",
          "midi": 65,
          "time": 127.55542799999859,
          "velocity": 0.7874015748031497,
          "duration": 0.44444399999997586
        },
        {
          "name": "D4",
          "midi": 62,
          "time": 127.66653899999858,
          "velocity": 0.7874015748031497,
          "duration": 0.11111099999999396
        },
        {
          "name": "C4",
          "midi": 60,
          "time": 127.77764999999857,
          "velocity": 0.7874015748031497,
          "duration": 0.11111099999999396
        },
        {
          "name": "D4",
          "midi": 62,
          "time": 127.88876099999857,
          "velocity": 0.7874015748031497,
          "duration": 0.11111099999999396
        },
        {
          "name": "C4",
          "midi": 60,
          "time": 127.99987199999856,
          "velocity": 0.7874015748031497,
          "duration": 0.11111099999999396
        },
        {
          "name": "E4",
          "midi": 64,
          "time": 128.22209399999855,
          "velocity": 0.7874015748031497,
          "duration": 0.11111099999999396
        },
        {
          "name": "F4",
          "midi": 65,
          "time": 128.33320499999854,
          "velocity": 0.7874015748031497,
          "duration": 0.11111099999999396
        },
        {
          "name": "C4",
          "midi": 60,
          "time": 128.44431599999854,
          "velocity": 0.7874015748031497,
          "duration": 0.11111099999999396
        },
        {
          "name": "E4",
          "midi": 64,
          "time": 128.66653799999852,
          "velocity": 0.7874015748031497,
          "duration": 0.11111099999999396
        },
        {
          "name": "F4",
          "midi": 65,
          "time": 128.77764899999852,
          "velocity": 0.7874015748031497,
          "duration": 0.11111099999999396
        },
        {
          "name": "C4",
          "midi": 60,
          "time": 128.8887599999985,
          "velocity": 0.7874015748031497,
          "duration": 0.11111099999999396
        },
        {
          "name": "E4",
          "midi": 64,
          "time": 129.1109819999985,
          "velocity": 0.7874015748031497,
          "duration": 0.11111099999999396
        },
        {
          "name": "F4",
          "midi": 65,
          "time": 129.2220929999985,
          "velocity": 0.7874015748031497,
          "duration": 0.11111099999999396
        },
        {
          "name": "C4",
          "midi": 60,
          "time": 129.3332039999985,
          "velocity": 0.7874015748031497,
          "duration": 0.11111099999999396
        },
        {
          "name": "E4",
          "midi": 64,
          "time": 129.55542599999848,
          "velocity": 0.7874015748031497,
          "duration": 0.11111099999999396
        },
        {
          "name": "F4",
          "midi": 65,
          "time": 129.66653699999847,
          "velocity": 0.7874015748031497,
          "duration": 0.11111099999999396
        },
        {
          "name": "C4",
          "midi": 60,
          "time": 129.77764799999846,
          "velocity": 0.7874015748031497,
          "duration": 0.11111099999999396
        },
        {
          "name": "D4",
          "midi": 62,
          "time": 129.88875899999846,
          "velocity": 0.7874015748031497,
          "duration": 0.11111099999999396
        },
        {
          "name": "E4",
          "midi": 64,
          "time": 129.99986999999845,
          "velocity": 0.7874015748031497,
          "duration": 0.11111099999999396
        },
        {
          "name": "F4",
          "midi": 65,
          "time": 130.11098099999845,
          "velocity": 0.7874015748031497,
          "duration": 0.11111099999999396
        },
        {
          "name": "C4",
          "midi": 60,
          "time": 130.22209199999844,
          "velocity": 0.7874015748031497,
          "duration": 0.11111099999999396
        },
        {
          "name": "D4",
          "midi": 62,
          "time": 130.33320299999843,
          "velocity": 0.7874015748031497,
          "duration": 0.11111099999999396
        },
        {
          "name": "E4",
          "midi": 64,
          "time": 130.44431399999843,
          "velocity": 0.7874015748031497,
          "duration": 0.11111099999999396
        },
        {
          "name": "F4",
          "midi": 65,
          "time": 130.55542499999842,
          "velocity": 0.7874015748031497,
          "duration": 0.11111099999999396
        },
        {
          "name": "C4",
          "midi": 60,
          "time": 130.66653599999842,
          "velocity": 0.7874015748031497,
          "duration": 0.11111099999999396
        },
        {
          "name": "D4",
          "midi": 62,
          "time": 130.7776469999984,
          "velocity": 0.7874015748031497,
          "duration": 0.11111099999999396
        },
        {
          "name": "E4",
          "midi": 64,
          "time": 130.8887579999984,
          "velocity": 0.7874015748031497,
          "duration": 0.11111099999999396
        },
        {
          "name": "F4",
          "midi": 65,
          "time": 130.9998689999984,
          "velocity": 0.7874015748031497,
          "duration": 0.11111099999999396
        },
        {
          "name": "C4",
          "midi": 60,
          "time": 131.1109799999984,
          "velocity": 0.7874015748031497,
          "duration": 0.11111099999999396
        },
        {
          "name": "D4",
          "midi": 62,
          "time": 131.2220909999984,
          "velocity": 0.7874015748031497,
          "duration": 0.11111099999999396
        },
        {
          "name": "E4",
          "midi": 64,
          "time": 131.33320199999838,
          "velocity": 0.7874015748031497,
          "duration": 0.11111099999999396
        },
        {
          "name": "F4",
          "midi": 65,
          "time": 131.44431299999837,
          "velocity": 0.7874015748031497,
          "duration": 0.11111099999999396
        },
        {
          "name": "C4",
          "midi": 60,
          "time": 131.55542399999837,
          "velocity": 0.7874015748031497,
          "duration": 0.11111099999999396
        },
        {
          "name": "E4",
          "midi": 64,
          "time": 131.77764599999836,
          "velocity": 0.7874015748031497,
          "duration": 0.11111099999999396
        },
        {
          "name": "F4",
          "midi": 65,
          "time": 131.88875699999835,
          "velocity": 0.7874015748031497,
          "duration": 0.11111099999999396
        },
        {
          "name": "C4",
          "midi": 60,
          "time": 131.99986799999834,
          "velocity": 0.7874015748031497,
          "duration": 0.11111099999999396
        },
        {
          "name": "E4",
          "midi": 64,
          "time": 132.22208999999833,
          "velocity": 0.7874015748031497,
          "duration": 0.11111099999999396
        },
        {
          "name": "F4",
          "midi": 65,
          "time": 132.33320099999833,
          "velocity": 0.7874015748031497,
          "duration": 0.11111099999999396
        },
        {
          "name": "C4",
          "midi": 60,
          "time": 132.44431199999832,
          "velocity": 0.7874015748031497,
          "duration": 0.11111099999999396
        },
        {
          "name": "E4",
          "midi": 64,
          "time": 132.6665339999983,
          "velocity": 0.7874015748031497,
          "duration": 0.11111099999999396
        },
        {
          "name": "F4",
          "midi": 65,
          "time": 132.7776449999983,
          "velocity": 0.7874015748031497,
          "duration": 0.11111099999999396
        },
        {
          "name": "C4",
          "midi": 60,
          "time": 132.8887559999983,
          "velocity": 0.7874015748031497,
          "duration": 0.11111099999999396
        },
        {
          "name": "E4",
          "midi": 64,
          "time": 133.11097799999828,
          "velocity": 0.7874015748031497,
          "duration": 0.11111099999999396
        },
        {
          "name": "F4",
          "midi": 65,
          "time": 133.22208899999828,
          "velocity": 0.7874015748031497,
          "duration": 0.11111099999999396
        },
        {
          "name": "C4",
          "midi": 60,
          "time": 133.33319999999827,
          "velocity": 0.7874015748031497,
          "duration": 0.11111099999999396
        },
        {
          "name": "D4",
          "midi": 62,
          "time": 133.44431099999827,
          "velocity": 0.7874015748031497,
          "duration": 0.11111099999999396
        },
        {
          "name": "E4",
          "midi": 64,
          "time": 133.55542199999826,
          "velocity": 0.7874015748031497,
          "duration": 0.11111099999999396
        },
        {
          "name": "F4",
          "midi": 65,
          "time": 133.66653299999825,
          "velocity": 0.7874015748031497,
          "duration": 0.11111099999999396
        },
        {
          "name": "C4",
          "midi": 60,
          "time": 133.77764399999825,
          "velocity": 0.7874015748031497,
          "duration": 0.11111099999999396
        },
        {
          "name": "D4",
          "midi": 62,
          "time": 133.88875499999824,
          "velocity": 0.7874015748031497,
          "duration": 0.11111099999999396
        },
        {
          "name": "E4",
          "midi": 64,
          "time": 133.99986599999824,
          "velocity": 0.7874015748031497,
          "duration": 0.11111099999999396
        },
        {
          "name": "F4",
          "midi": 65,
          "time": 134.11097699999823,
          "velocity": 0.7874015748031497,
          "duration": 0.11111099999999396
        },
        {
          "name": "C4",
          "midi": 60,
          "time": 134.22208799999822,
          "velocity": 0.7874015748031497,
          "duration": 0.11111099999999396
        },
        {
          "name": "D4",
          "midi": 62,
          "time": 134.33319899999822,
          "velocity": 0.7874015748031497,
          "duration": 0.11111099999999396
        },
        {
          "name": "E4",
          "midi": 64,
          "time": 134.4443099999982,
          "velocity": 0.7874015748031497,
          "duration": 0.11111099999999396
        },
        {
          "name": "F4",
          "midi": 65,
          "time": 134.5554209999982,
          "velocity": 0.7874015748031497,
          "duration": 0.11111099999999396
        },
        {
          "name": "C4",
          "midi": 60,
          "time": 134.6665319999982,
          "velocity": 0.7874015748031497,
          "duration": 0.11111099999999396
        },
        {
          "name": "D4",
          "midi": 62,
          "time": 134.7776429999982,
          "velocity": 0.7874015748031497,
          "duration": 0.11111099999999396
        },
        {
          "name": "E4",
          "midi": 64,
          "time": 134.8887539999982,
          "velocity": 0.7874015748031497,
          "duration": 0.11111099999999396
        },
        {
          "name": "F4",
          "midi": 65,
          "time": 134.99986499999818,
          "velocity": 0.7874015748031497,
          "duration": 0.11111099999999396
        },
        {
          "name": "C4",
          "midi": 60,
          "time": 135.11097599999817,
          "velocity": 0.7874015748031497,
          "duration": 0.11111099999999396
        },
        {
          "name": "E4",
          "midi": 64,
          "time": 135.33319799999816,
          "velocity": 0.7874015748031497,
          "duration": 0.11111099999999396
        },
        {
          "name": "F4",
          "midi": 65,
          "time": 135.44430899999816,
          "velocity": 0.7874015748031497,
          "duration": 0.11111099999999396
        },
        {
          "name": "C4",
          "midi": 60,
          "time": 135.55541999999815,
          "velocity": 0.7874015748031497,
          "duration": 0.11111099999999396
        },
        {
          "name": "E4",
          "midi": 64,
          "time": 135.77764199999814,
          "velocity": 0.7874015748031497,
          "duration": 0.11111099999999396
        },
        {
          "name": "F4",
          "midi": 65,
          "time": 135.88875299999813,
          "velocity": 0.7874015748031497,
          "duration": 0.11111099999999396
        },
        {
          "name": "C4",
          "midi": 60,
          "time": 135.99986399999813,
          "velocity": 0.7874015748031497,
          "duration": 0.11111099999999396
        },
        {
          "name": "E4",
          "midi": 64,
          "time": 136.22208599999811,
          "velocity": 0.7874015748031497,
          "duration": 0.11111099999999396
        },
        {
          "name": "F4",
          "midi": 65,
          "time": 136.3331969999981,
          "velocity": 0.7874015748031497,
          "duration": 0.11111099999999396
        },
        {
          "name": "C4",
          "midi": 60,
          "time": 136.4443079999981,
          "velocity": 0.7874015748031497,
          "duration": 0.11111099999999396
        },
        {
          "name": "E4",
          "midi": 64,
          "time": 136.6665299999981,
          "velocity": 0.7874015748031497,
          "duration": 0.11111099999999396
        },
        {
          "name": "F4",
          "midi": 65,
          "time": 136.77764099999808,
          "velocity": 0.7874015748031497,
          "duration": 0.11111099999999396
        },
        {
          "name": "C4",
          "midi": 60,
          "time": 136.88875199999808,
          "velocity": 0.7874015748031497,
          "duration": 0.11111099999999396
        },
        {
          "name": "D4",
          "midi": 62,
          "time": 136.99986299999807,
          "velocity": 0.7874015748031497,
          "duration": 0.11111099999999396
        },
        {
          "name": "E4",
          "midi": 64,
          "time": 137.11097399999807,
          "velocity": 0.7874015748031497,
          "duration": 0.11111099999999396
        },
        {
          "name": "F4",
          "midi": 65,
          "time": 137.22208499999806,
          "velocity": 0.7874015748031497,
          "duration": 0.11111099999999396
        },
        {
          "name": "C4",
          "midi": 60,
          "time": 137.33319599999805,
          "velocity": 0.7874015748031497,
          "duration": 0.11111099999999396
        },
        {
          "name": "D4",
          "midi": 62,
          "time": 137.44430699999805,
          "velocity": 0.7874015748031497,
          "duration": 0.11111099999999396
        },
        {
          "name": "E4",
          "midi": 64,
          "time": 137.55541799999804,
          "velocity": 0.7874015748031497,
          "duration": 0.11111099999999396
        },
        {
          "name": "F4",
          "midi": 65,
          "time": 137.66652899999804,
          "velocity": 0.7874015748031497,
          "duration": 0.11111099999999396
        },
        {
          "name": "C4",
          "midi": 60,
          "time": 137.77763999999803,
          "velocity": 0.7874015748031497,
          "duration": 0.11111099999999396
        },
        {
          "name": "D4",
          "midi": 62,
          "time": 137.88875099999802,
          "velocity": 0.7874015748031497,
          "duration": 0.11111099999999396
        },
        {
          "name": "E4",
          "midi": 64,
          "time": 137.99986199999802,
          "velocity": 0.7874015748031497,
          "duration": 0.11111099999999396
        },
        {
          "name": "F4",
          "midi": 65,
          "time": 138.110972999998,
          "velocity": 0.7874015748031497,
          "duration": 0.11111099999999396
        },
        {
          "name": "C4",
          "midi": 60,
          "time": 138.222083999998,
          "velocity": 0.7874015748031497,
          "duration": 0.11111099999999396
        },
        {
          "name": "D4",
          "midi": 62,
          "time": 138.333194999998,
          "velocity": 0.7874015748031497,
          "duration": 0.11111099999999396
        },
        {
          "name": "E4",
          "midi": 64,
          "time": 138.444305999998,
          "velocity": 0.7874015748031497,
          "duration": 0.11111099999999396
        },
        {
          "name": "F4",
          "midi": 65,
          "time": 138.555416999998,
          "velocity": 0.7874015748031497,
          "duration": 0.11111099999999396
        },
        {
          "name": "C4",
          "midi": 60,
          "time": 138.66652799999798,
          "velocity": 0.7874015748031497,
          "duration": 0.11111099999999396
        },
        {
          "name": "D4",
          "midi": 62,
          "time": 138.77763899999798,
          "velocity": 0.7874015748031497,
          "duration": 0.11111099999999396
        },
        {
          "name": "E4",
          "midi": 64,
          "time": 138.88874999999797,
          "velocity": 0.7874015748031497,
          "duration": 0.11111099999999396
        },
        {
          "name": "F4",
          "midi": 65,
          "time": 138.99986099999796,
          "velocity": 0.7874015748031497,
          "duration": 0.11111099999999396
        },
        {
          "name": "C4",
          "midi": 60,
          "time": 139.11097199999796,
          "velocity": 0.7874015748031497,
          "duration": 0.11111099999999396
        },
        {
          "name": "D4",
          "midi": 62,
          "time": 139.22208299999795,
          "velocity": 0.7874015748031497,
          "duration": 0.11111099999999396
        },
        {
          "name": "E4",
          "midi": 64,
          "time": 139.33319399999795,
          "velocity": 0.7874015748031497,
          "duration": 0.11111099999999396
        },
        {
          "name": "F4",
          "midi": 65,
          "time": 139.44430499999794,
          "velocity": 0.7874015748031497,
          "duration": 0.11111099999999396
        },
        {
          "name": "C4",
          "midi": 60,
          "time": 139.55541599999793,
          "velocity": 0.7874015748031497,
          "duration": 0.11111099999999396
        },
        {
          "name": "D4",
          "midi": 62,
          "time": 139.66652699999793,
          "velocity": 0.7874015748031497,
          "duration": 0.11111099999999396
        },
        {
          "name": "E4",
          "midi": 64,
          "time": 139.77763799999792,
          "velocity": 0.7874015748031497,
          "duration": 0.11111099999999396
        },
        {
          "name": "F4",
          "midi": 65,
          "time": 139.88874899999792,
          "velocity": 0.7874015748031497,
          "duration": 0.11111099999999396
        },
        {
          "name": "C4",
          "midi": 60,
          "time": 139.9998599999979,
          "velocity": 0.7874015748031497,
          "duration": 0.11111099999999396
        },
        {
          "name": "D4",
          "midi": 62,
          "time": 140.1109709999979,
          "velocity": 0.7874015748031497,
          "duration": 0.11111099999999396
        },
        {
          "name": "E4",
          "midi": 64,
          "time": 140.2220819999979,
          "velocity": 0.7874015748031497,
          "duration": 0.11111099999999396
        },
        {
          "name": "F4",
          "midi": 65,
          "time": 140.3331929999979,
          "velocity": 0.7874015748031497,
          "duration": 0.11111099999999396
        },
        {
          "name": "C4",
          "midi": 60,
          "time": 140.44430399999789,
          "velocity": 0.7874015748031497,
          "duration": 0.11111099999999396
        },
        {
          "name": "D4",
          "midi": 62,
          "time": 140.55541499999788,
          "velocity": 0.7874015748031497,
          "duration": 0.11111099999999396
        },
        {
          "name": "E4",
          "midi": 64,
          "time": 140.66652599999787,
          "velocity": 0.7874015748031497,
          "duration": 0.11111099999999396
        },
        {
          "name": "F4",
          "midi": 65,
          "time": 140.77763699999787,
          "velocity": 0.7874015748031497,
          "duration": 0.11111099999999396
        },
        {
          "name": "C4",
          "midi": 60,
          "time": 140.88874799999786,
          "velocity": 0.7874015748031497,
          "duration": 0.11111099999999396
        },
        {
          "name": "D4",
          "midi": 62,
          "time": 140.99985899999785,
          "velocity": 0.7874015748031497,
          "duration": 0.11111099999999396
        },
        {
          "name": "E4",
          "midi": 64,
          "time": 141.11096999999785,
          "velocity": 0.7874015748031497,
          "duration": 0.11111099999999396
        },
        {
          "name": "F4",
          "midi": 65,
          "time": 141.22208099999784,
          "velocity": 0.7874015748031497,
          "duration": 0.11111099999999396
        },
        {
          "name": "C4",
          "midi": 60,
          "time": 141.33319199999784,
          "velocity": 0.7874015748031497,
          "duration": 0.11111099999999396
        },
        {
          "name": "D4",
          "midi": 62,
          "time": 141.44430299999783,
          "velocity": 0.7874015748031497,
          "duration": 0.11111099999999396
        },
        {
          "name": "E4",
          "midi": 64,
          "time": 141.55541399999782,
          "velocity": 0.7874015748031497,
          "duration": 0.11111099999999396
        },
        {
          "name": "F4",
          "midi": 65,
          "time": 141.66652499999782,
          "velocity": 0.7874015748031497,
          "duration": 0.11111099999999396
        },
        {
          "name": "C4",
          "midi": 60,
          "time": 141.7776359999978,
          "velocity": 0.7874015748031497,
          "duration": 0.11111099999999396
        },
        {
          "name": "D4",
          "midi": 62,
          "time": 141.8887469999978,
          "velocity": 0.7874015748031497,
          "duration": 0.11111099999999396
        },
        {
          "name": "E4",
          "midi": 64,
          "time": 141.9998579999978,
          "velocity": 0.7874015748031497,
          "duration": 0.11111099999999396
        },
        {
          "name": "F4",
          "midi": 65,
          "time": 142.1109689999978,
          "velocity": 0.7874015748031497,
          "duration": 0.11111099999999396
        }
      ],
      "controlChanges": {},
      "id": 1,
      "name": "lo-fi-short-snare_B_minor 1",
      "channelNumber": 0,
      "isPercussion": false
    }
  ]
}